<svg fill="none" xmlns="http://www.w3.org/2000/svg" viewBox="0 48.5 357 136.75">
<rect y="128.538" width="138.256" height="56.7078" fill="#B4C8E2"/>
<rect x="110.345" y="90.1025" width="138.256" height="56.7078" fill="#EFCC4D" fill-opacity="0.2"/>
<rect x="218.744" y="48.5166" width="138.256" height="56.7078" fill="#D7DEE8"/>
<path d="M70.7554 58.3087C76.1652 58.3087 80.2768 58.9579 83.0899 60.2562C85.903 61.4464 88.3916 62.7989 90.5556 64.3136C91.8539 65.071 92.8818 65.6661 93.6392 66.0989C94.5048 66.4235 95.3163 66.5858 96.0736 66.5858C97.1556 66.5858 97.913 65.9907 98.3458 64.8005C98.8868 63.6104 99.3196 61.8251 99.6442 59.4448H103.377C103.269 61.2841 103.106 63.5022 102.89 66.0989C102.782 68.5875 102.674 71.9416 102.566 76.1613C102.566 80.2728 102.566 85.7368 102.566 92.5533H98.8327C98.5081 87.3598 97.372 82.3827 95.4245 77.622C93.4769 72.8613 90.6096 68.9662 86.8227 65.9366C83.144 62.9071 78.2751 61.3923 72.216 61.3923C66.4815 61.3923 61.7208 63.1235 57.9339 66.5858C54.2552 70.0481 52.4158 74.5924 52.4158 80.2187C52.4158 85.0876 53.6601 89.1991 56.1486 92.5533C58.6372 95.7992 61.9372 98.7747 66.0487 101.48C70.2685 104.076 74.8128 106.889 79.6817 109.919C85.308 113.381 90.2851 116.844 94.613 120.306C99.0491 123.66 102.511 127.393 105 131.504C107.597 135.616 108.895 140.593 108.895 146.436C108.895 153.36 107.326 159.095 104.188 163.639C101.051 168.184 96.8851 171.592 91.6916 173.864C86.4981 176.136 80.7636 177.272 74.4882 177.272C68.7537 177.272 64.2094 176.623 60.8553 175.325C57.5011 174.026 54.6339 172.674 52.2535 171.267C49.8732 169.752 48.0338 168.995 46.7354 168.995C45.6535 168.995 44.842 169.59 44.301 170.78C43.8682 171.97 43.4895 173.756 43.1649 176.136H39.4321C39.6485 173.864 39.7567 171.213 39.7567 168.184C39.8649 165.046 39.919 160.988 39.919 156.011C40.0272 151.034 40.0813 144.759 40.0813 137.185H43.8141C44.2469 143.677 45.4371 149.736 47.3846 155.362C49.4404 160.988 52.524 165.533 56.6355 168.995C60.8553 172.349 66.4274 174.026 73.3521 174.026C76.9226 174.026 80.2768 173.323 83.4145 171.916C86.6604 170.402 89.3113 168.075 91.367 164.938C93.4228 161.692 94.4507 157.526 94.4507 152.441C94.4507 148.005 93.3687 144.164 91.2047 140.918C89.149 137.564 86.2276 134.48 82.4407 131.667C78.6538 128.745 74.2177 125.77 69.1324 122.74C64.0471 119.603 59.2864 116.411 54.8503 113.165C50.4142 109.919 46.8436 106.186 44.1387 101.966C41.5419 97.6386 40.2436 92.4451 40.2436 86.386C40.2436 80.0023 41.6501 74.7547 44.4633 70.6432C47.3846 66.4235 51.1716 63.3399 55.8241 61.3923C60.4766 59.3366 65.4537 58.3087 70.7554 58.3087ZM168.483 59.2824L208.084 161.367C209.707 165.479 211.546 168.238 213.602 169.644C215.658 170.943 217.551 171.646 219.282 171.754V175C217.118 174.784 214.467 174.675 211.33 174.675C208.192 174.567 205.054 174.513 201.916 174.513C197.697 174.513 193.748 174.567 190.069 174.675C186.39 174.675 183.415 174.784 181.142 175V171.754C186.661 171.538 190.177 170.618 191.692 168.995C193.207 167.264 192.882 163.639 190.718 158.121L160.531 77.4597L163.128 75.3498L134.888 148.708C133.157 153.036 132.129 156.715 131.804 159.744C131.48 162.665 131.75 164.992 132.616 166.723C133.59 168.454 135.158 169.698 137.322 170.456C139.595 171.213 142.408 171.646 145.762 171.754V175C142.732 174.784 139.54 174.675 136.186 174.675C132.94 174.567 129.911 174.513 127.098 174.513C124.393 174.513 122.066 174.567 120.119 174.675C118.28 174.675 116.548 174.784 114.925 175V171.754C117.089 171.213 119.307 169.969 121.58 168.021C123.852 165.965 125.907 162.503 127.747 157.634L165.887 59.2824C166.319 59.2824 166.752 59.2824 167.185 59.2824C167.618 59.2824 168.051 59.2824 168.483 59.2824ZM188.284 128.259V131.504H139.919L141.542 128.259H188.284ZM276.917 57.8218C284.058 57.8218 289.9 58.9038 294.445 61.0677C299.097 63.1235 303.209 65.5579 306.779 68.3711C308.943 69.994 310.566 70.2104 311.648 69.0203C312.838 67.7219 313.65 64.7464 314.082 60.0939H317.815C317.599 64.0973 317.437 68.9662 317.328 74.7006C317.22 80.4351 317.166 88.009 317.166 97.4222H313.433C312.676 92.7697 311.973 89.0909 311.323 86.386C310.674 83.5729 309.863 81.1925 308.889 79.2449C308.023 77.2974 306.833 75.3498 305.318 73.4023C301.964 68.9662 297.745 65.7743 292.659 63.8268C287.574 61.771 282.218 60.7431 276.592 60.7431C271.29 60.7431 266.475 62.0956 262.148 64.8005C257.928 67.3973 254.249 71.1842 251.111 76.1613C248.082 81.1384 245.701 87.1434 243.97 94.1762C242.347 101.209 241.536 109.108 241.536 117.872C241.536 126.96 242.456 135.021 244.295 142.054C246.134 148.978 248.677 154.821 251.923 159.582C255.277 164.343 259.172 167.967 263.608 170.456C268.153 172.836 273.021 174.026 278.215 174.026C283.084 174.026 288.169 173.052 293.471 171.105C298.772 169.157 302.938 166.02 305.968 161.692C308.348 158.554 309.971 155.146 310.837 151.467C311.81 147.788 312.676 142.649 313.433 136.049H317.166C317.166 145.895 317.22 153.847 317.328 159.906C317.437 165.857 317.599 170.888 317.815 175H314.082C313.65 170.347 312.892 167.426 311.81 166.236C310.837 165.046 309.159 165.208 306.779 166.723C302.776 169.536 298.502 172.025 293.958 174.189C289.522 176.244 283.787 177.272 276.754 177.272C266.475 177.272 257.441 174.946 249.651 170.293C241.969 165.641 235.964 158.933 231.636 150.169C227.416 141.405 225.306 130.855 225.306 118.521C225.306 106.403 227.524 95.7992 231.96 86.7106C236.396 77.622 242.456 70.535 250.138 65.4497C257.928 60.3644 266.854 57.8218 276.917 57.8218Z" fill="#092159"/>
</svg>