<svg
  width="158"
  height="50"
  viewBox="0 0 158 50"
  fill="none"
  xmlns="http://www.w3.org/2000/svg"
>
<path
    d="M153.062 49.6875H4.9375C2.22187 49.6875 0 47.4656 0 44.75V5.25C0 2.53437 2.22187 0.3125 4.9375 0.3125H153.062C155.778 0.3125 158 2.53437 158 5.25V44.75C158 47.4656 155.778 49.6875 153.062 49.6875Z"
    fill="black"
  />
<path
    d="M33.3282 24.7532C33.3282 20.9266 36.5375 19.075 36.661 18.9516C34.8094 16.3594 32.0938 15.9891 31.1063 15.8657C28.761 15.6188 26.4157 17.2235 25.3047 17.2235C24.0703 17.2235 22.2188 15.8657 20.2438 15.8657C17.6516 15.8657 15.3063 17.3469 13.9485 19.6922C11.2328 24.3829 13.2079 31.2954 15.8 35.1219C17.1579 36.9735 18.6391 39.0719 20.6141 38.9485C22.5891 38.825 23.3297 37.7141 25.675 37.7141C28.0204 37.7141 28.6375 38.9485 30.736 38.9485C32.8344 38.9485 34.1922 37.0969 35.4266 35.2454C36.9079 33.1469 37.525 31.0485 37.525 30.925C37.4016 30.8016 33.3282 29.3204 33.3282 24.7532Z"
    fill="white"
  />
<path
    d="M29.5016 13.397C30.4891 12.0392 31.2297 10.311 31.1063 8.45947C29.6251 8.58291 27.6501 9.44697 26.6626 10.8048C25.6751 11.9157 24.811 13.7673 25.0579 15.4954C26.6626 15.6188 28.3907 14.6314 29.5016 13.397Z"
    fill="white"
  />
<path
    d="M61.4719 38.7015H58.7563L57.275 34.0109H52.0906L50.7328 38.7015H48.1406L53.325 22.7781H56.5344L61.4719 38.7015ZM56.7812 32.0359L55.4234 27.839C55.3 27.4687 55.0531 26.3578 54.5594 24.8765C54.4359 25.4937 54.1891 26.6046 53.8188 27.839L52.4609 32.0359H56.7812Z"
    fill="white"
  />
<path
    d="M74.6797 32.9C74.6797 34.875 74.1859 36.3562 73.075 37.5906C72.0875 38.5781 70.9766 39.0718 69.4953 39.0718C68.0141 39.0718 66.9031 38.5781 66.2859 37.4671V43.5156H63.6938V31.1718C63.6938 29.9375 63.6938 28.7031 63.5703 27.3453H65.7922L65.9156 29.1968C66.7797 27.839 68.0141 27.0984 69.7422 27.0984C71.1 27.0984 72.2109 27.5921 73.075 28.7031C74.1859 29.6906 74.6797 31.0484 74.6797 32.9ZM72.0875 32.9C72.0875 31.789 71.8406 30.8015 71.3469 30.1843C70.8531 29.4437 70.1125 29.0734 69.125 29.0734C68.5078 29.0734 67.8906 29.3203 67.3969 29.6906C66.9031 30.0609 66.5328 30.6781 66.4094 31.2953C66.2859 31.6656 66.2859 31.9125 66.2859 32.0359V34.0109C66.2859 34.875 66.5328 35.4921 67.0266 36.1093C67.5203 36.7265 68.2609 36.9734 69.0016 36.9734C69.9891 36.9734 70.7297 36.6031 71.2234 35.8625C71.8406 35.1218 72.0875 34.1343 72.0875 32.9Z"
    fill="white"
  />
<path
    d="M87.8876 32.9C87.8876 34.875 87.3938 36.3562 86.2829 37.5906C85.2954 38.5781 84.1844 39.0718 82.7032 39.0718C81.2219 39.0718 80.111 38.5781 79.4938 37.4671V43.5156H76.9016V31.1718C76.9016 29.9375 76.9016 28.7031 76.7782 27.3453H79.0001L79.1235 29.1968C79.9876 27.839 81.2219 27.0984 82.9501 27.0984C84.3079 27.0984 85.4188 27.5921 86.2829 28.7031C87.3938 29.6906 87.8876 31.0484 87.8876 32.9ZM85.2954 32.9C85.2954 31.789 85.0485 30.8015 84.5548 30.1843C84.061 29.4437 83.3204 29.0734 82.3329 29.0734C81.7157 29.0734 81.0985 29.3203 80.6048 29.6906C80.111 30.0609 79.7407 30.6781 79.6173 31.2953C79.4938 31.6656 79.4938 31.9125 79.4938 32.0359V34.0109C79.4938 34.875 79.7407 35.4921 80.2344 36.1093C80.7282 36.7265 81.4688 36.9734 82.2095 36.9734C83.197 36.9734 83.9376 36.6031 84.4313 35.8625C85.0485 35.1218 85.2954 34.1343 85.2954 32.9Z"
    fill="white"
  />
<path
    d="M102.7 34.2579C102.7 35.6157 102.206 36.7267 101.342 37.5907C100.355 38.5782 98.8734 38.9485 97.0218 38.9485C95.2937 38.9485 93.9359 38.5782 92.9484 37.961L93.5656 35.8626C94.6765 36.4798 95.9109 36.8501 97.2687 36.8501C98.2562 36.8501 98.9968 36.6032 99.4906 36.2329C99.9843 35.7392 100.231 35.2454 100.231 34.5048C100.231 33.8876 99.9843 33.2704 99.614 32.9001C99.1202 32.4063 98.3796 32.036 97.3921 31.6657C94.553 30.6782 93.1952 29.0735 93.1952 27.0985C93.1952 25.7407 93.689 24.7532 94.6765 23.8892C95.664 23.0251 96.8984 22.6548 98.6265 22.6548C100.108 22.6548 101.219 22.9017 102.206 23.3954L101.589 25.4939C100.725 25.0001 99.7374 24.7532 98.5031 24.7532C97.639 24.7532 96.8984 25.0001 96.4046 25.3704C96.0343 25.7407 95.7874 26.2345 95.7874 26.8517C95.7874 27.4688 96.0343 27.9626 96.5281 28.4563C96.8984 28.8267 97.7624 29.197 98.8734 29.6907C100.231 30.1845 101.219 30.9251 101.959 31.6657C102.33 32.2829 102.7 33.147 102.7 34.2579Z"
    fill="white"
  />
<path
    d="M111.094 29.1969H108.255V34.7516C108.255 36.1094 108.748 36.85 109.736 36.85C110.23 36.85 110.6 36.85 110.847 36.7266L110.97 38.7016C110.476 38.9484 109.859 38.9484 108.995 38.9484C108.008 38.9484 107.144 38.7016 106.65 38.0844C106.033 37.4672 105.786 36.4797 105.786 34.9984V29.1969H104.058V27.2219H105.786V25.1234L108.255 24.3828V27.2219H111.094V29.1969Z"
    fill="white"
  />
<path
    d="M123.808 32.9001C123.808 34.6282 123.314 36.1095 122.327 37.2204C121.216 38.3313 119.858 38.9485 118.13 38.9485C116.402 38.9485 115.044 38.3313 114.056 37.2204C113.069 36.1095 112.575 34.7517 112.575 33.0235C112.575 31.2954 113.069 29.8142 114.18 28.7032C115.167 27.5923 116.649 26.9751 118.377 26.9751C120.105 26.9751 121.463 27.5923 122.45 28.7032C123.314 29.8142 123.808 31.172 123.808 32.9001ZM121.092 33.0235C121.092 31.9126 120.845 31.0485 120.352 30.3079C119.858 29.4438 118.994 28.9501 118.006 28.9501C117.019 28.9501 116.155 29.4438 115.661 30.3079C115.167 31.0485 114.92 32.036 114.92 33.0235C114.92 34.1345 115.167 34.9985 115.661 35.7392C116.155 36.6032 117.019 37.097 118.006 37.097C118.994 37.097 119.734 36.6032 120.352 35.7392C120.845 34.9985 121.092 34.011 121.092 33.0235Z"
    fill="white"
  />
<path
    d="M132.078 29.4437C131.831 29.4437 131.584 29.3203 131.214 29.3203C130.35 29.3203 129.609 29.6906 129.116 30.3078C128.745 30.925 128.498 31.6656 128.498 32.5297V38.5781H125.906V30.6781C125.906 29.3203 125.906 28.2094 125.783 27.0984H128.005L128.128 29.3203H128.252C128.498 28.5797 128.992 27.9625 129.486 27.4688C130.103 27.0984 130.72 26.8516 131.338 26.8516C131.584 26.8516 131.831 26.8516 131.955 26.8516V29.4437H132.078Z"
    fill="white"
  />
<path
    d="M143.434 32.4063C143.434 32.9001 143.434 33.2704 143.311 33.5173H135.658C135.658 34.6282 136.028 35.4923 136.769 36.1095C137.386 36.6032 138.25 36.9735 139.238 36.9735C140.348 36.9735 141.459 36.8501 142.323 36.4798L142.694 38.2079C141.583 38.7017 140.348 38.9485 138.867 38.9485C137.139 38.9485 135.658 38.4548 134.67 37.3438C133.683 36.3563 133.189 34.8751 133.189 33.147C133.189 31.4188 133.683 29.9376 134.547 28.8267C135.534 27.5923 136.892 26.9751 138.62 26.9751C140.225 26.9751 141.583 27.5923 142.323 28.8267C143.188 29.8142 143.434 31.0485 143.434 32.4063ZM141.089 31.7892C141.089 31.0485 140.966 30.4314 140.595 29.8142C140.102 29.0735 139.484 28.7032 138.62 28.7032C137.756 28.7032 137.139 29.0735 136.645 29.6907C136.275 30.1845 136.028 30.9251 135.905 31.6657H141.089V31.7892Z"
    fill="white"
  />
<path
    d="M56.0407 13.0266C56.0407 14.3844 55.6704 15.4954 54.8063 16.236C54.0657 16.8532 52.9548 17.2235 51.4735 17.2235C50.7329 17.2235 50.1157 17.2235 49.6219 17.1V9.44692C50.2391 9.32349 50.9798 9.32349 51.8438 9.32349C53.2016 9.32349 54.1891 9.57036 54.9298 10.1875C55.5469 10.8047 56.0407 11.7922 56.0407 13.0266ZM54.6829 13.0266C54.6829 12.1625 54.436 11.4219 53.9423 10.9282C53.4485 10.4344 52.7079 10.1875 51.8438 10.1875C51.4735 10.1875 51.1032 10.1876 50.8563 10.311V16.1125C50.9798 16.1125 51.3501 16.1125 51.7204 16.1125C52.7079 16.1125 53.4485 15.8657 53.9423 15.3719C54.436 14.8782 54.6829 14.0141 54.6829 13.0266Z"
    fill="white"
  />
<path
    d="M62.9531 14.2608C62.9531 15.1249 62.7063 15.8655 62.2125 16.3593C61.7188 16.9765 60.9781 17.2233 60.1141 17.2233C59.25 17.2233 58.6328 16.9765 58.1391 16.3593C57.6453 15.8655 57.3984 15.1249 57.3984 14.2608C57.3984 13.3968 57.6453 12.6562 58.1391 12.1624C58.6328 11.5452 59.3734 11.2983 60.2375 11.2983C61.1016 11.2983 61.7188 11.5452 62.2125 12.1624C62.7063 12.6562 62.9531 13.3968 62.9531 14.2608ZM61.7188 14.2608C61.7188 13.7671 61.5953 13.2733 61.3484 12.903C61.1016 12.4093 60.7313 12.2858 60.2375 12.2858C59.7438 12.2858 59.3734 12.5327 59.1266 12.903C58.8797 13.2733 58.7563 13.7671 58.7563 14.2608C58.7563 14.7546 58.8797 15.2483 59.1266 15.6187C59.3734 16.1124 59.7438 16.2358 60.2375 16.2358C60.7313 16.2358 61.1016 15.989 61.3484 15.4952C61.5953 15.2483 61.7188 14.7546 61.7188 14.2608Z"
    fill="white"
  />
<path
    d="M72.4578 11.4219L70.7297 17.1H69.6187L68.8781 14.6313C68.6312 14.0141 68.5078 13.3969 68.3844 12.7797C68.2609 13.3969 68.1375 14.0141 67.8906 14.6313L67.15 17.1H66.0391L64.1875 11.4219H65.4219L66.0391 14.1375C66.1625 14.7547 66.2859 15.3719 66.4094 15.9891C66.5328 15.4953 66.6563 14.8781 66.9031 14.1375L67.6438 11.4219H68.6313L69.3719 14.0141C69.6187 14.6313 69.7422 15.2484 69.8656 15.8656C69.9891 15.2484 70.1125 14.6313 70.2359 14.0141L70.9766 11.4219H72.4578Z"
    fill="white"
  />
<path
    d="M78.8766 17.1H77.6422V13.8907C77.6422 12.9032 77.2719 12.4094 76.5312 12.4094C76.1609 12.4094 75.9141 12.5329 75.6672 12.7797C75.4203 13.0266 75.2969 13.3969 75.2969 13.7672V17.1H74.0625V13.0266C74.0625 12.5329 74.0625 12.0391 74.0625 11.4219H75.1734V12.286C75.2969 12.0391 75.5437 11.7922 75.7906 11.5454C76.1609 11.2985 76.5312 11.175 76.9016 11.175C77.3953 11.175 77.8891 11.2985 78.2594 11.6688C78.7531 12.0391 78.8766 12.6563 78.8766 13.5204V17.1Z"
    fill="white"
  />
<path d="M82.3329 17.0999H81.0985V8.82959H82.3329V17.0999Z" fill="white" />
<path
    d="M89.7391 14.2608C89.7391 15.1249 89.4923 15.8655 88.9985 16.3593C88.5048 16.9765 87.7641 17.2233 86.9001 17.2233C86.036 17.2233 85.4188 16.9765 84.9251 16.3593C84.4313 15.8655 84.1844 15.1249 84.1844 14.2608C84.1844 13.3968 84.4313 12.6562 84.9251 12.1624C85.4188 11.6687 86.1594 11.2983 87.0235 11.2983C87.8876 11.2983 88.5048 11.5452 88.9985 12.1624C89.4923 12.6562 89.7391 13.3968 89.7391 14.2608ZM88.5048 14.2608C88.5048 13.7671 88.3813 13.2733 88.1344 12.903C87.8876 12.4093 87.5173 12.2858 87.0235 12.2858C86.5298 12.2858 86.1595 12.5327 85.9126 12.903C85.6657 13.2733 85.5423 13.7671 85.5423 14.2608C85.5423 14.7546 85.6657 15.2483 85.9126 15.6187C86.1595 16.1124 86.5298 16.2358 87.0235 16.2358C87.5173 16.2358 87.8876 15.989 88.1344 15.4952C88.3813 15.2483 88.5048 14.7546 88.5048 14.2608Z"
    fill="white"
  />
<path
    d="M95.7875 17.0999H94.6766L94.5532 16.4827C94.1828 16.9765 93.5657 17.2233 92.9485 17.2233C92.4547 17.2233 91.961 17.0999 91.7141 16.7296C91.4672 16.3593 91.2203 15.989 91.2203 15.6187C91.2203 14.878 91.4672 14.3843 92.0844 14.014C92.7016 13.6437 93.4422 13.5202 94.5532 13.5202V13.3968C94.5532 12.6562 94.1828 12.2858 93.4422 12.2858C92.825 12.2858 92.4547 12.4093 91.961 12.6562L91.7141 11.7921C92.2078 11.4218 92.825 11.2983 93.6891 11.2983C95.1703 11.2983 95.911 12.039 95.911 13.6437V15.7421C95.7875 16.3593 95.7875 16.7296 95.7875 17.0999ZM94.5532 15.1249V14.2608C93.1953 14.2608 92.4547 14.6312 92.4547 15.3718C92.4547 15.6187 92.5782 15.8655 92.7016 15.989C92.825 16.1124 93.0719 16.2358 93.3188 16.2358C93.5657 16.2358 93.8125 16.1124 94.0594 15.989C94.3063 15.8655 94.4297 15.6187 94.5532 15.3718C94.5532 15.3718 94.5532 15.2483 94.5532 15.1249Z"
    fill="white"
  />
<path
    d="M102.947 17.1H101.836V16.2359C101.466 16.9766 100.848 17.2234 99.9843 17.2234C99.2437 17.2234 98.75 16.9766 98.2562 16.4828C97.7625 15.9891 97.639 15.2484 97.639 14.3844C97.639 13.5203 97.8859 12.7797 98.3797 12.1625C98.8734 11.6688 99.4906 11.4219 100.108 11.4219C100.848 11.4219 101.342 11.6688 101.712 12.1625V8.95312H102.947V15.6188C102.947 16.1125 102.947 16.6063 102.947 17.1ZM101.712 14.7547V13.7672C101.712 13.6438 101.712 13.5203 101.712 13.3969C101.589 13.15 101.466 12.9031 101.219 12.6563C100.972 12.4094 100.725 12.4094 100.355 12.4094C99.8609 12.4094 99.4906 12.6563 99.2437 13.0266C98.9968 13.3969 98.8734 13.8906 98.8734 14.5078C98.8734 15.125 98.9968 15.4953 99.2437 15.8656C99.4906 16.2359 99.8609 16.4828 100.355 16.4828C100.725 16.4828 101.095 16.3594 101.342 15.9891C101.589 15.4953 101.712 15.125 101.712 14.7547Z"
    fill="white"
  />
<path
    d="M113.686 14.2608C113.686 15.1249 113.439 15.8655 112.945 16.3593C112.452 16.9765 111.711 17.2233 110.847 17.2233C109.983 17.2233 109.366 16.9765 108.872 16.3593C108.378 15.8655 108.131 15.1249 108.131 14.2608C108.131 13.3968 108.378 12.6562 108.872 12.1624C109.366 11.5452 110.106 11.2983 110.97 11.2983C111.834 11.2983 112.452 11.5452 112.945 12.1624C113.439 12.6562 113.686 13.3968 113.686 14.2608ZM112.328 14.2608C112.328 13.7671 112.205 13.2733 111.958 12.903C111.711 12.4093 111.341 12.2858 110.847 12.2858C110.353 12.2858 109.983 12.5327 109.736 12.903C109.489 13.2733 109.366 13.7671 109.366 14.2608C109.366 14.7546 109.489 15.2483 109.736 15.6187C109.983 16.1124 110.353 16.2358 110.847 16.2358C111.341 16.2358 111.711 15.989 111.958 15.4952C112.205 15.2483 112.328 14.7546 112.328 14.2608Z"
    fill="white"
  />
<path
    d="M120.475 17.1H119.241V13.8907C119.241 12.9032 118.87 12.4094 118.13 12.4094C117.759 12.4094 117.513 12.5329 117.266 12.7797C117.019 13.0266 116.895 13.3969 116.895 13.7672V17.1H115.661V13.0266C115.661 12.5329 115.661 12.0391 115.661 11.4219H116.772V12.286C116.895 12.0391 117.142 11.7922 117.389 11.5454C117.759 11.2985 118.13 11.175 118.5 11.175C118.994 11.175 119.488 11.2985 119.858 11.6688C120.352 12.0391 120.475 12.6563 120.475 13.5204V17.1Z"
    fill="white"
  />
<path
    d="M128.869 12.4093H127.511V15.1249C127.511 15.8655 127.758 16.1124 128.252 16.1124C128.499 16.1124 128.622 16.1124 128.869 16.1124V17.0999C128.622 17.2233 128.252 17.2233 127.881 17.2233C127.388 17.2233 127.017 17.0999 126.77 16.7296C126.524 16.4827 126.4 15.8655 126.4 15.2483V12.4093H125.536V11.4218H126.4V10.4343L127.634 10.064V11.4218H128.992V12.4093H128.869Z"
    fill="white"
  />
<path
    d="M135.534 17.0999H134.3V13.8905C134.3 12.903 133.93 12.4093 133.189 12.4093C132.572 12.4093 132.202 12.6562 131.955 13.2733C131.955 13.3968 131.955 13.5202 131.955 13.7671V17.0999H130.72V8.82959H131.955V12.2858C132.325 11.6687 132.942 11.2983 133.683 11.2983C134.177 11.2983 134.67 11.4218 134.917 11.7921C135.288 12.1624 135.534 12.903 135.534 13.6437V17.0999Z"
    fill="white"
  />
<path
    d="M142.323 14.0141C142.323 14.2609 142.323 14.3844 142.323 14.6313H138.62C138.62 15.2484 138.867 15.6188 139.114 15.8656C139.484 16.1125 139.855 16.2359 140.348 16.2359C140.966 16.2359 141.459 16.1125 141.83 15.9891L142.076 16.8531C141.583 17.1 140.966 17.2234 140.225 17.2234C139.361 17.2234 138.62 16.9766 138.126 16.4828C137.633 15.9891 137.386 15.2484 137.386 14.3844C137.386 13.5203 137.633 12.7797 138.126 12.2859C138.62 11.6688 139.237 11.4219 140.101 11.4219C140.966 11.4219 141.583 11.6688 141.953 12.2859C142.2 12.6563 142.323 13.2734 142.323 14.0141ZM141.212 13.6438C141.212 13.2734 141.089 12.9031 140.966 12.6563C140.719 12.2859 140.472 12.1625 139.978 12.1625C139.608 12.1625 139.237 12.2859 138.991 12.6563C138.744 12.9031 138.62 13.2734 138.62 13.6438H141.212Z"
    fill="white"
  />
</svg>
