<svg width="20" height="26" viewBox="0 0 20 26" fill="none" xmlns="http://www.w3.org/2000/svg">
<path d="M1.66667 19.3958V20.6666H18.3333V10.6666C18.3333 5.14579 13.8542 0.666626 8.33333 0.666626H0.671875C0.302083 0.666626 0 0.968709 0 1.3385C0 1.44267 0.0260417 1.54683 0.0729167 1.64058L0.833333 3.16663L0.489583 3.51038C0.177083 3.82288 0 4.24475 0 4.68746V11.6198C0 12.302 0.416667 12.9166 1.04688 13.1666L3.46875 14.1354C3.91146 14.3125 4.40625 14.2916 4.83333 14.0781L5.17708 13.9062C5.59375 13.6979 5.90625 13.3229 6.03646 12.875L6.46875 11.3698C6.59896 10.9218 6.90625 10.5468 7.32812 10.3385L8.33333 9.83329V11.9375C8.33333 13.1979 7.61979 14.3541 6.48958 14.9166L3.51042 16.4114C2.38021 16.9791 1.66667 18.1302 1.66667 19.3958ZM3.75 6.70829C3.75 7.28121 3.28125 7.74996 2.70833 7.74996C2.13542 7.74996 1.66667 7.28121 1.66667 6.70829C1.66667 6.13538 2.13542 5.66663 2.70833 5.66663C3.28125 5.66663 3.75 6.13538 3.75 6.70829ZM18.3333 22.3333H1.66667C0.744792 22.3333 0 23.0781 0 24C0 24.9218 0.744792 25.6666 1.66667 25.6666H18.3333C19.2552 25.6666 20 24.9218 20 24C20 23.0781 19.2552 22.3333 18.3333 22.3333Z" fill="#355389"/>
</svg>
