<svg width="26" height="19" viewBox="0 0 26 19" fill="none" xmlns="http://www.w3.org/2000/svg">
<path d="M22.44 2.80002C21.48 1.20002 19.72 0.400024 17.8 0.400024H8.19995C6.27995 0.400024 4.51995 1.20002 3.55995 2.80002C-0.120046 8.40002 -0.920046 16.88 1.63995 18.64C4.19995 20.4 9.95995 12.72 13 12.72C16.04 12.72 21.64 20.4 24.36 18.64C26.92 16.88 26.12 8.40002 22.44 2.80002ZM9.79995 8.40002H8.19995V10H6.59995V8.40002H4.99995V6.80002H6.59995V5.20002H8.19995V6.80002H9.79995V8.40002ZM18.44 9.20002C18.44 10 17.8 10.64 17 10.64C16.2 10.64 15.56 10 15.56 9.20002C15.56 8.40002 16.2 7.76002 17 7.76002C17.8 7.76002 18.44 8.40002 18.44 9.20002ZM21.48 6.00002C21.48 6.80002 20.84 7.44002 20.04 7.44002C19.24 7.44002 18.6 6.80002 18.6 6.00002C18.6 5.20002 19.24 4.56002 20.04 4.56002C20.84 4.56002 21.48 5.20002 21.48 6.00002Z" fill="#355389"/>
</svg>
