<svg width="554" height="468" viewBox="0 0 554 468" fill="none" xmlns="http://www.w3.org/2000/svg">
<g clip-path="url(#clip0_298_735)">
<path d="M0.338135 79.5341L319.854 125.52L362.742 168.8L0.338135 79.5341Z" fill="#407BFF"/>
<path opacity="0.6" d="M0.338135 79.5341L319.854 125.52L362.742 168.8L0.338135 79.5341Z" fill="white"/>
<path d="M0.338135 79.5341L319.854 125.52L305.025 188.1L0.338135 79.5341Z" fill="#407BFF"/>
<path opacity="0.2" d="M0.338135 79.5341L319.854 125.52L305.025 188.1L0.338135 79.5341Z" fill="#272727"/>
<path d="M298.466 7.08674L317.023 94.0261C318.032 98.7354 315.005 103.403 310.295 104.412L144.798 139.731C140.089 140.74 135.421 137.713 134.412 133.004L115.856 46.0644C115.337 43.5976 115.912 41.1449 117.257 39.2247C118.49 37.4728 120.355 36.1693 122.597 35.6788L288.08 0.359206C290.323 -0.117327 292.565 0.317159 294.401 1.41038C296.406 2.61573 297.947 4.63399 298.466 7.08674Z" fill="#407BFF"/>
<path opacity="0.4" d="M298.466 7.08674L317.023 94.0261C318.032 98.7354 315.005 103.403 310.295 104.412L144.798 139.731C140.089 140.74 135.421 137.713 134.412 133.004L115.856 46.0644C115.337 43.5976 115.912 41.1449 117.257 39.2247C118.49 37.4728 120.355 36.1693 122.597 35.6788L288.08 0.359206C290.323 -0.117327 292.565 0.317159 294.401 1.41038C296.406 2.61573 297.947 4.63399 298.466 7.08674Z" fill="#272727"/>
<path d="M294.401 1.41038L239.095 69.2884C228.528 82.2529 210.377 86.1353 195.437 78.6088L117.243 39.2107C118.476 37.4588 120.341 36.1553 122.583 35.6647L288.08 0.359206C290.323 -0.117327 292.565 0.317159 294.401 1.41038Z" fill="#407BFF"/>
<path d="M0.338135 79.5341L263.875 142.156L305.025 188.1L0.338135 79.5341Z" fill="#407BFF"/>
<path opacity="0.6" d="M0.338135 79.5341L263.875 142.156L305.025 188.1L0.338135 79.5341Z" fill="white"/>
<path d="M96.4732 139.894L95.7648 141.103L125.092 158.282L125.8 157.073L96.4732 139.894Z" fill="#407BFF"/>
<path d="M138.741 164.672L138.033 165.881L148.579 172.059L149.287 170.849L138.741 164.672Z" fill="#407BFF"/>
<path d="M0.338135 79.5341L263.875 142.156L212.648 203.909L0.338135 79.5341Z" fill="#407BFF"/>
<path d="M352.833 226.279C352.497 226.279 352.146 226.209 351.796 226.082L308.866 209.081C307.422 208.507 306.721 206.881 307.296 205.437C307.871 203.994 309.482 203.293 310.94 203.867L353.87 220.869C355.314 221.443 356.015 223.069 355.44 224.513C355.005 225.62 353.954 226.279 352.833 226.279Z" fill="#407BFF"/>
<path opacity="0.3" d="M352.833 226.279C352.497 226.279 352.146 226.209 351.796 226.082L308.866 209.081C307.422 208.507 306.721 206.881 307.296 205.437C307.871 203.994 309.482 203.293 310.94 203.867L353.87 220.869C355.314 221.443 356.015 223.069 355.44 224.513C355.005 225.62 353.954 226.279 352.833 226.279Z" fill="#272727"/>
<path d="M350.31 201.653C349.974 201.653 349.623 201.583 349.273 201.457L326.217 192.333C324.773 191.758 324.073 190.132 324.647 188.688C325.222 187.245 326.834 186.544 328.291 187.119L351.347 196.243C352.791 196.818 353.492 198.443 352.917 199.887C352.482 200.994 351.431 201.653 350.31 201.653Z" fill="#407BFF"/>
<path opacity="0.5" d="M350.31 201.653C349.974 201.653 349.623 201.583 349.273 201.457L326.217 192.333C324.773 191.758 324.073 190.132 324.647 188.688C325.222 187.245 326.834 186.544 328.291 187.119L351.347 196.243C352.791 196.818 353.492 198.443 352.917 199.887C352.482 200.994 351.431 201.653 350.31 201.653Z" fill="white"/>
<path d="M302.096 225.844C301.76 225.844 301.409 225.774 301.059 225.648L259.194 209.067C257.75 208.492 257.05 206.867 257.624 205.423C258.199 203.979 259.825 203.279 261.268 203.853L303.133 220.434C304.577 221.008 305.278 222.634 304.703 224.078C304.269 225.185 303.217 225.844 302.096 225.844Z" fill="#407BFF"/>
<path opacity="0.3" d="M302.096 225.844C301.76 225.844 301.409 225.774 301.059 225.648L259.194 209.067C257.75 208.492 257.05 206.867 257.624 205.423C258.199 203.979 259.825 203.279 261.268 203.853L303.133 220.434C304.577 221.008 305.278 222.634 304.703 224.078C304.269 225.185 303.217 225.844 302.096 225.844Z" fill="#272727"/>
<path d="M453.662 99.5205C457.376 106.767 460.782 114.027 464.02 121.455C467.229 128.883 470.285 136.41 472.906 144.287L473.859 147.272C474.013 147.805 474.265 148.674 474.405 149.29C474.531 149.935 474.671 150.608 474.756 151.196C475.12 153.635 475.19 155.85 475.232 158.008C475.302 162.325 475.008 166.445 474.643 170.552C473.859 178.737 472.583 186.698 470.831 194.687L463.151 193.832C463.052 185.941 462.982 177.966 462.702 170.188C462.562 166.305 462.338 162.437 461.945 158.779C461.749 156.971 461.455 155.191 461.118 153.705C461.034 153.313 460.936 153.004 460.838 152.682C460.726 152.332 460.684 152.248 460.53 151.841L459.478 149.192C456.549 142.1 453.255 134.952 449.892 127.832L439.716 106.486L453.676 99.5065L453.662 99.5205Z" fill="#E4897B"/>
<path d="M463.263 191.463L459.675 198.177L471.139 201.372C471.139 201.372 473.326 195.976 470.719 191.716L463.263 191.463Z" fill="#E4897B"/>
<path d="M455.274 207.848L465.813 208.675L471.125 201.373L459.675 198.163L455.274 207.848Z" fill="#E4897B"/>
<path d="M405.42 51.0825C405.252 51.8954 404.691 52.47 404.158 52.3579C403.626 52.2458 403.332 51.503 403.5 50.69C403.668 49.8771 404.229 49.3025 404.761 49.4146C405.294 49.5267 405.588 50.2696 405.42 51.0825Z" fill="#263238"/>
<path d="M404.761 52.484C404.761 52.484 401.958 56.8008 399.463 58.6509C400.626 60.2907 403.205 60.1646 403.205 60.1646L404.775 52.47L404.761 52.484Z" fill="#DE5753"/>
<path d="M409.316 47.172C409.19 47.172 409.05 47.116 408.952 47.0179C407.494 45.4341 405.756 45.7004 405.686 45.7004C405.434 45.7424 405.167 45.5602 405.125 45.2939C405.083 45.0276 405.266 44.7754 405.518 44.7333C405.616 44.7193 407.83 44.3689 409.667 46.3451C409.849 46.5413 409.835 46.8497 409.638 47.0319C409.54 47.116 409.428 47.158 409.302 47.158L409.316 47.172Z" fill="#263238"/>
<path d="M428.602 62.533C427.13 70.0594 425.644 83.8648 430.914 88.8965C430.914 88.8965 428.854 96.535 414.852 96.535C399.463 96.535 407.494 88.8965 407.494 88.8965C415.889 86.8922 415.679 80.6553 414.208 74.8107L428.574 62.547L428.602 62.533Z" fill="#E4897B"/>
<path d="M433.031 93.6478C434.138 89.9617 435.371 85.7289 432.835 84.4115C430.045 82.9538 414.81 81.4682 409.554 84.2012C404.299 86.9343 405.784 94.4187 405.784 94.4187L433.031 93.6478Z" fill="#263238"/>
<path d="M465.365 443.186C464.314 443.186 463.291 443.017 462.898 442.499C462.73 442.275 462.604 441.91 462.898 441.336C463.066 441.041 463.319 440.845 463.669 440.761C465.183 440.41 468.014 442.359 468.14 442.443C468.224 442.499 468.252 442.597 468.238 442.695C468.224 442.793 468.154 442.863 468.056 442.891C467.523 443.017 466.43 443.186 465.365 443.186ZM464.076 441.223C463.963 441.223 463.865 441.223 463.781 441.251C463.571 441.307 463.431 441.406 463.333 441.574C463.108 441.98 463.249 442.148 463.291 442.205C463.725 442.779 465.842 442.793 467.369 442.527C466.486 441.98 465.029 441.209 464.09 441.209L464.076 441.223Z" fill="#407BFF"/>
<path d="M467.986 442.891C467.986 442.891 467.902 442.891 467.874 442.863C466.809 442.288 464.748 440.032 464.959 438.883C465.001 438.672 465.155 438.308 465.729 438.238C466.094 438.196 466.458 438.294 466.767 438.546C467.958 439.527 468.21 442.499 468.224 442.625C468.224 442.709 468.182 442.793 468.112 442.849C468.07 442.877 468.028 442.891 467.986 442.891ZM465.912 438.714C465.912 438.714 465.842 438.714 465.799 438.714C465.477 438.757 465.449 438.897 465.449 438.967C465.323 439.653 466.626 441.349 467.692 442.148C467.565 441.279 467.243 439.555 466.472 438.925C466.304 438.785 466.108 438.714 465.912 438.714Z" fill="#407BFF"/>
<path d="M403.528 443.185C402.21 443.185 400.935 443.003 400.5 442.414C400.346 442.204 400.234 441.854 400.514 441.349C400.683 441.069 400.935 440.873 401.285 440.775C402.995 440.312 406.597 442.358 406.751 442.443C406.836 442.499 406.892 442.597 406.864 442.695C406.85 442.793 406.765 442.877 406.667 442.891C406.009 443.017 404.733 443.185 403.514 443.185H403.528ZM401.902 441.181C401.734 441.181 401.566 441.195 401.426 441.237C401.201 441.293 401.047 441.405 400.949 441.574C400.781 441.882 400.837 442.022 400.907 442.106C401.369 442.751 403.976 442.779 405.896 442.513C404.943 442.022 403.093 441.167 401.902 441.167V441.181Z" fill="#407BFF"/>
<path d="M406.639 442.891C406.639 442.891 406.569 442.891 406.541 442.877C405.294 442.316 402.841 440.088 403.023 438.925C403.065 438.644 403.261 438.308 403.934 438.238C404.439 438.196 404.887 438.322 405.28 438.658C406.583 439.737 406.863 442.513 406.877 442.625C406.877 442.709 406.849 442.793 406.779 442.849C406.737 442.877 406.681 442.891 406.639 442.891ZM404.13 438.714C404.13 438.714 404.032 438.714 403.99 438.714C403.556 438.756 403.528 438.939 403.514 438.995C403.401 439.695 405.069 441.447 406.345 442.204C406.219 441.391 405.84 439.737 404.985 439.023C404.733 438.812 404.453 438.7 404.144 438.7L404.13 438.714Z" fill="#407BFF"/>
<path d="M417.964 442.653H407.662L406.639 418.812H416.941L417.964 442.653Z" fill="#E4897B"/>
<path d="M479.787 442.653H469.486L464.314 418.812H474.615L479.787 442.653Z" fill="#E4897B"/>
<path d="M468.757 441.462H480.32C480.74 441.462 481.105 441.756 481.203 442.162L483.235 451.315C483.445 452.268 482.702 453.165 481.721 453.151C477.685 453.081 475.723 452.842 470.635 452.842C467.509 452.842 461.062 453.165 456.731 453.165C452.4 453.165 451.84 448.89 453.62 448.498C461.553 446.76 464.538 444.363 467.075 442.092C467.537 441.686 468.126 441.462 468.743 441.462H468.757Z" fill="#263238"/>
<path d="M407.732 441.462H418.973C419.394 441.462 419.758 441.756 419.856 442.162L421.888 451.315C422.099 452.268 421.384 453.165 420.403 453.151C416.352 453.081 410.48 452.842 405.392 452.842C399.435 452.842 394.277 453.165 387.298 453.165C383.065 453.165 381.902 448.89 383.667 448.498C391.727 446.732 398.3 446.549 405.266 442.261C406.023 441.798 406.863 441.462 407.746 441.462H407.732Z" fill="#263238"/>
<path d="M402.771 106.977C394.039 106.29 385.644 105.169 377.108 103.571C372.861 102.758 368.601 101.847 364.354 100.698C360.093 99.5624 355.818 98.2589 351.516 96.4649C350.436 96.0164 349.343 95.5258 348.264 95.0073C346.904 94.3345 345.769 93.6337 344.774 92.975C342.756 91.6435 341.018 90.2559 339.294 88.8824C335.86 86.1353 332.678 83.2761 329.525 80.4029C323.26 74.6004 317.317 68.6017 311.585 62.2946L316.743 56.5342L337.079 71.1525C340.429 73.5773 343.821 75.9319 347.157 78.1604C348.811 79.2676 350.52 80.3048 352.062 81.1878C352.847 81.6363 353.548 81.9586 354.08 82.1829C354.907 82.5053 355.762 82.8276 356.645 83.1219C363.765 85.4906 371.81 87.0183 379.813 88.3078C387.816 89.5692 396.085 90.6203 404.074 91.4473L402.799 107.005L402.771 106.977Z" fill="#E4897B"/>
<path d="M449.359 91.2232C459.016 93.4376 468.771 121.651 468.771 121.651L448.91 135.905C448.91 135.905 443.36 122.758 437.908 111.266C432.19 99.2261 439.506 88.9666 449.373 91.2232H449.359Z" fill="#407BFF"/>
<path opacity="0.4" d="M449.359 91.2232C459.016 93.4376 468.771 121.651 468.771 121.651L448.91 135.905C448.91 135.905 443.36 122.758 437.908 111.266C432.19 99.2261 439.506 88.9666 449.373 91.2232H449.359Z" fill="#272727"/>
<path d="M443.781 106.641L439.842 115.457C443.921 124.258 447.649 132.976 448.644 135.303C448.504 124.889 446.528 111.967 443.781 106.641Z" fill="#407BFF"/>
<path opacity="0.6" d="M443.781 106.641L439.842 115.457C443.921 124.258 447.649 132.976 448.644 135.303C448.504 124.889 446.528 111.967 443.781 106.641Z" fill="#272727"/>
<path d="M391.67 91.7561C391.67 91.7561 380.71 104.132 391.068 180.756H446.135C446.514 172.304 441.202 131.056 449.359 91.2235C449.359 91.2235 439.912 89.3314 430.928 88.8969C423.892 88.5605 413.703 88.3363 407.522 88.8969C399.365 89.6397 391.684 91.7561 391.684 91.7561H391.67Z" fill="#407BFF"/>
<path opacity="0.4" d="M391.67 91.7561C391.67 91.7561 380.71 104.132 391.068 180.756H446.135C446.514 172.304 441.202 131.056 449.359 91.2235C449.359 91.2235 439.912 89.3314 430.928 88.8969C423.892 88.5605 413.703 88.3363 407.522 88.8969C399.365 89.6397 391.684 91.7561 391.684 91.7561H391.67Z" fill="#272727"/>
<path d="M387.592 106.641C387.227 109.542 386.947 112.976 386.765 117.026C391.32 115.611 396.982 113.34 402.098 109.822L387.592 106.641Z" fill="#407BFF"/>
<path opacity="0.6" d="M387.592 106.641C387.227 109.542 386.947 112.976 386.765 117.026C391.32 115.611 396.982 113.34 402.098 109.822L387.592 106.641Z" fill="#272727"/>
<path d="M411.152 108.14C403.78 114.671 375.636 114.013 375.636 114.013L374.711 86.8082C374.711 86.8082 390.661 89.1488 403.402 88.8825C419.127 88.5602 419.239 100.978 411.152 108.14Z" fill="#407BFF"/>
<path opacity="0.4" d="M411.152 108.14C403.78 114.671 375.636 114.013 375.636 114.013L374.711 86.8082C374.711 86.8082 390.661 89.1488 403.402 88.8825C419.127 88.5602 419.239 100.978 411.152 108.14Z" fill="#272727"/>
<path d="M316.967 56.6467L309.903 48.3915L302.362 56.7448C302.362 56.7448 307.002 64.5656 314.402 63.3322L316.967 56.6467Z" fill="#E4897B"/>
<path d="M299.924 38.7765L297.205 49.5405L302.362 56.7586L309.903 48.4053L299.924 38.7765Z" fill="#E4897B"/>
<path d="M406.639 418.812L407.172 431.104H417.473L416.941 418.812H406.639Z" fill="#CE6F64"/>
<path d="M474.615 418.812H464.314L466.991 431.104H477.292L474.615 418.812Z" fill="#CE6F64"/>
<path d="M412.848 40.851C403.612 36.5762 400.697 17.9494 427.256 22.5605C427.256 22.5605 423.248 27.0035 431.391 29.8067C439.52 32.6098 432.722 50.0313 412.848 40.851Z" fill="#263238"/>
<path d="M432.905 54.8807C430.256 64.7478 429.219 70.6624 423.122 74.769C413.955 80.9359 402.547 73.858 402.196 63.4023C401.874 53.9837 406.261 39.4214 416.843 37.4312C427.284 35.469 435.54 45.0137 432.905 54.8807Z" fill="#E4897B"/>
<path d="M426.892 27.578C433.185 31.096 441.706 33.1983 440.851 38.1739C439.8 44.2707 446.009 40.4584 444.566 49.5406C443.627 55.4693 432.68 73.4374 424.986 72.5544C413.409 71.2369 414.88 53.5631 414.838 44.2707C414.81 38.7906 414.558 20.6823 426.892 27.578Z" fill="#263238"/>
<path d="M413.451 35.4551C410.648 36.1138 406.933 52.2739 417.796 53.7596C430.298 55.4695 413.451 35.4551 413.451 35.4551Z" fill="#263238"/>
<path d="M413.745 41.1874C410.311 41.4958 402.561 37.3612 403.486 31.1382C403.486 31.1382 408.419 38.4123 413.745 41.1874Z" fill="#263238"/>
<path d="M418.833 55.0344C417.754 57.4872 415.721 59.4073 413.759 60.4445C410.802 61.9862 409.134 59.7297 409.807 56.7724C410.409 54.1094 412.68 50.0869 415.721 49.7645C418.721 49.4422 420.066 52.2453 418.833 55.0484V55.0344Z" fill="#E4897B"/>
<path d="M434.25 43.6257C436.324 42.5605 441.062 40.1638 442.365 33.3662C442.365 33.3662 446.99 46.2887 434.25 43.6257Z" fill="#263238"/>
<path d="M445.953 43.4998C444.916 42.8972 442.561 41.5096 439.24 42.8411C439.24 42.8411 443.557 37.2488 445.953 43.4998Z" fill="#263238"/>
<path d="M410.592 180.742C410.592 180.742 422.281 259.426 428.686 288.915C435.708 321.193 462.169 428.735 462.169 428.735H481.034C481.034 428.735 463.585 323.814 459.576 291.844C455.232 257.155 446.121 180.756 446.121 180.756H410.592V180.742Z" fill="#407BFF"/>
<path opacity="0.5" d="M410.592 180.742C410.592 180.742 422.281 259.426 428.686 288.915C435.708 321.193 462.169 428.735 462.169 428.735H481.034C481.034 428.735 463.585 323.814 459.576 291.844C455.232 257.155 446.121 180.756 446.121 180.756H410.592V180.742Z" fill="white"/>
<path d="M459.17 421.783C459.086 421.783 461.118 429.03 461.118 429.03H482.338L481.946 422.568L459.17 421.783Z" fill="#407BFF"/>
<path opacity="0.1" d="M459.17 421.783C459.086 421.783 461.118 429.03 461.118 429.03H482.338L481.946 422.568L459.17 421.783Z" fill="#272727"/>
<path d="M417.978 208.787C431.489 211.436 430.059 261.822 428.434 287.737C424.537 269.419 418.833 234.169 414.937 209.151C415.834 208.703 416.843 208.563 417.978 208.787Z" fill="#407BFF"/>
<path opacity="0.4" d="M417.978 208.787C431.489 211.436 430.059 261.822 428.434 287.737C424.537 269.419 418.833 234.169 414.937 209.151C415.834 208.703 416.843 208.563 417.978 208.787Z" fill="white"/>
<path d="M391.054 180.742C391.054 180.742 389.638 257.73 390.759 289.125C391.923 321.782 403.331 428.721 403.331 428.721H420.767C420.767 428.721 421.412 323.688 422.183 291.62C423.024 256.651 427.256 180.742 427.256 180.742H391.054Z" fill="#407BFF"/>
<path opacity="0.5" d="M391.054 180.742C391.054 180.742 389.638 257.73 390.759 289.125C391.923 321.782 403.331 428.721 403.331 428.721H420.767C420.767 428.721 421.412 323.688 422.183 291.62C423.024 256.651 427.256 180.742 427.256 180.742H391.054Z" fill="white"/>
<path d="M406.961 416.191C406.877 416.191 406.793 416.121 406.793 416.037C403.724 386.436 396.464 314.83 395.553 289.139C394.614 262.916 395.469 204.078 395.749 186.67C395.749 186.572 395.833 186.502 395.917 186.502C396.015 186.502 396.085 186.586 396.085 186.684C395.805 204.092 394.95 262.916 395.889 289.139C396.8 314.816 404.06 386.422 407.13 416.023C407.13 416.121 407.074 416.205 406.975 416.219C406.975 416.219 406.975 416.219 406.961 416.219V416.191Z" fill="#407BFF"/>
<path opacity="0.4" d="M406.961 416.191C406.877 416.191 406.793 416.121 406.793 416.037C403.724 386.436 396.464 314.83 395.553 289.139C394.614 262.916 395.469 204.078 395.749 186.67C395.749 186.572 395.833 186.502 395.917 186.502C396.015 186.502 396.085 186.586 396.085 186.684C395.805 204.092 394.95 262.916 395.889 289.139C396.8 314.816 404.06 386.422 407.13 416.023C407.13 416.121 407.074 416.205 406.975 416.219C406.975 416.219 406.975 416.219 406.961 416.219V416.191Z" fill="white"/>
<path d="M399.982 421.783C399.898 421.783 400.963 429.03 400.963 429.03H422.183L422.757 422.568L399.982 421.783Z" fill="#407BFF"/>
<path opacity="0.1" d="M399.982 421.783C399.898 421.783 400.963 429.03 400.963 429.03H422.183L422.757 422.568L399.982 421.783Z" fill="#272727"/>
</g>
<defs>
<clipPath id="clip0_298_735">
<rect width="553.662" height="467.606" fill="white" transform="translate(0.338135 0.16333)"/>
</clipPath>
</defs>
</svg>
