<svg width="8" height="14" viewBox="0 0 8 14" fill="none" xmlns="http://www.w3.org/2000/svg">
<path d="M0.616646 13.2167C0.416646 13.0167 0.316645 12.7693 0.316645 12.4747C0.316645 12.1805 0.416646 11.9333 0.616646 11.7333L5.34998 7.00001L0.599979 2.25001C0.399979 2.05001 0.297312 1.80556 0.291979 1.51667C0.286201 1.22779 0.388868 0.977786 0.599979 0.766675C0.81109 0.566675 1.06109 0.466675 1.34998 0.466675C1.63887 0.466675 1.88331 0.566675 2.08331 0.766675L7.69998 6.38334C7.78887 6.47223 7.85265 6.56934 7.89131 6.67467C7.93042 6.78045 7.94998 6.8889 7.94998 7.00001C7.94998 7.11112 7.93042 7.21956 7.89131 7.32534C7.85265 7.43068 7.78887 7.52779 7.69998 7.61668L2.08331 13.2333C1.88331 13.4333 1.64176 13.5333 1.35865 13.5333C1.07509 13.5333 0.827757 13.4278 0.616646 13.2167Z" fill="#1C1B1F"/>
</svg>
