<svg width="22" height="22" viewBox="0 0 22 22" fill="none" xmlns="http://www.w3.org/2000/svg">
<path d="M10.0208 0.216663C10.6417 -0.0708374 11.3583 -0.0708374 11.9792 0.216663L21.0875 4.425C21.4417 4.5875 21.6667 4.94166 21.6667 5.33333C21.6667 5.725 21.4417 6.07916 21.0875 6.24166L11.9792 10.45C11.3583 10.7375 10.6417 10.7375 10.0208 10.45L0.91251 6.24166C0.558344 6.075 0.333344 5.72083 0.333344 5.33333C0.333344 4.94583 0.558344 4.5875 0.91251 4.425L10.0208 0.216663ZM18.8708 8.73333L21.0875 9.75833C21.4417 9.92083 21.6667 10.275 21.6667 10.6667C21.6667 11.0583 21.4417 11.4125 21.0875 11.575L11.9792 15.7833C11.3583 16.0708 10.6417 16.0708 10.0208 15.7833L0.91251 11.575C0.558344 11.4083 0.333344 11.0542 0.333344 10.6667C0.333344 10.2792 0.558344 9.92083 0.91251 9.75833L3.12918 8.73333L9.46251 11.6583C9.94458 11.8807 10.4691 11.9958 11 11.9958C11.5309 11.9958 12.0554 11.8807 12.5375 11.6583L18.8708 8.73333ZM12.5375 16.9917L18.8708 14.0667L21.0875 15.0917C21.4417 15.2542 21.6667 15.6083 21.6667 16C21.6667 16.3917 21.4417 16.7458 21.0875 16.9083L11.9792 21.1167C11.3583 21.4042 10.6417 21.4042 10.0208 21.1167L0.91251 16.9083C0.558344 16.7417 0.333344 16.3875 0.333344 16C0.333344 15.6125 0.558344 15.2542 0.91251 15.0917L3.12918 14.0667L9.46251 16.9917C9.94458 17.214 10.4691 17.3292 11 17.3292C11.5309 17.3292 12.0554 17.214 12.5375 16.9917Z" fill="#355389"/>
</svg>
