<svg width="24" height="24" viewBox="0 0 24 24" fill="none" xmlns="http://www.w3.org/2000/svg">
<path d="M22.2295 -3.11849e-05H1.77049C1.30629 -0.00475541 0.859174 0.174863 0.52725 0.499411C0.195326 0.823958 0.00570713 1.26693 0 1.73112V22.2728C0.00673925 22.7363 0.196812 23.1782 0.528624 23.5019C0.860435 23.8256 1.30696 24.0047 1.77049 24H22.2295C22.6937 24.0036 23.1406 23.8234 23.4723 23.4987C23.8041 23.1739 23.9938 22.7311 24 22.2669V1.72521C23.9917 1.26239 23.8011 0.82153 23.4696 0.498472C23.138 0.175414 22.6924 -0.0037338 22.2295 -3.11849e-05Z" fill="#0076B2"/>
<path d="M3.55281 8.99606H7.11543V20.459H3.55281V8.99606ZM5.33511 3.29114C5.74372 3.29114 6.14316 3.41233 6.48288 3.63939C6.8226 3.86644 7.08735 4.18916 7.24363 4.56671C7.39991 4.94425 7.4407 5.35967 7.36084 5.76041C7.28098 6.16114 7.08406 6.52919 6.79499 6.81799C6.50592 7.10679 6.13768 7.30336 5.73687 7.38284C5.33606 7.46231 4.92068 7.42113 4.54328 7.26449C4.16588 7.10785 3.84342 6.84279 3.61669 6.50285C3.38996 6.16291 3.26914 5.76336 3.26953 5.35474C3.27005 4.80726 3.48791 4.28238 3.87522 3.89543C4.26253 3.50849 4.78762 3.29114 5.33511 3.29114Z" fill="white"/>
<path d="M9.3501 8.99602H12.7652V10.5698H12.8124C13.2885 9.66881 14.4491 8.71865 16.1822 8.71865C19.7901 8.71078 20.459 11.0852 20.459 14.1639V20.459H16.8963V14.8819C16.8963 13.5541 16.8727 11.8445 15.0452 11.8445C13.2176 11.8445 12.9068 13.2924 12.9068 14.7954V20.459H9.3501V8.99602Z" fill="white"/>
</svg>
