<svg
    width="20"
    height="20"
    viewBox="0 0 20 20"
    fill="none"
    xmlns="http://www.w3.org/2000/svg"
>
    <path
    d="M19.7799 4.78001C19.8846 4.67512 19.956 4.54154 19.9848 4.39615C20.0137 4.25075 19.9989 4.10005 19.9422 3.96309C19.8855 3.82612 19.7894 3.70904 19.6662 3.62662C19.543 3.5442 19.3981 3.50014 19.2499 3.50001H16.4999V0.750009C16.4998 0.601768 16.4557 0.456892 16.3733 0.333676C16.2909 0.21046 16.1738 0.114433 16.0368 0.0577215C15.8998 0.00101013 15.7491 -0.0138412 15.6037 0.0150431C15.4583 0.0439275 15.3248 0.115252 15.2199 0.220009L12.7199 2.72001C12.5792 2.86053 12.5001 3.05116 12.4999 3.25001V6.08601L10.5179 8.06801C10.2216 7.98917 9.9111 7.97941 9.61041 8.0395C9.30973 8.09958 9.02685 8.22789 8.78358 8.41454C8.54031 8.6012 8.34314 8.84122 8.20726 9.1161C8.07139 9.39098 8.00044 9.69338 7.99988 10C8.00001 10.2846 8.06089 10.566 8.17845 10.8252C8.29602 11.0844 8.46755 11.3155 8.6816 11.5031C8.89564 11.6907 9.14727 11.8305 9.41965 11.9131C9.69204 11.9957 9.97891 12.0191 10.2611 11.982C10.5433 11.9448 10.8143 11.8478 11.056 11.6975C11.2977 11.5472 11.5046 11.347 11.6627 11.1104C11.8209 10.8738 11.9267 10.6061 11.9731 10.3253C12.0195 10.0445 12.0055 9.75696 11.9319 9.48201L13.9139 7.50001H16.7499C16.9487 7.49983 17.1394 7.4207 17.2799 7.28001L19.7799 4.78001ZM9.99988 8.46802e-06C11.1676 -0.00151265 12.3265 0.201906 13.4239 0.601009L12.0119 2.01301C11.9499 2.07501 11.8919 2.14301 11.8409 2.21301C10.1469 1.81293 8.36858 1.97626 6.77578 2.67822C5.18299 3.38019 3.86259 4.5825 3.01489 6.10275C2.1672 7.623 1.83845 9.37825 2.07853 11.1022C2.31861 12.8262 3.11441 14.4249 4.34522 15.6557C5.57602 16.8865 7.17467 17.6823 8.89865 17.9224C10.6226 18.1624 12.3779 17.8337 13.8981 16.986C15.4184 16.1383 16.6207 14.8179 17.3227 13.2251C18.0246 11.6323 18.188 9.85403 17.7879 8.16001C17.8579 8.10801 17.9249 8.05001 17.9879 7.98801L19.3979 6.57601C19.7973 7.67334 20.001 8.83225 19.9999 10C19.9999 15.523 15.5229 20 9.99988 20C4.47688 20 -0.00012207 15.523 -0.00012207 10C-0.00012207 4.47701 4.47688 8.46802e-06 9.99988 8.46802e-06ZM9.99988 4.00001C10.5179 4.00001 11.0199 4.06601 11.4999 4.19001V5.67201L11.0859 6.08601C11.0693 6.10239 11.0529 6.11906 11.0369 6.13601C10.4442 5.97794 9.82306 5.95814 9.22147 6.07813C8.61989 6.19812 8.05391 6.4547 7.56719 6.82807C7.08048 7.20144 6.68603 7.68163 6.41429 8.23159C6.14254 8.78155 6.00076 9.38658 5.99988 10C6.00028 10.5692 6.12217 11.1318 6.35739 11.6501C6.59261 12.1685 6.93575 12.6306 7.36388 13.0057C7.79201 13.3809 8.29527 13.6603 8.84002 13.8253C9.38478 13.9904 9.95849 14.0373 10.5228 13.9628C11.0871 13.8884 11.6291 13.6944 12.1124 13.3938C12.5958 13.0932 13.0094 12.6929 13.3257 12.2196C13.6419 11.7463 13.8535 11.211 13.9463 10.6494C14.0392 10.0878 14.011 9.51287 13.8639 8.96301L13.9139 8.91401L14.3279 8.50001H15.8109C16.1237 9.71154 16.0499 10.9906 15.5999 12.1581C15.1498 13.3256 14.346 14.3232 13.3009 15.0113C12.2559 15.6994 11.0218 16.0436 9.77149 15.9956C8.52115 15.9477 7.31708 15.51 6.32777 14.7439C5.33847 13.9778 4.61343 12.9215 4.25411 11.723C3.8948 10.5244 3.91919 9.24352 4.32386 8.05951C4.72854 6.87549 5.49326 5.84762 6.51101 5.11972C7.52877 4.39183 8.74862 4.00033 9.99988 4.00001Z"
    fill="#E06666"
    />
</svg>