<svg width="9" height="14" viewBox="0 0 9 14" fill="none" xmlns="http://www.w3.org/2000/svg">
<path d="M6.2333 13.2167L0.616638 7.61669C0.527749 7.5278 0.463972 7.43069 0.425305 7.32536C0.386194 7.21958 0.366638 7.11113 0.366638 7.00002C0.366638 6.88891 0.386194 6.78047 0.425305 6.67469C0.463972 6.56936 0.527749 6.47224 0.616638 6.38336L6.2333 0.766689C6.43331 0.566689 6.67775 0.4638 6.96664 0.458022C7.25553 0.452688 7.50553 0.555577 7.71664 0.766689C7.92775 0.9778 8.03331 1.2278 8.03331 1.51669C8.03331 1.80558 7.92775 2.05002 7.71664 2.25002L2.96664 7.00002L7.71664 11.75C7.91664 11.95 8.01953 12.1916 8.0253 12.4747C8.03064 12.7582 7.92775 13.0056 7.71664 13.2167C7.50553 13.4167 7.25553 13.5167 6.96664 13.5167C6.67775 13.5167 6.43331 13.4167 6.2333 13.2167Z" fill="#1C1B1F"/>
</svg>
