<svg width="23" height="23" viewBox="0 0 23 23" fill="none" xmlns="http://www.w3.org/2000/svg">
<path fill-rule="evenodd" clip-rule="evenodd" d="M7.1362 0.0666666C8.32139 0.0123434 8.69917 0 11.7171 0C14.7356 0 15.1127 0.0129596 16.2973 0.0666666C17.4806 0.120374 18.2887 0.308646 18.9955 0.583333C19.7368 0.862434 20.4083 1.29974 20.9633 1.86482C21.5285 2.4198 21.9659 3.09137 22.2448 3.83272C22.5195 4.53951 22.7072 5.34754 22.7615 6.53024C22.8159 7.71543 22.8282 8.09321 22.8282 11.1111C22.8282 14.129 22.8152 14.5068 22.7615 15.692C22.7078 16.8746 22.5195 17.6827 22.2448 18.3895C21.9609 19.1198 21.5806 19.7401 20.9633 20.3574C20.4084 20.9225 19.7368 21.3599 18.9955 21.6389C18.2887 21.9135 17.4806 22.1012 16.298 22.1556C15.1127 22.2099 14.7349 22.2222 11.7171 22.2222C8.69917 22.2222 8.32139 22.2093 7.1362 22.1556C5.95349 22.1018 5.14546 21.9135 4.43867 21.6389C3.70842 21.3549 3.08806 20.9746 2.47078 20.3574C1.90559 19.8024 1.46826 19.1308 1.18929 18.3895C0.914603 17.6827 0.726947 16.8746 0.672624 15.692C0.6183 14.5068 0.605957 14.1296 0.605957 11.1111C0.605957 8.0926 0.618917 7.71543 0.672624 6.53087C0.726331 5.34754 0.914603 4.53951 1.18929 3.83272C1.46839 3.09142 1.90569 2.41988 2.47078 1.86482C3.02574 1.29964 3.69732 0.862303 4.43867 0.583333C5.14546 0.308646 5.95349 0.12099 7.1362 0.0666666ZM16.2072 2.06667C15.0356 2.01358 14.6837 2.00185 11.7171 2.00185C8.7504 2.00185 8.39855 2.01358 7.22695 2.06667C6.14361 2.11605 5.55534 2.29691 5.16398 2.44938C4.64546 2.65062 4.27509 2.89135 3.8862 3.28024C3.49794 3.66913 3.25657 4.03951 3.05534 4.55802C2.90287 4.94938 2.72201 5.53766 2.67262 6.62099C2.61953 7.7926 2.60781 8.14444 2.60781 11.1111C2.60781 14.0778 2.61953 14.4296 2.67262 15.6012C2.72201 16.6845 2.90287 17.2728 3.05534 17.6642C3.23334 18.1469 3.51726 18.5834 3.8862 18.942C4.24468 19.3109 4.68132 19.5948 5.16398 19.7728C5.55534 19.9254 6.14361 20.1062 7.22695 20.1556C8.39855 20.2087 8.74979 20.2204 11.7171 20.2204C14.6843 20.2204 15.0356 20.2087 16.2072 20.1556C17.2905 20.1062 17.8788 19.9254 18.2702 19.7728C18.7887 19.5716 19.1591 19.3309 19.548 18.942C19.9169 18.5835 20.2008 18.1469 20.3788 17.6642C20.5313 17.2728 20.7121 16.6845 20.7615 15.6012C20.8146 14.4296 20.8264 14.0778 20.8264 11.1111C20.8264 8.14444 20.8146 7.7926 20.7615 6.62099C20.7121 5.53766 20.5313 4.94938 20.3788 4.55802C20.1776 4.03951 19.9369 3.66913 19.548 3.28024C19.1591 2.89198 18.7887 2.65062 18.2702 2.44938C17.8788 2.29691 17.2905 2.11605 16.2072 2.06667ZM10.2984 14.5363C10.7482 14.7226 11.2302 14.8185 11.7171 14.8185C12.7004 14.8185 13.6433 14.4279 14.3386 13.7326C15.0339 13.0374 15.4245 12.0943 15.4245 11.1111C15.4245 10.1279 15.0339 9.18485 14.3386 8.48958C13.6433 7.7943 12.7004 7.4037 11.7171 7.4037C11.2302 7.4037 10.7482 7.4996 10.2984 7.68591C9.84848 7.87222 9.43983 8.1453 9.09556 8.48958C8.7513 8.83384 8.47821 9.24253 8.2919 9.69232C8.10558 10.1421 8.00969 10.6242 8.00969 11.1111C8.00969 11.598 8.10558 12.0801 8.2919 12.5299C8.47821 12.9797 8.7513 13.3884 9.09556 13.7326C9.43983 14.0769 9.84848 14.35 10.2984 14.5363ZM7.67873 7.07274C8.74977 6.0017 10.2024 5.39999 11.7171 5.39999C13.2318 5.39999 14.6844 6.0017 15.7555 7.07274C16.8265 8.14378 17.4282 9.59646 17.4282 11.1111C17.4282 12.6258 16.8265 14.0784 15.7555 15.1495C14.6844 16.2205 13.2318 16.8222 11.7171 16.8222C10.2024 16.8222 8.74977 16.2205 7.67873 15.1495C6.60769 14.0784 6.00599 12.6258 6.00599 11.1111C6.00599 9.59646 6.60769 8.14378 7.67873 7.07274ZM18.6945 6.25089C18.9477 5.99771 19.0899 5.65433 19.0899 5.29629C19.0899 4.93824 18.9477 4.59487 18.6945 4.3417C18.4413 4.08852 18.098 3.94629 17.7399 3.94629C17.3819 3.94629 17.0385 4.08852 16.7853 4.3417C16.5321 4.59487 16.3899 4.93824 16.3899 5.29629C16.3899 5.65433 16.5321 5.99771 16.7853 6.25089C17.0385 6.50406 17.3819 6.64629 17.7399 6.64629C18.098 6.64629 18.4413 6.50406 18.6945 6.25089Z" fill="black"/>
</svg>
