<svg width="24" height="23" viewBox="0 0 24 23" fill="none" xmlns="http://www.w3.org/2000/svg">
<path d="M21.4759 0H2.54009C1.63453 0 0.899658 0.717593 0.899658 1.60123V20.6188C0.899658 21.5037 1.63453 22.2222 2.54009 22.2222H21.4759C22.3821 22.2222 23.1219 21.5037 23.1219 20.6188V1.60123C23.1219 0.717593 22.3821 0 21.4759 0ZM7.4904 18.9364H4.19287V8.33179H7.4904V18.9364ZM5.84163 6.88179C4.78515 6.88179 3.93114 6.02562 3.93114 4.97006C3.93114 3.91605 4.78515 3.05988 5.84163 3.05988C6.89565 3.05988 7.75182 3.91605 7.75182 4.97006C7.75182 6.02562 6.89565 6.88179 5.84163 6.88179ZM19.8348 18.9364H16.5426V13.7796C16.5426 12.5494 16.5185 10.9676 14.8293 10.9676C13.1139 10.9676 12.8524 12.3074 12.8524 13.6904V18.9367H9.55768V8.33179H12.7197V9.77994H12.7648C13.2049 8.9466 14.2802 8.06728 15.8839 8.06728C19.2191 8.06728 19.8352 10.263 19.8352 13.1194V18.9364H19.8348Z" fill="black"/>
</svg>
