<svg width="28" height="23" viewBox="0 0 28 23" fill="none" xmlns="http://www.w3.org/2000/svg">
<path d="M27.3425 2.63117C26.337 3.07672 25.2568 3.37777 24.1212 3.51384C25.2797 2.82023 26.1684 1.71959 26.5874 0.409427C25.5037 1.05247 24.3031 1.5197 23.0254 1.77017C22.0019 0.681575 20.5448 0 18.9312 0C15.834 0 13.322 2.51195 13.322 5.61155C13.322 6.04988 13.3726 6.47617 13.4665 6.888C8.80267 6.65318 4.67107 4.4194 1.90383 1.02598C1.42215 1.85687 1.14519 2.82023 1.14519 3.8462C1.14519 5.79218 2.13624 7.51057 3.64028 8.51607C2.72028 8.48597 1.85566 8.23429 1.09943 7.81403V7.88628C1.09943 10.6041 3.03216 12.8716 5.59951 13.387C5.12746 13.5147 4.63254 13.5821 4.12196 13.5821C3.7607 13.5821 3.40787 13.5484 3.06588 13.4834C3.77997 15.7111 5.85119 17.3344 8.30654 17.3777C6.38585 18.883 3.96662 19.7801 1.33906 19.7801C0.886286 19.7801 0.439529 19.7536 0 19.7018C2.48305 21.295 5.43092 22.2222 8.59796 22.2222C18.9179 22.2222 24.5596 13.6748 24.5596 6.26182C24.5596 6.02098 24.5535 5.77773 24.5427 5.53689C25.6385 4.74453 26.5898 3.7583 27.3401 2.63478L27.3425 2.63117Z" fill="black"/>
</svg>
