<svg width="24" height="24" viewBox="0 0 24 24" fill="none" xmlns="http://www.w3.org/2000/svg">
<g clip-path="url(#clip0_298_722)">
<path d="M23.993 0H0.00703125C0.003148 0 0 0.003148 0 0.00703125V23.993C0 23.9969 0.003148 24 0.00703125 24H23.993C23.9969 24 24 23.9969 24 23.993V0.00703125C24 0.003148 23.9969 0 23.993 0Z" fill="#1877F2"/>
<path d="M17.0391 15.4688L17.5735 12H14.2454V9.75C14.2454 8.80312 14.7094 7.875 16.2 7.875H17.7141V4.92188C17.7141 4.92188 16.3407 4.6875 15.0282 4.6875C12.286 4.6875 10.4954 6.34688 10.4954 9.35625V12H7.44849V15.4688H10.4954V24H14.2454V15.4688H17.0391Z" fill="white"/>
</g>
<defs>
<clipPath id="clip0_298_722">
<rect width="24" height="24" rx="3" fill="white"/>
</clipPath>
</defs>
</svg>
