<svg width="23" height="23" viewBox="0 0 23 23" fill="none" xmlns="http://www.w3.org/2000/svg">
<path d="M22.3458 3.67253C22.3458 1.74288 20.6027 0 18.6735 0H3.9847C2.05407 0 0.31189 1.74288 0.31189 3.67253V18.3613C0.31189 20.291 2.05407 22.0339 3.9847 22.0339L11.3288 22.0338V13.916H8.42958L8.42963 10.4369H11.3288V8.6069C11.3288 6.13939 13.1821 3.9171 15.4614 3.9171H18.4287V7.58945H15.4614C15.1358 7.58945 14.8079 7.96154 14.8079 8.55257V10.4369L18.5768 10.4369L18.2868 13.916H14.8078V22.0338L18.6735 22.0339C20.6027 22.0339 22.3458 20.291 22.3458 18.3613V3.67253Z" fill="black"/>
</svg>
