<svg width="74" height="24" viewBox="0 0 74 24" fill="none" xmlns="http://www.w3.org/2000/svg">
<path d="M73.0607 13.0607C73.6464 12.4749 73.6464 11.5251 73.0607 10.9393L63.5147 1.3934C62.9289 0.807611 61.9792 0.807611 61.3934 1.3934C60.8076 1.97918 60.8076 2.92893 61.3934 3.51472L69.8787 12L61.3934 20.4853C60.8076 21.0711 60.8076 22.0208 61.3934 22.6066C61.9792 23.1924 62.9289 23.1924 63.5147 22.6066L73.0607 13.0607ZM1.5 12C1.5 12.8284 0.828427 13.5 0 13.5L0 10.5C0.828427 10.5 1.5 11.1716 1.5 12ZM73.5 10.5L1.5 10.5L1.5 13.5L73.5 13.5L73.5 10.5Z" fill="#565A6E"/>
</svg>
