<svg width="25" height="20" viewBox="0 0 25 20" fill="none" xmlns="http://www.w3.org/2000/svg">
<path d="M7.88078 19.7502C16.9378 19.7502 21.8903 12.2464 21.8903 5.74073C21.8903 5.52781 21.8903 5.31488 21.877 5.10385C22.8406 4.40658 23.6723 3.54329 24.3333 2.55442C23.435 2.95284 22.4821 3.2143 21.5063 3.33009C22.5337 2.71414 23.3025 1.74603 23.6698 0.605754C22.703 1.17961 21.6453 1.58404 20.5424 1.80157C19.8001 1.01227 18.8183 0.489636 17.7491 0.314535C16.6798 0.139434 15.5826 0.321634 14.6273 0.832937C13.672 1.34424 12.9119 2.15614 12.4646 3.14299C12.0172 4.12985 11.9076 5.23663 12.1526 6.29206C10.1949 6.19399 8.27976 5.68529 6.53143 4.799C4.78309 3.91272 3.24069 2.66865 2.00435 1.14758C1.37405 2.23126 1.18048 3.51442 1.46304 4.73581C1.74561 5.9572 2.48307 7.02497 3.52527 7.72172C2.74707 7.69542 1.98641 7.48359 1.30664 7.10385V7.16659C1.3065 8.30214 1.69871 9.40287 2.41688 10.2825C3.13505 11.1621 4.13507 11.7666 5.2477 11.9936C4.5224 12.1912 3.76146 12.2198 3.02337 12.0772C3.33761 13.0562 3.95008 13.9124 4.77504 14.526C5.6 15.1396 6.59617 15.4799 7.62413 15.4993C5.87887 16.8661 3.7249 17.6066 1.50816 17.6019C1.11552 17.6022 0.723208 17.5793 0.333252 17.5335C2.58472 18.9797 5.20486 19.7473 7.88078 19.7445" fill="#1DA1F2"/>
</svg>
