<svg width="25" height="24" viewBox="0 0 25 24" fill="none" xmlns="http://www.w3.org/2000/svg">
<path d="M8.66759 12C8.66759 9.79094 10.458 7.99968 12.6671 7.99968C14.8763 7.99968 16.6676 9.79094 16.6676 12C16.6676 14.2091 14.8763 16.0003 12.6671 16.0003C10.458 16.0003 8.66759 14.2091 8.66759 12ZM6.505 12C6.505 15.4032 9.26377 18.1619 12.6671 18.1619C16.0704 18.1619 18.8292 15.4032 18.8292 12C18.8292 8.5968 16.0704 5.83814 12.6671 5.83814C9.26377 5.83814 6.505 8.5968 6.505 12ZM17.6331 5.59382C17.6328 6.38911 18.2773 7.03408 19.0726 7.0344C19.8679 7.03472 20.5129 6.39027 20.5132 5.59498C20.5135 4.79969 19.8691 4.15472 19.0737 4.1544H19.0732C18.2782 4.15477 17.6338 4.79891 17.6331 5.59382ZM7.81891 21.7677C6.64891 21.7144 6.01298 21.5196 5.59037 21.3549C5.0301 21.1368 4.63034 20.877 4.21003 20.4573C3.78973 20.0376 3.52956 19.6382 3.3124 19.078C3.14765 18.6556 2.95277 18.0195 2.89958 16.8495C2.8414 15.5846 2.82978 15.2047 2.82978 12.0001C2.82978 8.79552 2.84236 8.41661 2.89958 7.15066C2.95286 5.9807 3.14919 5.34586 3.3124 4.92221C3.53052 4.36195 3.7903 3.96221 4.21003 3.54192C4.62976 3.12163 5.02914 2.86147 5.59037 2.64432C6.01279 2.47958 6.64891 2.2847 7.81891 2.23152C9.08386 2.17334 9.46384 2.16173 12.6671 2.16173C15.8704 2.16173 16.2507 2.1743 17.5167 2.23152C18.6867 2.2848 19.3216 2.48112 19.7453 2.64432C20.3056 2.86147 20.7053 3.12221 21.1256 3.54192C21.5459 3.96163 21.8051 4.36195 22.0233 4.92221C22.188 5.34461 22.3829 5.9807 22.4361 7.15066C22.4943 8.41661 22.5059 8.79552 22.5059 12.0001C22.5059 15.2047 22.4943 15.5836 22.4361 16.8495C22.3828 18.0195 22.1869 18.6554 22.0233 19.078C21.8051 19.6382 21.5453 20.038 21.1256 20.4573C20.7059 20.8766 20.3056 21.1368 19.7453 21.3549C19.3229 21.5196 18.6867 21.7145 17.5167 21.7677C16.2518 21.8259 15.8718 21.8375 12.6671 21.8375C9.4624 21.8375 9.08348 21.8259 7.81891 21.7677ZM7.71955 0.072672C6.44203 0.130848 5.56906 0.333408 4.8067 0.630048C4.01716 0.936384 3.34878 1.34736 2.68088 2.01418C2.01298 2.68099 1.60305 3.3504 1.2967 4.1399C1.00005 4.90272 0.797479 5.77517 0.739301 7.05264C0.680163 8.33213 0.666626 8.74118 0.666626 12C0.666626 15.2588 0.680163 15.6679 0.739301 16.9474C0.797479 18.2249 1.00005 19.0973 1.2967 19.8601C1.60305 20.6491 2.01308 21.3193 2.68088 21.9858C3.34869 22.6524 4.01716 23.0628 4.8067 23.37C5.5705 23.6666 6.44203 23.8692 7.71955 23.9273C8.99976 23.9855 9.40816 24 12.6671 24C15.9261 24 16.3351 23.9865 17.6147 23.9273C18.8923 23.8692 19.7647 23.6666 20.5275 23.37C21.3166 23.0628 21.9854 22.6526 22.6533 21.9858C23.3212 21.319 23.7303 20.6491 24.0375 19.8601C24.3342 19.0973 24.5377 18.2248 24.5949 16.9474C24.6531 15.6669 24.6666 15.2588 24.6666 12C24.6666 8.74118 24.6531 8.33213 24.5949 7.05264C24.5367 5.77507 24.3342 4.90224 24.0375 4.1399C23.7303 3.35088 23.3202 2.68205 22.6533 2.01418C21.9865 1.3463 21.3166 0.936384 20.5285 0.630048C19.7647 0.333408 18.8922 0.129888 17.6156 0.072672C16.3361 0.014496 15.927 0 12.6681 0C9.40912 0 8.99976 0.013536 7.71955 0.072672Z" fill="url(#paint0_radial_298_728)"/>
<defs>
<radialGradient id="paint0_radial_298_728" cx="0" cy="0" r="1" gradientUnits="userSpaceOnUse" gradientTransform="translate(3.8553 24.1134) scale(31.3312)">
<stop offset="0.09" stop-color="#FA8F21"/>
<stop offset="0.78" stop-color="#D82D7E"/>
</radialGradient>
</defs>
</svg>
