<svg version="1.1" id="Layer_1" xmlns="http://www.w3.org/2000/svg" xmlns:xlink="http://www.w3.org/1999/xlink" x="0px" y="0px"
	 width="100%" viewBox="0 0 1580 500" enable-background="new 0 0 1580 500" xml:space="preserve">
<path fill="#000000" opacity="1.000000" stroke="none" 
	d="
M1.000000,431.000000 
	C1.000000,310.637299 1.000000,190.274597 1.364269,69.334961 
	C2.011744,67.633064 2.302510,66.509956 2.577054,65.382904 
	C10.011625,34.862530 28.376045,14.372565 58.407665,4.637937 
	C62.561714,3.291419 66.800461,2.206191 71.000000,1.000001 
	C550.029358,1.000000 1029.058716,1.000000 1508.692871,1.380446 
	C1511.272095,1.971439 1513.296021,1.971866 1515.213501,2.423780 
	C1548.959595,10.376733 1570.426270,30.939285 1579.004639,64.694878 
	C1579.626343,67.140945 1580.332886,69.565453 1581.000000,71.999992 
	C1581.000000,191.362701 1581.000000,310.725403 1580.630859,430.675476 
	C1574.336060,463.608429 1556.215576,485.777344 1525.093384,496.842468 
	C1519.597534,498.796417 1513.707764,499.642365 1508.000000,501.000000 
	C1029.303955,501.000000 550.607910,501.000000 71.320908,500.631836 
	C37.952400,494.183838 15.590591,475.859192 4.779417,444.040405 
	C3.324944,439.759766 2.250444,435.349976 1.000000,431.000000 
M203.359711,382.887817 
	C205.384598,379.262299 207.556503,375.708862 209.381668,371.985474 
	C210.560669,369.580322 212.042633,368.764526 214.776382,368.769257 
	C268.601135,368.862885 322.426147,368.812775 376.250641,368.962769 
	C377.901642,368.967346 380.182220,370.408417 381.083740,371.855865 
	C384.592010,377.488800 387.800140,383.323883 390.830902,389.232056 
	C392.152802,391.808899 393.733093,392.713776 396.635834,392.688568 
	C413.131989,392.545441 429.630951,392.531067 446.126648,392.699890 
	C449.093567,392.730255 450.594147,391.699677 451.886475,389.193817 
	C454.854797,383.438171 458.238129,377.895081 461.159515,372.117310 
	C462.487274,369.491241 464.169678,368.692993 467.011597,368.774414 
	C473.945099,368.973083 480.888153,368.839172 487.797729,368.839172 
	C487.797729,333.993683 487.797729,299.749634 487.797729,265.415924 
	C354.785492,265.415924 222.063095,265.415924 89.199249,265.415924 
	C89.199249,299.916443 89.199249,334.161774 89.199249,368.838928 
	C100.878098,368.838928 112.332962,368.927887 123.784615,368.775635 
	C126.605667,368.738129 128.282837,369.477905 129.602722,372.110046 
	C132.355530,377.599854 135.670883,382.808319 138.405212,388.306366 
	C140.000031,391.513153 141.930725,392.789917 145.666046,392.721680 
	C159.659195,392.466125 173.689117,392.076630 187.646210,392.830322 
	C195.558868,393.257629 200.680130,391.277618 203.359711,382.887817 
M416.987610,132.380188 
	C408.802490,173.232559 400.617340,214.084930 392.316254,255.516144 
	C401.494568,255.516144 409.955719,255.396347 418.410339,255.579559 
	C421.467957,255.645813 422.597351,254.806580 423.223633,251.603958 
	C428.966644,222.236053 434.966003,192.918350 440.867981,163.581451 
	C443.261566,151.683884 445.847443,139.817291 447.881592,127.857643 
	C449.423157,118.794334 444.220184,111.580292 435.856049,110.096603 
	C428.130646,108.726227 420.768738,114.232567 418.943878,122.752724 
	C418.317047,125.679237 417.705780,128.609085 416.987610,132.380188 
M181.772461,255.517349 
	C186.867401,255.368301 183.932175,251.829453 183.619232,250.197250 
	C177.831223,220.009964 171.839371,189.861771 165.896469,159.704147 
	C163.551376,147.803787 161.253342,135.894028 158.874542,124.000420 
	C156.512466,112.190445 145.577316,106.966873 136.048691,113.044167 
	C130.694946,116.458733 128.726135,122.674301 130.335480,130.815765 
	C136.263885,160.807114 142.162643,190.804321 148.090317,220.795807 
	C150.372940,232.344940 152.703110,243.884644 155.029388,255.517593 
	C163.936417,255.517593 172.423523,255.517593 181.772461,255.517349 
M1100.103149,311.500061 
	C1100.103149,304.072784 1100.103149,296.645508 1100.103149,289.240723 
	C1094.922241,289.240723 1090.333740,289.240723 1085.146240,289.240723 
	C1085.146240,305.647064 1085.146240,321.815491 1085.146240,337.983887 
	C1083.300049,336.928040 1082.335205,335.681885 1081.503784,334.352356 
	C1074.712769,323.493591 1067.942993,312.621613 1061.174072,301.748993 
	C1052.731323,288.187653 1052.734375,288.185394 1036.628784,289.122131 
	C1036.466431,289.131561 1036.307861,289.208557 1035.952393,289.309326 
	C1035.952393,314.704926 1035.952393,340.156250 1035.952393,365.738953 
	C1040.795410,365.738953 1045.523682,365.738953 1050.800659,365.738953 
	C1050.800659,348.131561 1050.800659,330.786926 1050.800659,311.944946 
	C1052.526001,314.551880 1053.438110,315.852661 1054.272095,317.201660 
	C1063.630127,332.337952 1072.944580,347.501404 1082.378174,362.590302 
	C1083.238770,363.966553 1084.766602,365.730072 1086.114990,365.850189 
	C1090.681274,366.256989 1095.306152,366.005371 1100.103149,366.005371 
	C1100.103149,347.785919 1100.103149,330.142975 1100.103149,311.500061 
M802.016479,172.755524 
	C802.378479,179.052216 802.035217,185.487289 803.238159,191.619003 
	C806.506409,208.278000 819.204651,217.907379 837.072937,218.082932 
	C855.526489,218.264221 867.984802,209.107742 872.000977,192.343719 
	C874.252441,182.945511 874.280518,173.485962 871.879822,164.148590 
	C868.687073,151.730286 861.148193,143.074158 848.406433,140.167633 
	C827.600342,135.421494 805.118286,142.869659 802.016479,172.755524 
M1116.134399,200.261047 
	C1124.015991,214.049606 1136.611206,219.949661 1153.683105,217.850235 
	C1167.724609,216.123489 1178.523926,207.507141 1181.488281,193.696533 
	C1183.199341,185.725433 1183.476074,177.154999 1182.726562,169.008087 
	C1181.176270,152.152786 1169.254028,140.728455 1153.051270,139.106415 
	C1134.040894,137.203323 1119.574463,145.090912 1114.439453,161.046036 
	C1110.305786,173.889694 1110.473022,186.900330 1116.134399,200.261047 
M895.637451,308.965027 
	C890.068787,311.351044 886.373169,315.424194 885.078003,321.358551 
	C883.072571,330.547546 885.899719,337.990417 894.488892,343.105560 
	C882.995056,348.149078 881.941345,353.759003 890.204285,362.904205 
	C888.747253,363.466797 887.362488,363.940491 886.027588,364.527466 
	C880.026489,367.165985 877.614502,372.664185 879.665833,378.904175 
	C881.259583,383.752228 884.758789,387.180206 889.468140,387.971649 
	C897.413086,389.306946 905.552368,390.273224 913.575317,390.064453 
	C918.488037,389.936615 923.690002,388.001831 928.128906,385.672150 
	C934.498474,382.329193 937.204224,374.411865 935.661865,367.043518 
	C934.217163,360.141785 929.575989,355.988342 921.609802,354.985901 
	C916.997742,354.405518 912.320374,354.337219 907.670715,354.066528 
	C906.009583,353.969788 904.100464,354.450439 902.739685,353.781921 
	C900.930725,352.893219 899.547363,351.138184 897.981201,349.755371 
	C899.671326,348.555115 901.212952,346.898529 903.094360,346.285919 
	C904.892822,345.700348 907.048706,346.291565 909.040894,346.207947 
	C917.149963,345.867493 924.199890,343.293030 928.037354,335.592010 
	C931.739441,328.162537 930.526978,321.096008 925.646667,315.573425 
	C928.735474,311.280121 931.577759,307.329468 935.025635,302.537079 
	C929.678467,301.259033 926.066345,300.395660 922.646179,299.578186 
	C921.357422,303.204559 920.324707,306.110565 919.246338,309.144897 
	C911.285522,306.216095 903.838196,305.956604 895.637451,308.965027 
M1262.889648,331.756775 
	C1266.023071,343.099640 1269.156494,354.442535 1272.276978,365.738892 
	C1277.645264,365.738892 1282.731201,365.738892 1287.876953,365.738892 
	C1292.396484,346.458313 1296.859375,327.420013 1301.356079,308.237274 
	C1296.601196,308.237274 1292.372314,308.237274 1288.123291,308.237274 
	C1285.353760,321.344452 1282.646484,334.157196 1279.939209,346.969971 
	C1279.620850,347.000885 1279.302612,347.031799 1278.984253,347.062714 
	C1275.172119,334.092896 1271.359985,321.123047 1267.480347,307.923523 
	C1264.956177,307.923523 1262.579346,308.261444 1260.338257,307.853455 
	C1255.618896,306.994354 1254.117798,309.383728 1253.063354,313.470825 
	C1250.168579,324.692902 1246.898438,335.818146 1243.776978,346.981750 
	C1243.440430,346.996307 1243.103760,347.010895 1242.767090,347.025482 
	C1239.892090,334.010345 1237.017090,320.995209 1234.205200,308.265930 
	C1229.393799,308.265930 1225.176514,308.265930 1220.628052,308.265930 
	C1225.250366,327.702911 1229.777222,346.738281 1234.323486,365.855957 
	C1239.567261,365.855957 1244.536011,365.855957 1249.723877,365.855957 
	C1253.265747,352.825256 1256.791992,339.851562 1260.708618,325.441895 
	C1261.711914,328.276428 1262.188721,329.623718 1262.889648,331.756775 
M911.083679,216.738373 
	C923.798218,220.342529 934.798035,216.710358 939.849915,206.397537 
	C945.906555,194.033630 945.859558,181.129837 939.749634,168.885651 
	C933.131775,155.623718 914.695007,153.792328 904.779419,164.840302 
	C904.323059,165.348694 903.678223,165.687866 902.773071,166.367004 
	C902.591492,163.559647 902.446594,161.319656 902.311096,159.225677 
	C897.244629,159.225677 892.664856,159.225677 888.110962,159.225677 
	C888.110962,186.418716 888.110962,213.307907 888.110962,240.403427 
	C892.901306,240.403427 897.463806,240.403427 902.667358,240.403427 
	C902.667358,230.500381 902.667358,220.847870 902.667358,210.853958 
	C905.641541,212.974579 908.016052,214.667633 911.083679,216.738373 
M626.093018,321.049896 
	C629.154175,304.763245 638.920654,297.496490 652.823303,302.246094 
	C657.392395,303.807037 660.976379,308.251617 665.644043,311.868164 
	C668.418823,310.173737 672.200012,307.864746 676.820557,305.043182 
	C673.892029,301.365387 671.703674,297.505310 668.526245,294.811829 
	C651.331848,280.236145 620.580688,288.240601 613.140076,309.475647 
	C610.941406,315.750458 610.173340,322.820648 610.185852,329.523682 
	C610.232849,354.734283 626.121460,368.978912 651.180176,366.933746 
	C664.532837,365.843994 674.741028,357.022339 676.532227,344.890259 
	C672.772095,342.965515 668.968567,341.018616 664.886536,338.929077 
	C664.417236,340.039307 664.095703,340.750488 663.812866,341.476746 
	C660.271179,350.571503 654.154602,354.508484 644.531921,353.879608 
	C635.405945,353.283142 628.871948,348.030792 627.142700,338.814117 
	C626.111267,333.316620 626.355408,327.579773 626.093018,321.049896 
M1439.550415,346.730591 
	C1439.641602,345.165680 1439.732788,343.600739 1439.888672,340.926300 
	C1441.643677,342.961243 1442.732300,344.093964 1443.674194,345.337830 
	C1448.195557,351.309265 1452.637329,357.341553 1457.209595,363.273468 
	C1458.053223,364.368103 1459.323242,365.804230 1460.472168,365.876373 
	C1465.173218,366.171661 1469.903687,365.999573 1475.680542,365.999573 
	C1467.586792,354.876587 1460.200806,344.726135 1452.832153,334.599701 
	C1459.617554,325.817749 1466.157349,317.353516 1472.978271,308.525543 
	C1458.899414,306.511444 1458.624268,306.619263 1450.888916,316.646149 
	C1449.668701,318.227997 1448.460938,319.819580 1447.223389,321.387817 
	C1445.056641,324.134064 1442.871338,326.865692 1440.693726,329.603394 
	C1440.316650,329.441010 1439.939575,329.278625 1439.562500,329.116211 
	C1439.562500,314.408539 1439.562500,299.700867 1439.562500,284.769226 
	C1434.416504,284.769226 1429.828979,284.769226 1425.128906,284.769226 
	C1425.128906,311.889160 1425.128906,338.787750 1425.128906,365.790222 
	C1429.960815,365.790222 1434.543701,365.790222 1439.550415,365.790222 
	C1439.550415,359.610291 1439.550415,353.645416 1439.550415,346.730591 
M998.808411,214.450073 
	C1001.866699,211.380432 1004.924988,208.310791 1008.367981,204.854965 
	C1003.962952,202.047684 1000.673279,199.951263 997.447937,197.895798 
	C991.489014,205.214096 984.595215,207.414856 977.474182,204.597443 
	C972.276428,202.541000 969.571594,197.696075 970.203247,191.049759 
	C982.574036,191.049759 994.993164,191.049759 1008.234192,191.049759 
	C1007.915833,185.672684 1008.134644,180.665970 1007.230774,175.870850 
	C1005.195984,165.075043 997.803040,158.873566 986.858887,158.011520 
	C965.944336,156.364136 952.992004,169.390015 954.499329,190.429810 
	C955.361450,202.464188 959.749695,212.154373 972.003479,216.249313 
	C980.800476,219.189072 989.656494,219.107300 998.808411,214.450073 
M1161.585571,362.155945 
	C1163.997803,359.494354 1166.410034,356.832764 1169.161255,353.797119 
	C1165.143799,351.204651 1161.846924,349.077118 1158.596436,346.979523 
	C1151.974243,354.283173 1145.823486,356.311920 1138.744019,353.706085 
	C1133.558105,351.797272 1130.909180,347.360260 1130.975098,340.064545 
	C1143.491821,340.064545 1156.025146,340.064545 1168.752319,340.064545 
	C1168.752319,335.161133 1169.237305,330.805664 1168.660034,326.595825 
	C1167.027710,314.689178 1159.130859,307.700653 1147.144653,306.970673 
	C1127.667847,305.784485 1115.880371,316.460266 1115.466797,336.161896 
	C1115.236938,347.107086 1117.759155,357.397583 1128.266602,363.042969 
	C1139.016724,368.818634 1150.189087,369.107544 1161.585571,362.155945 
M942.373108,337.445251 
	C942.461792,338.608398 942.525391,339.774078 942.642944,340.934326 
	C944.765198,361.889557 964.652161,373.450928 984.026672,364.907501 
	C989.194153,362.628815 993.086670,358.903015 995.468506,353.294983 
	C992.054504,351.111420 988.754456,349.000732 985.512512,346.927216 
	C979.322205,354.227997 972.645752,356.382782 965.551392,353.636475 
	C960.362671,351.627869 957.655945,346.862183 958.144226,339.878937 
	C970.646606,339.878937 983.197815,339.878937 995.920532,339.878937 
	C995.920532,335.588745 996.180298,331.912140 995.865662,328.285370 
	C995.234863,321.014923 992.550598,314.730347 986.100037,310.618164 
	C970.041748,300.381073 947.841736,309.203430 943.452515,327.644806 
	C942.763916,330.537964 942.716858,333.583801 942.373108,337.445251 
M850.502991,340.240326 
	C857.631714,340.240326 864.760376,340.240326 872.237732,340.240326 
	C873.093994,329.220337 873.265381,318.877502 863.875549,311.541473 
	C853.152832,303.164124 833.297607,305.979462 824.987122,316.746643 
	C817.644775,326.259399 816.669189,343.943420 823.180237,354.623199 
	C830.257507,366.231598 841.556458,368.073883 853.716309,366.732117 
	C862.101257,365.806885 868.370056,361.348053 872.014282,353.267426 
	C868.392944,350.984711 865.093628,348.904999 861.852966,346.862244 
	C856.181274,354.205750 849.063477,356.450073 841.897827,353.518677 
	C836.689026,351.387878 833.991943,346.589844 834.564636,340.240356 
	C839.531982,340.240356 844.518738,340.240356 850.502991,340.240326 
M707.997803,366.834290 
	C711.812073,366.775909 715.712646,367.215729 719.425476,366.572205 
	C734.784729,363.910004 743.356018,351.186829 741.772644,333.495850 
	C740.736816,321.921295 736.000549,312.446198 724.249207,308.665833 
	C712.870300,305.005310 701.570984,305.627319 692.696838,314.660400 
	C683.474670,324.047577 683.250305,335.943939 686.190247,347.836426 
	C688.839355,358.552338 696.376770,364.591461 707.997803,366.834290 
M1308.753052,336.568848 
	C1308.698730,348.079132 1311.898315,358.092010 1322.732788,363.840729 
	C1341.597900,373.850555 1362.427124,363.255341 1365.608643,342.262665 
	C1368.088257,325.901245 1360.346558,311.914429 1346.670532,308.047577 
	C1325.880493,302.169312 1309.868652,313.870361 1308.753052,336.568848 
M1065.415161,160.912216 
	C1060.384521,157.511414 1054.506592,156.789948 1049.122681,158.341385 
	C1044.054688,159.801788 1039.571167,163.289948 1034.888672,165.854111 
	C1034.823730,164.380493 1034.712036,161.845734 1034.592407,159.130157 
	C1029.843872,159.130157 1025.419434,159.130157 1020.794495,159.130157 
	C1020.794495,178.406403 1020.794495,197.498245 1020.794495,216.670563 
	C1025.687012,216.670563 1030.397339,216.670563 1035.188599,216.670563 
	C1035.188599,206.846771 1035.005249,197.353455 1035.279541,187.873398 
	C1035.388184,184.120605 1035.963623,180.184265 1037.307251,176.710846 
	C1039.286377,171.594727 1045.384766,169.196838 1051.158447,170.450806 
	C1056.155029,171.535995 1057.980225,174.239975 1058.080078,180.937607 
	C1058.149536,185.597931 1058.103027,190.260010 1058.104248,194.921310 
	C1058.106323,202.186630 1058.104736,209.451935 1058.104736,216.634125 
	C1063.376709,216.634125 1068.089600,216.634125 1072.888306,216.634125 
	C1072.888306,203.452087 1073.012085,190.640411 1072.835327,177.832886 
	C1072.748413,171.541061 1071.275879,165.600784 1065.415161,160.912216 
M1213.653687,179.628601 
	C1216.129639,172.513611 1221.255371,169.186798 1228.022827,170.302383 
	C1233.766846,171.249237 1235.627441,174.261490 1235.725586,182.789856 
	C1235.740845,184.122009 1235.728271,185.454498 1235.728271,186.786835 
	C1235.728271,196.728287 1235.728271,206.669739 1235.728271,216.805756 
	C1240.737305,216.805756 1245.337158,216.805756 1250.205322,216.805756 
	C1250.205322,203.382080 1250.418335,190.076874 1250.135132,176.782272 
	C1249.925049,166.925629 1245.949341,161.249817 1238.589233,158.886368 
	C1229.115601,155.844254 1220.345459,158.352127 1214.388672,165.779541 
	C1213.961426,166.312439 1213.380737,166.722488 1212.080811,167.914917 
	C1212.080811,164.298416 1212.080811,161.757370 1212.080811,159.185150 
	C1207.199097,159.185150 1202.790649,159.185150 1198.280273,159.185150 
	C1198.280273,178.507217 1198.280273,197.570435 1198.280273,216.653824 
	C1203.223145,216.653824 1207.927979,216.653824 1213.366821,216.653824 
	C1213.366821,204.342972 1213.366821,192.382523 1213.653687,179.628601 
M1179.772827,319.553619 
	C1181.064575,319.553619 1182.356323,319.553619 1184.021362,319.553619 
	C1184.021362,328.728241 1183.985718,337.530914 1184.029175,346.333191 
	C1184.108032,362.291931 1194.195557,370.226807 1209.638672,366.523438 
	C1217.292236,364.688080 1217.726807,363.922119 1215.171875,356.660797 
	C1214.635498,355.136017 1214.042236,353.631226 1213.486206,352.146698 
	C1211.113281,352.848846 1209.112549,353.716858 1207.032471,353.997894 
	C1202.897217,354.556610 1199.268311,353.220093 1199.093872,348.606049 
	C1198.731445,339.014771 1198.984253,329.400238 1198.984253,319.448761 
	C1204.510010,319.448761 1209.622681,319.448761 1214.787476,319.448761 
	C1214.787476,315.381775 1214.787476,311.682037 1214.787476,307.649719 
	C1209.321655,307.649719 1204.218262,307.649719 1198.737061,307.649719 
	C1198.737061,303.035553 1198.737061,298.757233 1198.737061,294.117126 
	C1193.620850,294.957245 1188.943848,295.725250 1183.870605,296.558319 
	C1183.870605,300.468719 1183.870605,304.050720 1183.870605,308.123169 
	C1180.692383,308.123169 1177.976074,308.123169 1175.109131,308.123169 
	C1175.109131,311.123047 1175.308838,313.628174 1175.058838,316.087585 
	C1174.745361,319.170990 1176.227905,319.880188 1179.772827,319.553619 
M769.744629,333.499451 
	C769.744629,317.290497 769.744629,301.081573 769.744629,284.780273 
	C764.439453,284.780273 759.843933,284.780273 754.989014,284.780273 
	C754.989014,287.840881 754.988464,290.654877 754.989075,293.468842 
	C754.993347,312.759125 754.948120,332.049652 755.032532,351.339600 
	C755.057739,357.096802 756.695557,362.306976 762.240845,365.155273 
	C767.661072,367.939331 773.233337,367.737427 778.884277,365.713715 
	C778.308167,361.505646 777.822327,357.957458 777.344360,354.466309 
	C770.648376,354.776489 769.818787,354.035339 769.755676,347.968964 
	C769.708984,343.479462 769.745300,338.989075 769.744629,333.499451 
M788.367065,334.499207 
	C788.501526,340.989960 788.164917,347.532684 788.874268,353.959991 
	C790.127380,365.315216 801.898499,370.881073 812.265747,365.130066 
	C811.811157,361.670166 811.342590,358.103790 810.880127,354.583984 
	C804.087097,354.754791 803.109131,353.803802 803.102234,347.162506 
	C803.082642,328.333710 803.094971,309.504913 803.094788,290.676117 
	C803.094727,288.740326 803.094788,286.804565 803.094788,284.824341 
	C797.945740,284.824341 793.359497,284.824341 788.367065,284.824341 
	C788.367065,301.244873 788.367065,317.372162 788.367065,334.499207 
M1393.995605,347.510956 
	C1394.266724,342.039703 1394.038208,336.485718 1394.926758,331.116669 
	C1396.238770,323.188782 1401.390381,319.903625 1409.339844,321.052887 
	C1410.609497,321.236420 1411.856201,321.579010 1413.484009,321.927307 
	C1414.372070,317.503906 1415.208130,313.338715 1416.100830,308.892120 
	C1406.632935,305.442139 1399.398804,307.588562 1393.906006,317.150360 
	C1393.713623,313.264374 1393.586548,310.697296 1393.459839,308.138611 
	C1388.580933,308.138611 1384.137939,308.138611 1379.459961,308.138611 
	C1379.459961,327.417480 1379.459961,346.476562 1379.459961,365.718658 
	C1384.360962,365.718658 1389.067261,365.718658 1393.718994,365.718658 
	C1393.846680,365.114990 1393.968994,364.803833 1393.969971,364.492279 
	C1393.987427,359.163635 1393.989868,353.834961 1393.995605,347.510956 
z"/>
<path fill="#FDFDFD" opacity="1.000000" stroke="none" 
	d="
M1581.000000,71.531334 
	C1580.332886,69.565453 1579.626343,67.140945 1579.004639,64.694878 
	C1570.426270,30.939285 1548.959595,10.376733 1515.213501,2.423780 
	C1513.296021,1.971866 1511.272095,1.971439 1509.148926,1.380446 
	C1532.926392,1.000000 1556.852661,1.000000 1581.000000,1.000000 
	C1581.000000,24.353764 1581.000000,47.708221 1581.000000,71.531334 
z"/>
<path fill="#FDFDFD" opacity="1.000000" stroke="none" 
	d="
M1508.468628,501.000000 
	C1513.707764,499.642365 1519.597534,498.796417 1525.093384,496.842468 
	C1556.215576,485.777344 1574.336060,463.608429 1580.630859,431.131409 
	C1581.000000,454.261749 1581.000000,477.523468 1581.000000,501.000000 
	C1556.979492,501.000000 1532.958374,501.000000 1508.468628,501.000000 
z"/>
<path fill="#FDFDFD" opacity="1.000000" stroke="none" 
	d="
M1.000000,431.468658 
	C2.250444,435.349976 3.324944,439.759766 4.779417,444.040405 
	C15.590591,475.859192 37.952400,494.183838 70.864960,500.631836 
	C47.739811,501.000000 24.479624,501.000000 1.000000,501.000000 
	C1.000000,477.979584 1.000000,454.958435 1.000000,431.468658 
z"/>
<path fill="#FCFCFC" opacity="1.000000" stroke="none" 
	d="
M70.531342,1.000001 
	C66.800461,2.206191 62.561714,3.291419 58.407665,4.637937 
	C28.376045,14.372565 10.011625,34.862530 2.577054,65.382904 
	C2.302510,66.509956 2.011744,67.633064 1.364269,68.879005 
	C1.000000,46.405418 1.000000,23.810839 1.000000,1.000000 
	C24.020443,1.000000 47.041565,1.000000 70.531342,1.000001 
z"/>
<path fill="#FEFEFE" opacity="1.000000" stroke="none" 
	d="
M203.191132,383.217224 
	C200.680130,391.277618 195.558868,393.257629 187.646210,392.830322 
	C173.689117,392.076630 159.659195,392.466125 145.666046,392.721680 
	C141.930725,392.789917 140.000031,391.513153 138.405212,388.306366 
	C135.670883,382.808319 132.355530,377.599854 129.602722,372.110046 
	C128.282837,369.477905 126.605667,368.738129 123.784615,368.775635 
	C112.332962,368.927887 100.878098,368.838928 89.199249,368.838928 
	C89.199249,334.161774 89.199249,299.916443 89.199249,265.415924 
	C222.063095,265.415924 354.785492,265.415924 487.797729,265.415924 
	C487.797729,299.749634 487.797729,333.993683 487.797729,368.839172 
	C480.888153,368.839172 473.945099,368.973083 467.011597,368.774414 
	C464.169678,368.692993 462.487274,369.491241 461.159515,372.117310 
	C458.238129,377.895081 454.854797,383.438171 451.886475,389.193817 
	C450.594147,391.699677 449.093567,392.730255 446.126648,392.699890 
	C429.630951,392.531067 413.131989,392.545441 396.635834,392.688568 
	C393.733093,392.713776 392.152802,391.808899 390.830902,389.232056 
	C387.800140,383.323883 384.592010,377.488800 381.083740,371.855865 
	C380.182220,370.408417 377.901642,368.967346 376.250641,368.962769 
	C322.426147,368.812775 268.601135,368.862885 214.776382,368.769257 
	C212.042633,368.764526 210.560669,369.580322 209.381668,371.985474 
	C207.556503,375.708862 205.384598,379.262299 203.191132,383.217224 
M424.385803,321.096863 
	C421.123749,328.309784 422.439819,334.680939 428.065704,338.911469 
	C432.988373,342.613281 439.842499,342.400879 444.633026,338.397949 
	C450.839600,333.211761 451.226685,324.438843 445.688141,318.523224 
	C440.647552,313.139465 429.662750,312.846649 424.385803,321.096863 
M394.672119,336.056763 
	C399.182495,328.557892 397.689056,320.717773 390.936798,316.447174 
	C384.984222,312.682404 376.420563,314.660217 372.444611,320.718079 
	C368.656830,326.489136 369.957977,334.204163 375.463898,338.620972 
	C381.206573,343.227692 388.111908,342.483124 394.672119,336.056763 
z"/>
<path fill="#FCFCFC" opacity="1.000000" stroke="none" 
	d="
M417.037537,131.958801 
	C417.705780,128.609085 418.317047,125.679237 418.943878,122.752724 
	C420.768738,114.232567 428.130646,108.726227 435.856049,110.096603 
	C444.220184,111.580292 449.423157,118.794334 447.881592,127.857643 
	C445.847443,139.817291 443.261566,151.683884 440.867981,163.581451 
	C434.966003,192.918350 428.966644,222.236053 423.223633,251.603958 
	C422.597351,254.806580 421.467957,255.645813 418.410339,255.579559 
	C409.955719,255.396347 401.494568,255.516144 392.316254,255.516144 
	C400.617340,214.084930 408.802490,173.232559 417.037537,131.958801 
z"/>
<path fill="#FCFCFC" opacity="1.000000" stroke="none" 
	d="
M181.341553,255.517471 
	C172.423523,255.517593 163.936417,255.517593 155.029388,255.517593 
	C152.703110,243.884644 150.372940,232.344940 148.090317,220.795807 
	C142.162643,190.804321 136.263885,160.807114 130.335480,130.815765 
	C128.726135,122.674301 130.694946,116.458733 136.048691,113.044167 
	C145.577316,106.966873 156.512466,112.190445 158.874542,124.000420 
	C161.253342,135.894028 163.551376,147.803787 165.896469,159.704147 
	C171.839371,189.861771 177.831223,220.009964 183.619232,250.197250 
	C183.932175,251.829453 186.867401,255.368301 181.341553,255.517471 
z"/>
<path fill="#FAFAFA" opacity="1.000000" stroke="none" 
	d="
M1100.103149,312.000061 
	C1100.103149,330.142975 1100.103149,347.785919 1100.103149,366.005371 
	C1095.306152,366.005371 1090.681274,366.256989 1086.114990,365.850189 
	C1084.766602,365.730072 1083.238770,363.966553 1082.378174,362.590302 
	C1072.944580,347.501404 1063.630127,332.337952 1054.272095,317.201660 
	C1053.438110,315.852661 1052.526001,314.551880 1050.800659,311.944946 
	C1050.800659,330.786926 1050.800659,348.131561 1050.800659,365.738953 
	C1045.523682,365.738953 1040.795410,365.738953 1035.952393,365.738953 
	C1035.952393,340.156250 1035.952393,314.704926 1035.952393,289.309326 
	C1036.307861,289.208557 1036.466431,289.131561 1036.628784,289.122131 
	C1052.734375,288.185394 1052.731323,288.187653 1061.174072,301.748993 
	C1067.942993,312.621613 1074.712769,323.493591 1081.503784,334.352356 
	C1082.335205,335.681885 1083.300049,336.928040 1085.146240,337.983887 
	C1085.146240,321.815491 1085.146240,305.647064 1085.146240,289.240723 
	C1090.333740,289.240723 1094.922241,289.240723 1100.103149,289.240723 
	C1100.103149,296.645508 1100.103149,304.072784 1100.103149,312.000061 
z"/>
<path fill="#FBFBFB" opacity="1.000000" stroke="none" 
	d="
M802.038940,172.290436 
	C805.118286,142.869659 827.600342,135.421494 848.406433,140.167633 
	C861.148193,143.074158 868.687073,151.730286 871.879822,164.148590 
	C874.280518,173.485962 874.252441,182.945511 872.000977,192.343719 
	C867.984802,209.107742 855.526489,218.264221 837.072937,218.082932 
	C819.204651,217.907379 806.506409,208.278000 803.238159,191.619003 
	C802.035217,185.487289 802.378479,179.052216 802.038940,172.290436 
M840.059143,204.791977 
	C849.123718,203.810944 855.280273,198.809052 856.362000,189.935272 
	C857.329590,181.997879 857.291077,173.647705 855.918579,165.790222 
	C854.282959,156.426468 846.984802,151.903381 837.223022,152.094757 
	C827.764587,152.280182 820.942688,157.053391 819.161560,166.156616 
	C817.933655,172.432434 817.697449,179.059113 818.092285,185.462753 
	C818.894775,198.479706 826.122375,204.779984 840.059143,204.791977 
z"/>
<path fill="#FBFBFB" opacity="1.000000" stroke="none" 
	d="
M1116.006104,199.905823 
	C1110.473022,186.900330 1110.305786,173.889694 1114.439453,161.046036 
	C1119.574463,145.090912 1134.040894,137.203323 1153.051270,139.106415 
	C1169.254028,140.728455 1181.176270,152.152786 1182.726562,169.008087 
	C1183.476074,177.154999 1183.199341,185.725433 1181.488281,193.696533 
	C1178.523926,207.507141 1167.724609,216.123489 1153.683105,217.850235 
	C1136.611206,219.949661 1124.015991,214.049606 1116.006104,199.905823 
M1167.777710,175.793640 
	C1167.186279,172.192337 1166.945801,168.488831 1165.933350,165.010056 
	C1163.486206,156.601715 1157.105103,152.187698 1147.954712,152.092010 
	C1138.765381,151.995895 1132.163086,156.206635 1129.580566,164.493896 
	C1126.694214,173.755508 1126.695068,183.228287 1129.575195,192.489899 
	C1132.149048,200.767426 1138.770264,204.983521 1147.954834,204.886642 
	C1157.109497,204.790054 1163.672607,200.420410 1165.882080,191.959732 
	C1167.166870,187.039963 1167.204834,181.794525 1167.777710,175.793640 
z"/>
<path fill="#FAFAFA" opacity="1.000000" stroke="none" 
	d="
M896.006348,308.829193 
	C903.838196,305.956604 911.285522,306.216095 919.246338,309.144897 
	C920.324707,306.110565 921.357422,303.204559 922.646179,299.578186 
	C926.066345,300.395660 929.678467,301.259033 935.025635,302.537079 
	C931.577759,307.329468 928.735474,311.280121 925.646667,315.573425 
	C930.526978,321.096008 931.739441,328.162537 928.037354,335.592010 
	C924.199890,343.293030 917.149963,345.867493 909.040894,346.207947 
	C907.048706,346.291565 904.892822,345.700348 903.094360,346.285919 
	C901.212952,346.898529 899.671326,348.555115 897.981201,349.755371 
	C899.547363,351.138184 900.930725,352.893219 902.739685,353.781921 
	C904.100464,354.450439 906.009583,353.969788 907.670715,354.066528 
	C912.320374,354.337219 916.997742,354.405518 921.609802,354.985901 
	C929.575989,355.988342 934.217163,360.141785 935.661865,367.043518 
	C937.204224,374.411865 934.498474,382.329193 928.128906,385.672150 
	C923.690002,388.001831 918.488037,389.936615 913.575317,390.064453 
	C905.552368,390.273224 897.413086,389.306946 889.468140,387.971649 
	C884.758789,387.180206 881.259583,383.752228 879.665833,378.904175 
	C877.614502,372.664185 880.026489,367.165985 886.027588,364.527466 
	C887.362488,363.940491 888.747253,363.466797 890.204285,362.904205 
	C881.941345,353.759003 882.995056,348.149078 894.488892,343.105560 
	C885.899719,337.990417 883.072571,330.547546 885.078003,321.358551 
	C886.373169,315.424194 890.068787,311.351044 896.006348,308.829193 
M909.386963,366.921875 
	C905.750488,366.864899 902.040588,366.357361 898.507202,366.932983 
	C896.621155,367.240204 894.096313,369.132721 893.583618,370.830322 
	C893.061035,372.560730 894.062866,375.497467 895.427307,376.913574 
	C899.724548,381.373657 915.112183,381.235321 919.207275,376.746796 
	C920.453918,375.380249 921.221130,372.752472 920.847961,370.990479 
	C920.544739,369.558807 918.378296,368.067413 916.728271,367.493073 
	C914.772095,366.812195 912.483765,367.085907 909.386963,366.921875 
M916.114136,326.500183 
	C915.502441,320.004791 912.575195,316.971161 907.042664,317.099152 
	C901.802490,317.220367 898.705200,320.433350 898.458130,326.004395 
	C898.196899,331.893890 901.134033,335.605408 906.373779,336.006958 
	C912.072815,336.443787 915.124939,333.720947 916.114136,326.500183 
z"/>
<path fill="#FAFAFA" opacity="1.000000" stroke="none" 
	d="
M1262.777588,331.363892 
	C1262.188721,329.623718 1261.711914,328.276428 1260.708618,325.441895 
	C1256.791992,339.851562 1253.265747,352.825256 1249.723877,365.855957 
	C1244.536011,365.855957 1239.567261,365.855957 1234.323486,365.855957 
	C1229.777222,346.738281 1225.250366,327.702911 1220.628052,308.265930 
	C1225.176514,308.265930 1229.393799,308.265930 1234.205200,308.265930 
	C1237.017090,320.995209 1239.892090,334.010345 1242.767090,347.025482 
	C1243.103760,347.010895 1243.440430,346.996307 1243.776978,346.981750 
	C1246.898438,335.818146 1250.168579,324.692902 1253.063354,313.470825 
	C1254.117798,309.383728 1255.618896,306.994354 1260.338257,307.853455 
	C1262.579346,308.261444 1264.956177,307.923523 1267.480347,307.923523 
	C1271.359985,321.123047 1275.172119,334.092896 1278.984253,347.062714 
	C1279.302612,347.031799 1279.620850,347.000885 1279.939209,346.969971 
	C1282.646484,334.157196 1285.353760,321.344452 1288.123291,308.237274 
	C1292.372314,308.237274 1296.601196,308.237274 1301.356079,308.237274 
	C1296.859375,327.420013 1292.396484,346.458313 1287.876953,365.738892 
	C1282.731201,365.738892 1277.645264,365.738892 1272.276978,365.738892 
	C1269.156494,354.442535 1266.023071,343.099640 1262.777588,331.363892 
z"/>
<path fill="#FAFAFA" opacity="1.000000" stroke="none" 
	d="
M910.737122,216.549530 
	C908.016052,214.667633 905.641541,212.974579 902.667358,210.853958 
	C902.667358,220.847870 902.667358,230.500381 902.667358,240.403427 
	C897.463806,240.403427 892.901306,240.403427 888.110962,240.403427 
	C888.110962,213.307907 888.110962,186.418716 888.110962,159.225677 
	C892.664856,159.225677 897.244629,159.225677 902.311096,159.225677 
	C902.446594,161.319656 902.591492,163.559647 902.773071,166.367004 
	C903.678223,165.687866 904.323059,165.348694 904.779419,164.840302 
	C914.695007,153.792328 933.131775,155.623718 939.749634,168.885651 
	C945.859558,181.129837 945.906555,194.033630 939.849915,206.397537 
	C934.798035,216.710358 923.798218,220.342529 910.737122,216.549530 
M905.099060,175.805893 
	C901.595154,182.536377 901.552734,189.586029 903.606323,196.646347 
	C905.400208,202.813873 910.232971,206.041458 916.327026,205.712219 
	C922.632385,205.371597 926.959595,201.898346 927.931458,195.415649 
	C928.587097,191.042542 928.528076,186.487488 928.189941,182.059540 
	C927.784546,176.751755 925.391174,172.471619 919.814514,170.881683 
	C914.171265,169.272797 909.293701,170.440643 905.099060,175.805893 
z"/>
<path fill="#FAFAFA" opacity="1.000000" stroke="none" 
	d="
M626.059570,321.500214 
	C626.355408,327.579773 626.111267,333.316620 627.142700,338.814117 
	C628.871948,348.030792 635.405945,353.283142 644.531921,353.879608 
	C654.154602,354.508484 660.271179,350.571503 663.812866,341.476746 
	C664.095703,340.750488 664.417236,340.039307 664.886536,338.929077 
	C668.968567,341.018616 672.772095,342.965515 676.532227,344.890259 
	C674.741028,357.022339 664.532837,365.843994 651.180176,366.933746 
	C626.121460,368.978912 610.232849,354.734283 610.185852,329.523682 
	C610.173340,322.820648 610.941406,315.750458 613.140076,309.475647 
	C620.580688,288.240601 651.331848,280.236145 668.526245,294.811829 
	C671.703674,297.505310 673.892029,301.365387 676.820557,305.043182 
	C672.200012,307.864746 668.418823,310.173737 665.644043,311.868164 
	C660.976379,308.251617 657.392395,303.807037 652.823303,302.246094 
	C638.920654,297.496490 629.154175,304.763245 626.059570,321.500214 
z"/>
<path fill="#F9F9F9" opacity="1.000000" stroke="none" 
	d="
M1439.550415,347.205566 
	C1439.550415,353.645416 1439.550415,359.610291 1439.550415,365.790222 
	C1434.543701,365.790222 1429.960815,365.790222 1425.128906,365.790222 
	C1425.128906,338.787750 1425.128906,311.889160 1425.128906,284.769226 
	C1429.828979,284.769226 1434.416504,284.769226 1439.562500,284.769226 
	C1439.562500,299.700867 1439.562500,314.408539 1439.562500,329.116211 
	C1439.939575,329.278625 1440.316650,329.441010 1440.693726,329.603394 
	C1442.871338,326.865692 1445.056641,324.134064 1447.223389,321.387817 
	C1448.460938,319.819580 1449.668701,318.227997 1450.888916,316.646149 
	C1458.624268,306.619263 1458.899414,306.511444 1472.978271,308.525543 
	C1466.157349,317.353516 1459.617554,325.817749 1452.832153,334.599701 
	C1460.200806,344.726135 1467.586792,354.876587 1475.680542,365.999573 
	C1469.903687,365.999573 1465.173218,366.171661 1460.472168,365.876373 
	C1459.323242,365.804230 1458.053223,364.368103 1457.209595,363.273468 
	C1452.637329,357.341553 1448.195557,351.309265 1443.674194,345.337830 
	C1442.732300,344.093964 1441.643677,342.961243 1439.888672,340.926300 
	C1439.732788,343.600739 1439.641602,345.165680 1439.550415,347.205566 
z"/>
<path fill="#FBFBFB" opacity="1.000000" stroke="none" 
	d="
M998.494385,214.654572 
	C989.656494,219.107300 980.800476,219.189072 972.003479,216.249313 
	C959.749695,212.154373 955.361450,202.464188 954.499329,190.429810 
	C952.992004,169.390015 965.944336,156.364136 986.858887,158.011520 
	C997.803040,158.873566 1005.195984,165.075043 1007.230774,175.870850 
	C1008.134644,180.665970 1007.915833,185.672684 1008.234192,191.049759 
	C994.993164,191.049759 982.574036,191.049759 970.203247,191.049759 
	C969.571594,197.696075 972.276428,202.541000 977.474182,204.597443 
	C984.595215,207.414856 991.489014,205.214096 997.447937,197.895798 
	C1000.673279,199.951263 1003.962952,202.047684 1008.367981,204.854965 
	C1004.924988,208.310791 1001.866699,211.380432 998.494385,214.654572 
M993.232910,176.549850 
	C990.735962,170.583099 986.483337,168.223068 980.255554,169.347809 
	C974.075012,170.464020 970.627380,174.666107 970.232910,181.556366 
	C978.102051,181.556366 985.971191,181.556366 994.135254,181.556366 
	C993.871765,179.913345 993.664612,178.621979 993.232910,176.549850 
z"/>
<path fill="#FBFBFB" opacity="1.000000" stroke="none" 
	d="
M1161.305786,362.387817 
	C1150.189087,369.107544 1139.016724,368.818634 1128.266602,363.042969 
	C1117.759155,357.397583 1115.236938,347.107086 1115.466797,336.161896 
	C1115.880371,316.460266 1127.667847,305.784485 1147.144653,306.970673 
	C1159.130859,307.700653 1167.027710,314.689178 1168.660034,326.595825 
	C1169.237305,330.805664 1168.752319,335.161133 1168.752319,340.064545 
	C1156.025146,340.064545 1143.491821,340.064545 1130.975098,340.064545 
	C1130.909180,347.360260 1133.558105,351.797272 1138.744019,353.706085 
	C1145.823486,356.311920 1151.974243,354.283173 1158.596436,346.979523 
	C1161.846924,349.077118 1165.143799,351.204651 1169.161255,353.797119 
	C1166.410034,356.832764 1163.997803,359.494354 1161.305786,362.387817 
M1153.404053,323.352966 
	C1149.815186,318.554535 1145.252563,317.078156 1139.447998,318.836823 
	C1134.392700,320.368500 1131.723633,324.127808 1131.183594,330.606445 
	C1139.068604,330.606445 1146.939575,330.606445 1155.281982,330.606445 
	C1154.735229,328.180267 1154.267456,326.105164 1153.404053,323.352966 
z"/>
<path fill="#FBFBFB" opacity="1.000000" stroke="none" 
	d="
M942.373169,337.002136 
	C942.716858,333.583801 942.763916,330.537964 943.452515,327.644806 
	C947.841736,309.203430 970.041748,300.381073 986.100037,310.618164 
	C992.550598,314.730347 995.234863,321.014923 995.865662,328.285370 
	C996.180298,331.912140 995.920532,335.588745 995.920532,339.878937 
	C983.197815,339.878937 970.646606,339.878937 958.144226,339.878937 
	C957.655945,346.862183 960.362671,351.627869 965.551392,353.636475 
	C972.645752,356.382782 979.322205,354.227997 985.512512,346.927216 
	C988.754456,349.000732 992.054504,351.111420 995.468506,353.294983 
	C993.086670,358.903015 989.194153,362.628815 984.026672,364.907501 
	C964.652161,373.450928 944.765198,361.889557 942.642944,340.934326 
	C942.525391,339.774078 942.461792,338.608398 942.373169,337.002136 
M974.401978,330.869232 
	C976.862549,330.869232 979.323120,330.869232 981.784241,330.869232 
	C981.690735,322.524353 978.300842,318.527863 971.333191,318.157898 
	C963.836182,317.759766 958.922546,322.343109 958.143799,330.869232 
	C963.261902,330.869232 968.346558,330.869232 974.401978,330.869232 
z"/>
<path fill="#FBFBFB" opacity="1.000000" stroke="none" 
	d="
M850.004272,340.240356 
	C844.518738,340.240356 839.531982,340.240356 834.564636,340.240356 
	C833.991943,346.589844 836.689026,351.387878 841.897827,353.518677 
	C849.063477,356.450073 856.181274,354.205750 861.852966,346.862244 
	C865.093628,348.904999 868.392944,350.984711 872.014282,353.267426 
	C868.370056,361.348053 862.101257,365.806885 853.716309,366.732117 
	C841.556458,368.073883 830.257507,366.231598 823.180237,354.623199 
	C816.669189,343.943420 817.644775,326.259399 824.987122,316.746643 
	C833.297607,305.979462 853.152832,303.164124 863.875549,311.541473 
	C873.265381,318.877502 873.093994,329.220337 872.237732,340.240326 
	C864.760376,340.240326 857.631714,340.240326 850.004272,340.240356 
M858.354736,329.632935 
	C857.470581,321.381592 853.707336,317.762573 846.430298,318.165436 
	C839.281494,318.561249 834.955261,323.255524 834.888367,330.412842 
	C842.650452,330.412842 850.411926,330.412842 858.354736,329.632935 
z"/>
<path fill="#FAFAFA" opacity="1.000000" stroke="none" 
	d="
M707.564575,366.759521 
	C696.376770,364.591461 688.839355,358.552338 686.190247,347.836426 
	C683.250305,335.943939 683.474670,324.047577 692.696838,314.660400 
	C701.570984,305.627319 712.870300,305.005310 724.249207,308.665833 
	C736.000549,312.446198 740.736816,321.921295 741.772644,333.495850 
	C743.356018,351.186829 734.784729,363.910004 719.425476,366.572205 
	C715.712646,367.215729 711.812073,366.775909 707.564575,366.759521 
M700.605530,344.462830 
	C702.875366,351.752625 706.666443,354.801025 713.374573,354.730408 
	C719.578796,354.665100 724.476318,351.676331 725.425964,345.643890 
	C726.333618,339.878021 726.305664,333.724091 725.333130,327.969879 
	C724.331665,322.044495 719.254639,319.110809 713.053833,319.189667 
	C707.011902,319.266510 702.368042,322.089813 701.193909,327.878510 
	C700.157898,332.986328 700.563477,338.386597 700.605530,344.462830 
z"/>
<path fill="#FAFAFA" opacity="1.000000" stroke="none" 
	d="
M1308.771729,336.149170 
	C1309.868652,313.870361 1325.880493,302.169312 1346.670532,308.047577 
	C1360.346558,311.914429 1368.088257,325.901245 1365.608643,342.262665 
	C1362.427124,363.255341 1341.597900,373.850555 1322.732788,363.840729 
	C1311.898315,358.092010 1308.698730,348.079132 1308.771729,336.149170 
M1349.610718,345.729126 
	C1349.755127,340.454987 1350.487549,335.114044 1349.898315,329.923218 
	C1349.123047,323.094818 1344.297485,319.378418 1337.591797,319.193054 
	C1331.013428,319.011230 1326.186401,322.139496 1324.980469,328.818634 
	C1324.057861,333.927521 1324.006836,339.426849 1324.813599,344.556641 
	C1325.852783,351.165741 1329.799561,354.109131 1336.013062,354.676910 
	C1342.292969,355.250763 1346.405518,352.702728 1349.610718,345.729126 
z"/>
<path fill="#FBFBFB" opacity="1.000000" stroke="none" 
	d="
M1065.727051,161.117767 
	C1071.275879,165.600784 1072.748413,171.541061 1072.835327,177.832886 
	C1073.012085,190.640411 1072.888306,203.452087 1072.888306,216.634125 
	C1068.089600,216.634125 1063.376709,216.634125 1058.104736,216.634125 
	C1058.104736,209.451935 1058.106323,202.186630 1058.104248,194.921310 
	C1058.103027,190.260010 1058.149536,185.597931 1058.080078,180.937607 
	C1057.980225,174.239975 1056.155029,171.535995 1051.158447,170.450806 
	C1045.384766,169.196838 1039.286377,171.594727 1037.307251,176.710846 
	C1035.963623,180.184265 1035.388184,184.120605 1035.279541,187.873398 
	C1035.005249,197.353455 1035.188599,206.846771 1035.188599,216.670563 
	C1030.397339,216.670563 1025.687012,216.670563 1020.794495,216.670563 
	C1020.794495,197.498245 1020.794495,178.406403 1020.794495,159.130157 
	C1025.419434,159.130157 1029.843872,159.130157 1034.592407,159.130157 
	C1034.712036,161.845734 1034.823730,164.380493 1034.888672,165.854111 
	C1039.571167,163.289948 1044.054688,159.801788 1049.122681,158.341385 
	C1054.506592,156.789948 1060.384521,157.511414 1065.727051,161.117767 
z"/>
<path fill="#FCFCFC" opacity="1.000000" stroke="none" 
	d="
M1213.510254,180.025330 
	C1213.366821,192.382523 1213.366821,204.342972 1213.366821,216.653824 
	C1207.927979,216.653824 1203.223145,216.653824 1198.280273,216.653824 
	C1198.280273,197.570435 1198.280273,178.507217 1198.280273,159.185150 
	C1202.790649,159.185150 1207.199097,159.185150 1212.080811,159.185150 
	C1212.080811,161.757370 1212.080811,164.298416 1212.080811,167.914917 
	C1213.380737,166.722488 1213.961426,166.312439 1214.388672,165.779541 
	C1220.345459,158.352127 1229.115601,155.844254 1238.589233,158.886368 
	C1245.949341,161.249817 1249.925049,166.925629 1250.135132,176.782272 
	C1250.418335,190.076874 1250.205322,203.382080 1250.205322,216.805756 
	C1245.337158,216.805756 1240.737305,216.805756 1235.728271,216.805756 
	C1235.728271,206.669739 1235.728271,196.728287 1235.728271,186.786835 
	C1235.728271,185.454498 1235.740845,184.122009 1235.725586,182.789856 
	C1235.627441,174.261490 1233.766846,171.249237 1228.022827,170.302383 
	C1221.255371,169.186798 1216.129639,172.513611 1213.510254,180.025330 
z"/>
<path fill="#F8F8F8" opacity="1.000000" stroke="none" 
	d="
M1179.308594,319.553497 
	C1176.227905,319.880188 1174.745361,319.170990 1175.058838,316.087585 
	C1175.308838,313.628174 1175.109131,311.123047 1175.109131,308.123169 
	C1177.976074,308.123169 1180.692383,308.123169 1183.870605,308.123169 
	C1183.870605,304.050720 1183.870605,300.468719 1183.870605,296.558319 
	C1188.943848,295.725250 1193.620850,294.957245 1198.737061,294.117126 
	C1198.737061,298.757233 1198.737061,303.035553 1198.737061,307.649719 
	C1204.218262,307.649719 1209.321655,307.649719 1214.787476,307.649719 
	C1214.787476,311.682037 1214.787476,315.381775 1214.787476,319.448761 
	C1209.622681,319.448761 1204.510010,319.448761 1198.984253,319.448761 
	C1198.984253,329.400238 1198.731445,339.014771 1199.093872,348.606049 
	C1199.268311,353.220093 1202.897217,354.556610 1207.032471,353.997894 
	C1209.112549,353.716858 1211.113281,352.848846 1213.486206,352.146698 
	C1214.042236,353.631226 1214.635498,355.136017 1215.171875,356.660797 
	C1217.726807,363.922119 1217.292236,364.688080 1209.638672,366.523438 
	C1194.195557,370.226807 1184.108032,362.291931 1184.029175,346.333191 
	C1183.985718,337.530914 1184.021362,328.728241 1184.021362,319.553619 
	C1182.356323,319.553619 1181.064575,319.553619 1179.308594,319.553497 
z"/>
<path fill="#F9F9F9" opacity="1.000000" stroke="none" 
	d="
M769.744629,333.999268 
	C769.745300,338.989075 769.708984,343.479462 769.755676,347.968964 
	C769.818787,354.035339 770.648376,354.776489 777.344360,354.466309 
	C777.822327,357.957458 778.308167,361.505646 778.884277,365.713715 
	C773.233337,367.737427 767.661072,367.939331 762.240845,365.155273 
	C756.695557,362.306976 755.057739,357.096802 755.032532,351.339600 
	C754.948120,332.049652 754.993347,312.759125 754.989075,293.468842 
	C754.988464,290.654877 754.989014,287.840881 754.989014,284.780273 
	C759.843933,284.780273 764.439453,284.780273 769.744629,284.780273 
	C769.744629,301.081573 769.744629,317.290497 769.744629,333.999268 
z"/>
<path fill="#F8F8F8" opacity="1.000000" stroke="none" 
	d="
M788.367065,333.999329 
	C788.367065,317.372162 788.367065,301.244873 788.367065,284.824341 
	C793.359497,284.824341 797.945740,284.824341 803.094788,284.824341 
	C803.094788,286.804565 803.094727,288.740326 803.094788,290.676117 
	C803.094971,309.504913 803.082642,328.333710 803.102234,347.162506 
	C803.109131,353.803802 804.087097,354.754791 810.880127,354.583984 
	C811.342590,358.103790 811.811157,361.670166 812.265747,365.130066 
	C801.898499,370.881073 790.127380,365.315216 788.874268,353.959991 
	C788.164917,347.532684 788.501526,340.989960 788.367065,333.999329 
z"/>
<path fill="#F8F8F8" opacity="1.000000" stroke="none" 
	d="
M1393.995605,348.008606 
	C1393.989868,353.834961 1393.987427,359.163635 1393.969971,364.492279 
	C1393.968994,364.803833 1393.846680,365.114990 1393.718994,365.718658 
	C1389.067261,365.718658 1384.360962,365.718658 1379.459961,365.718658 
	C1379.459961,346.476562 1379.459961,327.417480 1379.459961,308.138611 
	C1384.137939,308.138611 1388.580933,308.138611 1393.459839,308.138611 
	C1393.586548,310.697296 1393.713623,313.264374 1393.906006,317.150360 
	C1399.398804,307.588562 1406.632935,305.442139 1416.100830,308.892120 
	C1415.208130,313.338715 1414.372070,317.503906 1413.484009,321.927307 
	C1411.856201,321.579010 1410.609497,321.236420 1409.339844,321.052887 
	C1401.390381,319.903625 1396.238770,323.188782 1394.926758,331.116669 
	C1394.038208,336.485718 1394.266724,342.039703 1393.995605,348.008606 
z"/>
<path fill="#040404" opacity="1.000000" stroke="none" 
	d="
M424.614532,320.801971 
	C429.662750,312.846649 440.647552,313.139465 445.688141,318.523224 
	C451.226685,324.438843 450.839600,333.211761 444.633026,338.397949 
	C439.842499,342.400879 432.988373,342.613281 428.065704,338.911469 
	C422.439819,334.680939 421.123749,328.309784 424.614532,320.801971 
z"/>
<path fill="#040404" opacity="1.000000" stroke="none" 
	d="
M394.421204,336.330353 
	C388.111908,342.483124 381.206573,343.227692 375.463898,338.620972 
	C369.957977,334.204163 368.656830,326.489136 372.444611,320.718079 
	C376.420563,314.660217 384.984222,312.682404 390.936798,316.447174 
	C397.689056,320.717773 399.182495,328.557892 394.421204,336.330353 
z"/>
<path fill="#030303" opacity="1.000000" stroke="none" 
	d="
M839.636108,204.821472 
	C826.122375,204.779984 818.894775,198.479706 818.092285,185.462753 
	C817.697449,179.059113 817.933655,172.432434 819.161560,166.156616 
	C820.942688,157.053391 827.764587,152.280182 837.223022,152.094757 
	C846.984802,151.903381 854.282959,156.426468 855.918579,165.790222 
	C857.291077,173.647705 857.329590,181.997879 856.362000,189.935272 
	C855.280273,198.809052 849.123718,203.810944 839.636108,204.821472 
z"/>
<path fill="#030303" opacity="1.000000" stroke="none" 
	d="
M1167.790771,176.244629 
	C1167.204834,181.794525 1167.166870,187.039963 1165.882080,191.959732 
	C1163.672607,200.420410 1157.109497,204.790054 1147.954834,204.886642 
	C1138.770264,204.983521 1132.149048,200.767426 1129.575195,192.489899 
	C1126.695068,183.228287 1126.694214,173.755508 1129.580566,164.493896 
	C1132.163086,156.206635 1138.765381,151.995895 1147.954712,152.092010 
	C1157.105103,152.187698 1163.486206,156.601715 1165.933350,165.010056 
	C1166.945801,168.488831 1167.186279,172.192337 1167.790771,176.244629 
z"/>
<path fill="#040404" opacity="1.000000" stroke="none" 
	d="
M909.863159,366.933899 
	C912.483765,367.085907 914.772095,366.812195 916.728271,367.493073 
	C918.378296,368.067413 920.544739,369.558807 920.847961,370.990479 
	C921.221130,372.752472 920.453918,375.380249 919.207275,376.746796 
	C915.112183,381.235321 899.724548,381.373657 895.427307,376.913574 
	C894.062866,375.497467 893.061035,372.560730 893.583618,370.830322 
	C894.096313,369.132721 896.621155,367.240204 898.507202,366.932983 
	C902.040588,366.357361 905.750488,366.864899 909.863159,366.933899 
z"/>
<path fill="#080808" opacity="1.000000" stroke="none" 
	d="
M916.103027,326.918701 
	C915.124939,333.720947 912.072815,336.443787 906.373779,336.006958 
	C901.134033,335.605408 898.196899,331.893890 898.458130,326.004395 
	C898.705200,320.433350 901.802490,317.220367 907.042664,317.099152 
	C912.575195,316.971161 915.502441,320.004791 916.103027,326.918701 
z"/>
<path fill="#050505" opacity="1.000000" stroke="none" 
	d="
M905.310730,175.490662 
	C909.293701,170.440643 914.171265,169.272797 919.814514,170.881683 
	C925.391174,172.471619 927.784546,176.751755 928.189941,182.059540 
	C928.528076,186.487488 928.587097,191.042542 927.931458,195.415649 
	C926.959595,201.898346 922.632385,205.371597 916.327026,205.712219 
	C910.232971,206.041458 905.400208,202.813873 903.606323,196.646347 
	C901.552734,189.586029 901.595154,182.536377 905.310730,175.490662 
z"/>
<path fill="#0B0B0B" opacity="1.000000" stroke="none" 
	d="
M993.345215,176.940216 
	C993.664612,178.621979 993.871765,179.913345 994.135254,181.556366 
	C985.971191,181.556366 978.102051,181.556366 970.230957,181.562439 
	C970.627380,174.666107 974.075012,170.464020 980.255554,169.347809 
	C986.483337,168.223068 990.735962,170.583099 993.345215,176.940216 
z"/>
<path fill="#0B0B0B" opacity="1.000000" stroke="none" 
	d="
M1153.601807,323.691528 
	C1154.267456,326.105164 1154.735229,328.180267 1155.281982,330.606445 
	C1146.939575,330.606445 1139.068604,330.606445 1131.183594,330.606445 
	C1131.723633,324.127808 1134.392700,320.368500 1139.447998,318.836823 
	C1145.252563,317.078156 1149.815186,318.554535 1153.601807,323.691528 
z"/>
<path fill="#0B0B0B" opacity="1.000000" stroke="none" 
	d="
M973.916626,330.869232 
	C968.346558,330.869232 963.261902,330.869232 958.143799,330.869232 
	C958.922546,322.343109 963.836182,317.759766 971.333191,318.157898 
	C978.300842,318.527863 981.690735,322.524353 981.784241,330.869232 
	C979.323120,330.869232 976.862549,330.869232 973.916626,330.869232 
z"/>
<path fill="#0B0B0B" opacity="1.000000" stroke="none" 
	d="
M858.264038,330.022888 
	C850.411926,330.412842 842.650452,330.412842 834.888367,330.412842 
	C834.955261,323.255524 839.281494,318.561249 846.430298,318.165436 
	C853.707336,317.762573 857.470581,321.381592 858.264038,330.022888 
z"/>
<path fill="#040404" opacity="1.000000" stroke="none" 
	d="
M700.468994,344.060272 
	C700.563477,338.386597 700.157898,332.986328 701.193909,327.878510 
	C702.368042,322.089813 707.011902,319.266510 713.053833,319.189667 
	C719.254639,319.110809 724.331665,322.044495 725.333130,327.969879 
	C726.305664,333.724091 726.333618,339.878021 725.425964,345.643890 
	C724.476318,351.676331 719.578796,354.665100 713.374573,354.730408 
	C706.666443,354.801025 702.875366,351.752625 700.468994,344.060272 
z"/>
<path fill="#040404" opacity="1.000000" stroke="none" 
	d="
M1349.445557,346.092957 
	C1346.405518,352.702728 1342.292969,355.250763 1336.013062,354.676910 
	C1329.799561,354.109131 1325.852783,351.165741 1324.813599,344.556641 
	C1324.006836,339.426849 1324.057861,333.927521 1324.980469,328.818634 
	C1326.186401,322.139496 1331.013428,319.011230 1337.591797,319.193054 
	C1344.297485,319.378418 1349.123047,323.094818 1349.898315,329.923218 
	C1350.487549,335.114044 1349.755127,340.454987 1349.445557,346.092957 
z"/>
</svg>