<svg
  width="158"
  height="50"
  viewBox="0 0 158 50"
  fill="none"
  xmlns="http://www.w3.org/2000/svg"
>
<path
    d="M153.062 49.6875H4.9375C2.22187 49.6875 0 47.4656 0 44.75V5.25C0 2.53437 2.22187 0.3125 4.9375 0.3125H153.062C155.778 0.3125 158 2.53437 158 5.25V44.75C158 47.4656 155.778 49.6875 153.062 49.6875Z"
    fill="black"
  />
<path
    fill-rule="evenodd"
    clip-rule="evenodd"
    d="M12.0968 24.5062V11.5453C12.0968 10.8047 12.714 10.1875 13.3312 10.1875C13.9484 10.1875 14.1952 10.3109 14.5656 10.5578L38.389 23.6422C38.8827 23.8891 39.1296 24.2594 39.1296 24.6297C39.1296 25 38.8827 25.3703 38.389 25.6172L14.5656 38.7016C14.3187 38.825 13.9484 39.0719 13.3312 39.0719C12.714 39.0719 12.0968 38.4547 12.0968 37.7141V24.5062Z"
    fill="url(#paint0_linear_6_256)"
  />
<path
    fill-rule="evenodd"
    clip-rule="evenodd"
    d="M27.5265 24.6297L13.0844 10.1875C13.2078 10.1875 13.2078 10.1875 13.3312 10.1875C13.9484 10.1875 14.1953 10.3109 14.5656 10.5578L32.0937 20.1859L27.5265 24.6297Z"
    fill="url(#paint1_linear_6_256)"
  />
<path
    fill-rule="evenodd"
    clip-rule="evenodd"
    d="M31.9702 28.9499L27.5265 24.5062L32.0937 19.939L38.389 23.3952C38.8827 23.6421 39.1296 24.0124 39.1296 24.3827C39.1296 24.753 38.8827 25.1233 38.389 25.3702L31.9702 28.9499Z"
    fill="url(#paint2_linear_6_256)"
  />
<path
    fill-rule="evenodd"
    clip-rule="evenodd"
    d="M13.2079 38.8251L27.5266 24.5063L31.9704 28.9501L14.5657 38.4548C14.1954 38.7017 13.9485 38.8251 13.2079 38.8251C13.3313 38.8251 13.3313 38.8251 13.2079 38.8251Z"
    fill="url(#paint3_linear_6_256)"
  />
<path
    fill-rule="evenodd"
    clip-rule="evenodd"
    d="M87.764 42.1578C87.1468 41.6641 86.653 40.8 86.4062 40.3063L88.3812 39.4422C88.5046 39.6891 88.7515 40.0594 88.9984 40.4297C89.4921 40.9234 90.2328 41.4172 90.9734 41.4172C91.714 41.4172 92.578 41.0469 93.0718 40.4297C93.4421 39.8125 93.689 39.1953 93.689 38.3312V37.5906C92.2077 39.4422 89.1218 39.1953 87.3937 37.2203C85.5421 35.2453 85.5421 31.9125 87.3937 29.9375C89.2452 28.0859 91.9608 27.8391 93.5655 29.5672V28.7031H95.664V37.9609C95.664 40.3062 94.7999 41.6641 93.689 42.5281C92.9484 43.1453 91.8374 43.3922 90.8499 43.3922C89.739 43.2688 88.6281 42.8984 87.764 42.1578ZM139.484 42.6516L141.583 37.7141L137.88 29.1969H139.978L142.57 35.2453L145.162 29.1969H147.261L141.583 42.6516H139.484ZM129.486 37.9609C128.869 37.3438 128.622 36.4797 128.622 35.6156C128.622 34.875 128.869 34.1344 129.362 33.6406C130.226 32.7766 131.461 32.4062 132.819 32.4062C133.683 32.4062 134.423 32.5297 135.041 32.9C135.041 31.4188 133.806 30.8016 132.819 30.8016C131.955 30.8016 131.091 31.2953 130.72 32.1594L128.869 31.4188C129.239 30.5547 130.226 28.95 132.695 28.95C133.93 28.95 135.164 29.3203 135.905 30.1844C136.645 31.0484 136.892 32.0359 136.892 33.3937V38.5781H134.794V37.7141C134.547 38.0844 134.053 38.3313 133.683 38.5781C133.189 38.825 132.572 38.9484 131.955 38.9484C131.214 38.825 130.103 38.5781 129.486 37.9609ZM63.6937 33.5172C63.6937 31.0484 65.5452 28.3328 68.8781 28.3328C72.0874 28.3328 74.0624 31.0484 74.0624 33.5172C74.0624 35.9859 72.2109 38.7016 68.8781 38.7016C65.5452 38.7016 63.6937 35.9859 63.6937 33.5172ZM74.8031 33.5172C74.8031 31.0484 76.6546 28.3328 79.9874 28.3328C83.1968 28.3328 85.1718 31.0484 85.1718 33.5172C85.1718 35.9859 83.3202 38.7016 79.9874 38.7016C76.7781 38.7016 74.8031 35.9859 74.8031 33.5172ZM49.7452 36.2328C46.6593 33.1469 46.7827 28.0859 49.8687 24.8766C51.4734 23.2719 53.4484 22.5312 55.5468 22.5312C57.5218 22.5312 59.4968 23.2719 60.978 24.7531L59.4968 26.3578C57.2749 24.1359 53.6952 24.2594 51.5968 26.4813C49.3749 28.8266 49.3749 32.4063 51.5968 34.7516C53.8187 37.0969 57.5218 37.2203 59.7437 34.875C60.4843 34.1344 60.7312 33.1469 60.8546 32.1594H55.6702V29.9375H62.953C63.0765 30.4313 63.0765 31.0484 63.0765 31.6656C63.0765 33.5172 62.3359 35.3688 61.1015 36.6031C59.7437 37.9609 57.7687 38.7016 55.7937 38.7016C53.5718 38.5781 51.3499 37.8375 49.7452 36.2328ZM101.959 37.0969C100.108 35.1219 100.108 31.7891 101.959 29.6906C103.811 27.7156 106.897 27.7156 108.625 29.6906C109.242 30.3078 109.612 31.1719 109.983 32.0359L103.194 34.875C103.564 35.7391 104.428 36.4797 105.662 36.4797C106.773 36.4797 107.514 36.1094 108.255 34.9984L110.106 36.2328C109.859 36.4797 109.612 36.7266 109.489 36.9734C107.391 39.0719 103.811 39.0719 101.959 37.0969ZM114.797 38.5781V24.8766H119.241C121.833 24.8766 123.931 26.7281 123.931 28.95C123.931 31.1719 122.08 33.0234 119.734 33.0234H117.019V38.4547H114.797V38.5781ZM125.166 38.5781V24.8766H127.264V38.5781H125.166ZM97.2687 38.3312V23.025H99.4906V38.3312H97.2687ZM134.917 34.5047C134.423 34.1344 133.683 34.0109 132.942 34.0109C131.461 34.0109 130.597 34.7516 130.597 35.6156C130.597 36.4797 131.461 36.9734 132.325 36.9734C133.559 36.9734 134.917 35.9859 134.917 34.5047ZM71.7171 33.5172C71.7171 32.0359 70.7296 30.4313 68.8781 30.4313C67.0265 30.4313 66.039 32.0359 66.039 33.5172C66.039 34.9984 67.0265 36.6031 68.8781 36.6031C70.6062 36.6031 71.7171 34.9984 71.7171 33.5172ZM82.8265 33.5172C82.8265 32.0359 81.839 30.4313 79.9874 30.4313C78.1359 30.4313 77.1484 32.0359 77.1484 33.5172C77.1484 34.9984 78.1359 36.6031 79.9874 36.6031C81.839 36.6031 82.8265 34.9984 82.8265 33.5172ZM93.8124 34.3812C93.8124 34.2578 93.8124 34.1344 93.9359 34.0109C93.9359 33.8875 93.9359 33.6406 93.9359 33.5172C93.9359 33.3938 93.9359 33.1469 93.9359 33.0234V32.9C93.9359 32.7766 93.8124 32.5297 93.8124 32.4062C93.4421 31.1719 92.3312 30.3078 91.2202 30.3078C89.739 30.3078 88.5046 31.7891 88.5046 33.3937C88.5046 35.1219 89.739 36.4797 91.3437 36.4797C92.3312 36.6031 93.3187 35.7391 93.8124 34.3812ZM102.823 33.2703L107.391 31.2953C106.897 30.4312 106.156 30.1844 105.539 30.1844C103.687 30.3078 102.576 32.2828 102.823 33.2703ZM121.709 29.0734C121.709 27.8391 120.722 26.975 119.364 26.975H116.895V31.2953H119.487C120.722 31.2953 121.709 30.3078 121.709 29.0734Z"
    fill="white"
  />
<path
    fill-rule="evenodd"
    clip-rule="evenodd"
    d="M141.09 40.1835H140.966V40.0593H141.09H140.966V40.1835H141.09Z"
    fill="white"
  />
<path
    fill-rule="evenodd"
    clip-rule="evenodd"
    d="M141.336 40.1835C141.336 40.0593 141.336 40.0593 141.336 40.1835C141.212 40.0593 141.212 40.0593 141.336 40.1835C141.212 40.1835 141.212 40.1835 141.336 40.1835ZM141.336 40.0593C141.336 40.1835 141.336 40.1835 141.336 40.0593C141.212 40.1835 141.336 40.1835 141.336 40.0593C141.336 40.0593 141.212 40.0593 141.336 40.0593Z"
    fill="white"
  />
<path
    fill-rule="evenodd"
    clip-rule="evenodd"
    d="M141.46 40.0593H141.336H141.46V40.1835V40.0593Z"
    fill="white"
  />
<path
    d="M48.0172 12.7796C48.0172 10.5578 49.6219 9.19995 51.5969 9.19995C52.9547 9.19995 53.8188 9.81714 54.436 10.6812L53.4485 11.2984C53.0782 10.8046 52.461 10.4343 51.5969 10.4343C50.2391 10.4343 49.2516 11.4218 49.2516 12.9031C49.2516 14.3843 50.2391 15.3718 51.5969 15.3718C52.3375 15.3718 52.9547 15.0015 53.2016 14.7546V13.6437H51.2266V12.5328H54.5594V15.1249C53.9422 15.8656 52.9547 16.3593 51.7203 16.3593C49.6219 16.3593 48.0172 14.8781 48.0172 12.7796Z"
    fill="white"
  />
<path
    d="M56.0406 16.236V9.32349H60.7313V10.4344H57.1516V12.1626H60.6079V13.2735H57.1516V15.2485H60.7313V16.3594L56.0406 16.236Z"
    fill="white"
  />
<path
    d="M64.1874 16.236V10.4344H62.089V9.32349H67.5202V10.4344H65.4218V16.236H64.1874Z"
    fill="white"
  />
<path d="M71.7172 16.236V9.32349H72.9515V16.236H71.7172Z" fill="white" />
<path
    d="M76.2843 16.236V10.4344H74.1859V9.32349H79.6172V10.4344H77.5187V16.236H76.2843Z"
    fill="white"
  />
<path
    d="M83.5673 12.7796C83.5673 10.6812 85.0485 9.19995 87.147 9.19995C89.2454 9.19995 90.7266 10.6812 90.7266 12.7796C90.7266 14.8781 89.2454 16.3593 87.147 16.3593C85.0485 16.3593 83.5673 14.7546 83.5673 12.7796ZM89.3688 12.7796C89.3688 11.2984 88.5048 10.3109 87.0235 10.3109C85.6657 10.3109 84.6782 11.4218 84.6782 12.7796C84.6782 14.2609 85.5423 15.2484 87.0235 15.2484C88.5048 15.2484 89.3688 14.1374 89.3688 12.7796Z"
    fill="white"
  />
<path
    d="M96.8984 16.236L93.3187 11.2985V16.236H92.0844V9.32349H93.3187L96.8984 14.1376V9.32349H98.1328V16.236H96.8984Z"
    fill="white"
  />
<defs>
<linearGradient
      id="paint0_linear_6_256"
      x1="20.08"
      y1="8.42679"
      x2="26.9903"
      y2="36.8062"
      gradientUnits="userSpaceOnUse"
    >
<stop stop-color="#006884" />
<stop offset="1" stop-color="#8AD1D0" />
</linearGradient>
<linearGradient
      id="paint1_linear_6_256"
      x1="11.6533"
      y1="12.4634"
      x2="30.485"
      y2="22.6439"
      gradientUnits="userSpaceOnUse"
    >
<stop stop-color="#24BBB6" />
<stop offset="1" stop-color="#DBE692" />
</linearGradient>
<linearGradient
      id="paint2_linear_6_256"
      x1="33.3211"
      y1="29.4685"
      x2="33.3211"
      y2="19.6572"
      gradientUnits="userSpaceOnUse"
    >
<stop stop-color="#FCC072" />
<stop offset="1" stop-color="#F58A5B" />
</linearGradient>
<linearGradient
      id="paint3_linear_6_256"
      x1="15.2998"
      y1="41.3792"
      x2="30.1761"
      y2="26.2393"
      gradientUnits="userSpaceOnUse"
    >
<stop stop-color="#712B8F" />
<stop offset="1" stop-color="#EA1D27" />
</linearGradient>
</defs>
</svg>
