<svg width="743" height="464" viewBox="0 0 743 464" fill="none" xmlns="http://www.w3.org/2000/svg">
<g clip-path="url(#clip0_312_2)">
<path d="M83.774 35.7554C195.679 -5.8004 309.415 30.9384 386.553 110.954C463.69 190.971 625.576 55.7269 711.431 135.613C770.024 190.13 743.187 330.298 662.846 391.009C553.645 473.528 146.822 476.005 79.3228 447.689C-36.0219 399.301 78.5871 309.694 24.7452 223.798C-38.776 122.46 34.3225 54.1183 83.774 35.7554Z" fill="#E7F3FE"/>
<path d="M713.675 423.831C657.659 421.092 467.104 425.733 409.15 427.541C351.195 429.35 283.924 425.153 248.98 418.984C214.037 412.814 12.0471 419.509 21.2142 436.099C30.3814 452.688 111.208 443.521 202.871 450.187C294.532 456.856 500.682 449.354 547.182 450.187C593.682 451.021 636.323 448.52 696.248 445.186C756.173 441.851 746.145 425.416 713.675 423.829V423.831Z" fill="#CCE2FF"/>
<path opacity="0.5" d="M592.189 58.6662C592.41 56.6864 592.528 54.674 592.528 52.6357C592.528 51.5589 592.493 50.4931 592.43 49.4315L582.466 46.2079C581.852 42.0074 580.648 37.9979 578.94 34.2684L585.546 26.1366C584.018 23.4469 582.267 20.9027 580.313 18.5279L570.35 21.7797C567.446 18.8122 564.128 16.2529 560.486 14.1949L561.052 3.72294C558.272 2.45736 555.364 1.42188 552.354 0.640389L546.201 9.1326C543.803 8.72883 541.34 8.51609 538.827 8.51609C537.114 8.51609 535.424 8.61812 533.761 8.80698L528.064 0C525.013 0.620852 522.055 1.50003 519.214 2.61583L519.227 13.103C515.475 14.9677 512.028 17.3491 508.975 20.156L499.2 16.3831C497.123 18.6538 495.237 21.1025 493.57 23.7053L499.738 32.1758C497.828 35.8184 496.411 39.7584 495.58 43.9112L485.462 46.6051C485.241 48.5849 485.124 50.5973 485.124 52.6357C485.124 53.7124 485.158 54.7804 485.221 55.8398L495.185 59.0634C495.799 63.2639 497.004 67.2734 498.712 71.0029L492.105 79.1347C493.633 81.8244 495.385 84.3686 497.338 86.7434L507.302 83.4916C510.205 86.4591 513.524 89.0184 517.165 91.0764L516.599 101.548C519.379 102.814 522.287 103.852 525.297 104.631L531.45 96.1387C533.848 96.5425 536.311 96.7552 538.825 96.7552C540.537 96.7552 542.228 96.6532 543.89 96.4643L549.587 105.271C552.638 104.65 555.596 103.771 558.437 102.655L558.424 92.1683C562.177 90.3036 565.625 87.9222 568.676 85.1153L578.451 88.8882C580.528 86.6175 582.414 84.1689 584.081 81.566L577.913 73.0956C579.823 69.4529 581.24 65.5129 582.071 61.3601L592.189 58.6662ZM538.827 73.7034C527.194 73.7034 517.764 64.2712 517.764 52.6357C517.764 41.0001 527.194 31.5679 538.827 31.5679C550.459 31.5679 559.889 41.0001 559.889 52.6357C559.889 64.2712 550.459 73.7034 538.827 73.7034Z" fill="#9EC8FF"/>
<path d="M567.554 76.9596C567.309 76.9596 567.064 76.8771 566.862 76.7078C566.402 76.3235 566.339 75.6397 566.721 75.1795C571.971 68.8668 574.862 60.8587 574.862 52.6335C574.862 48.6935 574.217 44.8272 572.948 41.1369C572.752 40.5703 573.054 39.9516 573.62 39.7562C574.187 39.5609 574.805 39.8626 575.001 40.4292C576.348 44.3453 577.034 48.4525 577.034 52.6313C577.034 61.3623 573.965 69.8632 568.392 76.5667C568.177 76.825 567.869 76.9574 567.557 76.9574L567.554 76.9596Z" fill="white"/>
<path d="M564.505 27.235C564.238 27.235 563.971 27.1373 563.761 26.9398C560.234 23.6184 556.148 21.1003 551.616 19.4548C551.052 19.2508 550.761 18.6277 550.965 18.0633C551.169 17.4989 551.792 17.208 552.356 17.4142C557.166 19.1596 561.504 21.8318 565.248 25.3594C565.684 25.7697 565.705 26.4578 565.293 26.8942C565.08 27.1199 564.792 27.235 564.503 27.235H564.505Z" fill="white"/>
<path d="M530.658 18.4541C530.172 18.4541 529.731 18.1263 529.607 17.6335C529.46 17.0517 529.814 16.4613 530.393 16.3158C533.382 15.5604 536.474 15.1783 539.586 15.1783C540.185 15.1783 540.671 15.6646 540.671 16.2637C540.671 16.8629 540.185 17.3491 539.586 17.3491C536.654 17.3491 533.74 17.7095 530.925 18.4215C530.836 18.4432 530.747 18.4541 530.658 18.4541Z" fill="white"/>
<path opacity="0.5" d="M506.347 0.154129H170.728V201.796H506.347V0.154129Z" fill="#9EC8FF"/>
<path d="M502.833 5.07318H187.078V190.185H502.833V5.07318Z" fill="white"/>
<path d="M456.329 100.741C471.375 86.4135 497.093 86.7391 496.55 108.556C496.008 130.372 497.809 132.424 504.001 143.868C525.486 183.579 478.392 181.243 458.751 182.546C439.11 183.848 440.738 146.836 444.21 126.322C447.682 105.807 451.925 104.935 456.327 100.743L456.329 100.741Z" fill="#303C60"/>
<path d="M463.343 225.829C458.519 266.352 449.753 296.309 448.776 315.519C447.8 334.73 443.893 410.37 443.893 410.37C443.893 410.37 454.636 409.619 455.613 407.991C456.589 406.363 475.796 363.709 474.819 337.335C473.843 310.962 494.002 270.861 494.002 270.861L489.143 231.515L463.345 225.832L463.343 225.829Z" fill="#4476BD"/>
<path d="M467.977 243.472L460.433 246.63C458.382 259.479 456.107 271.032 454.109 281.281C466.114 289.046 472.317 314.911 474.974 330.725C476.328 313.031 484.675 291.648 489.853 279.824L467.977 243.474V243.472Z" fill="#3E6BAB"/>
<path d="M502.813 221.746C502.813 221.746 519.073 242.493 518.563 266.029C517.786 301.858 513.88 312.087 520.677 349.655C523.331 364.327 514.817 412.326 514.817 412.326C514.817 412.326 507.545 412.897 503.638 410.952C503.964 407.424 498.937 350.056 489.149 323.683C484.41 310.912 477.747 275.146 474.166 254.634C470.585 234.12 469.934 229.889 471.236 229.889C472.538 229.889 502.811 221.748 502.811 221.748L502.813 221.746Z" fill="#4476BD"/>
<path d="M410.176 164.129C410.176 164.129 410.899 153.394 409.742 150.077C408.585 146.762 398.602 143.866 398.602 143.866C398.602 143.866 398.168 159.207 399.182 161.087C400.195 162.967 406.126 168.323 406.126 168.323L410.178 164.126L410.176 164.129Z" fill="#F09959"/>
<path d="M466.312 156.307C443.453 180.918 435.994 191.272 434.257 191.272C428.832 181.693 410.81 161.432 410.81 161.432L403.125 166.373C403.125 166.373 420.882 212.779 432.167 213.258C443.453 213.738 466.39 197.255 466.683 195.362C466.974 193.469 466.312 156.307 466.312 156.307Z" fill="#A2DFF2"/>
<path d="M442.472 210.851C453.653 206.297 466.466 196.773 466.683 195.36C466.974 193.467 466.312 156.305 466.312 156.305C461.329 161.669 456.978 166.427 453.204 170.589C449.108 185.843 449.375 202.45 442.472 210.849V210.851Z" fill="#96CFE0"/>
<path d="M489.534 140.104C489.534 140.104 511.408 151.071 516.182 170.485C520.957 189.898 506.828 213.881 505.092 226.68C503.356 239.48 463.426 241.731 463.426 228.031C463.426 214.331 453.421 187.015 453.985 179.915C455.309 163.252 479.661 142.839 479.661 142.839L489.534 140.106V140.104Z" fill="#A2DFF2"/>
<path d="M483.177 114.955L492.568 143.92C492.568 143.92 482.541 151.659 465.381 170.278C466.047 157.89 476.425 144.383 476.425 144.383L469.322 117.031L483.179 114.955H483.177Z" fill="#F09959"/>
<path d="M487.559 128.466L483.179 114.955L469.322 117.031L476.425 144.383C476.425 144.383 475.733 145.488 474.709 147.227C481.4 142.258 485.506 136.075 487.557 128.464L487.559 128.466Z" fill="#E38540"/>
<path d="M478.003 121.494C475.47 130.711 465.663 135.786 458.692 133.87C451.723 131.953 450.232 123.773 452.765 114.556C455.298 105.339 463 99.4188 469.971 101.336C476.94 103.252 480.536 112.277 478.003 121.494Z" fill="#F09959"/>
<path d="M461.681 215.045C464.721 234.32 453.431 275.554 453.431 275.554C453.431 275.554 460.164 277.084 480.347 275.131C500.53 273.177 509.428 253.028 512.467 252.465C515.505 251.903 517.065 271.217 518.565 272.743C520.063 274.269 520.293 248.354 516.373 238.166C509.428 220.107 510.789 212.446 513.385 201.503C518.001 182.049 461.681 215.047 461.681 215.047V215.045Z" fill="#A2DFF2"/>
<path d="M444.384 400.884C446.2 408.271 442.613 414.132 437.81 418.402C433.903 421.875 421.895 423.352 422.473 425.088C423.052 426.825 437.23 427.376 442.005 426.651C446.78 425.928 448.082 423.612 454.024 423.614C457.92 423.614 458.642 420.447 456.906 416.529C455.17 412.613 454.562 410.446 456.131 406.934C457.7 403.423 444.381 400.881 444.381 400.881L444.384 400.884Z" fill="#4476BD"/>
<path d="M515.238 400.884C514.95 408.553 514.058 414.269 515.939 417.822C523.203 423.901 529.241 430.804 526.936 431.282C515.939 433.552 511.744 426.962 505.522 425.086C497.887 422.787 506.245 413.19 503.254 400.881C501.592 394.039 514.783 395.678 514.783 395.678L515.238 400.881V400.884Z" fill="#4476BD"/>
<path d="M518.014 244.451C517.576 242.045 517.033 239.881 516.373 238.164C509.428 220.105 510.789 212.444 513.385 201.501C513.589 200.639 513.671 199.882 513.647 199.218C514.233 197.266 514.778 195.288 515.258 193.3L512.901 172.017L495.906 151.829C483.168 170.498 491.765 193.725 489.853 206.533C487.943 219.341 466.601 235.672 466.601 235.672L467.295 240.215C468.248 246.45 474.025 250.779 480.269 249.912C489.065 248.692 500.604 246.237 505.739 241.472C510.709 236.859 515.108 240.428 518.014 244.453V244.451Z" fill="#96CFE0"/>
<path d="M471.592 234.938C471.592 234.938 462.171 237.576 461.045 238.164C459.918 238.754 459.296 241.87 459.296 241.87C459.296 241.87 453.902 246.554 455.969 248.213C458.035 249.871 461.724 254.072 466.603 252.118C469.598 250.92 471.918 239.916 473.88 239.827C475.844 239.738 471.592 234.94 471.592 234.94V234.938Z" fill="#F09959"/>
<path d="M498.273 149.367C508.356 149.654 517.5 167.819 520.685 183.579C523.871 199.339 527.224 221.744 527.224 221.744C527.224 221.744 510.513 234.936 494.002 238.791C479.598 242.154 472.245 243.47 472.245 243.47L469.324 235.244L503.788 214.997C503.788 214.997 491.116 191.118 489.855 173.1C488.596 155.083 490.612 149.15 498.275 149.367H498.273Z" fill="#A2DFF2"/>
<path d="M401.278 140.222L376.142 145.269L379.346 161.236L404.482 156.189L401.278 140.222Z" fill="#F5DC95"/>
<path d="M404.13 162.826C404.477 156.222 401.207 147.214 399.325 147.227C397.443 147.24 399.904 153.129 398.891 157.036C398.342 159.153 404.13 162.826 404.13 162.826Z" fill="#F09959"/>
<path d="M454.614 104.214C455.172 122.303 476.297 120.916 482.083 119.803C487.871 118.687 475.038 157.968 486.061 160.234C494.156 161.899 492.333 149.232 501.325 150.079C505.303 150.455 509.302 156.604 509.302 156.604C509.302 156.604 508.704 152.814 505.665 150.079C502.627 147.342 494.662 130.555 492.568 118.544C490.473 106.533 476.295 98.7632 472.1 98.5223C467.905 98.2813 457.631 103.057 457.631 103.057L454.612 104.214H454.614Z" fill="#303C60"/>
<path d="M485.875 164.328C485.588 164.328 485.299 164.298 485.004 164.235C481.475 163.484 479.765 159.774 479.62 152.562C479.496 146.38 480.516 138.446 481.599 130.047C482.035 126.654 482.489 123.144 482.86 119.746C482.893 119.455 483.151 119.245 483.444 119.277C483.735 119.31 483.943 119.57 483.913 119.861C483.539 123.27 483.086 126.784 482.649 130.184C480.557 146.436 478.58 161.786 485.226 163.202C485.432 163.245 485.638 163.267 485.844 163.267C489.662 163.267 493.099 155.825 495.105 148.577C495.183 148.295 495.474 148.13 495.756 148.208C496.038 148.286 496.203 148.577 496.125 148.859C494.803 153.643 491.244 164.328 485.879 164.33L485.875 164.328Z" fill="#303C60"/>
<path d="M484.462 168.533C483.259 168.533 482.211 168.066 481.337 167.144C474.136 159.531 481.256 121.327 481.562 119.705C481.617 119.418 481.894 119.23 482.181 119.284C482.467 119.338 482.656 119.614 482.602 119.903C482.528 120.296 475.273 159.194 482.105 166.419C482.899 167.259 483.839 167.593 484.978 167.443C488.718 166.948 490.877 161.875 492.78 157.397C494.627 153.053 496.366 148.952 499.46 149.059C499.751 149.07 499.981 149.315 499.97 149.606C499.96 149.899 499.714 150.133 499.424 150.116C499.397 150.116 499.371 150.116 499.348 150.116C497.028 150.116 495.437 153.856 493.753 157.811C491.737 162.55 489.453 167.919 485.115 168.492C484.892 168.522 484.672 168.535 484.46 168.535L484.462 168.533Z" fill="#303C60"/>
<path d="M482.867 123.276C481.378 125.195 479.045 125.877 477.656 124.8C476.267 123.721 476.347 121.292 477.836 119.373C479.325 117.454 481.658 116.772 483.047 117.849C484.436 118.928 484.355 121.357 482.867 123.276Z" fill="#F09959"/>
<path d="M318.737 190.265C323.893 200.581 319.624 212.459 309.483 216.656C299.274 220.88 288.11 218.481 282.953 208.166C277.797 197.85 281.627 185.481 291.509 180.538C301.39 175.595 313.582 179.949 318.739 190.265H318.737Z" fill="#303C60"/>
<path d="M290.936 217.895C289.796 217.895 287.555 217.494 284.701 214.96C282.361 212.883 280.679 209.698 279.97 205.995C279.073 201.319 279.657 195.942 281.706 190.013C281.801 189.738 282.101 189.59 282.379 189.685C282.654 189.781 282.802 190.083 282.706 190.358C280.718 196.109 280.147 201.301 281.009 205.795C281.675 209.273 283.236 212.247 285.404 214.17C289.019 217.381 291.446 216.797 291.472 216.79C291.752 216.716 292.043 216.884 292.119 217.161C292.195 217.441 292.034 217.73 291.756 217.808C291.719 217.819 291.433 217.895 290.938 217.895H290.936Z" fill="#303C60"/>
<path d="M306.707 230.406C312.577 231.721 319.987 248.035 323.615 258.487C327.274 269.029 333.479 282.106 337.542 286.169C341.605 290.233 368.297 299.652 368.297 299.652C368.297 299.652 302.345 299.78 303.695 299.65C305.047 299.52 306.707 230.408 306.707 230.408V230.406Z" fill="#A8CEFF"/>
<path d="M341.72 294.41C338.108 293.893 325.085 295.571 330.63 293.248C336.175 290.926 335.402 287.96 335.402 287.96C335.402 287.96 327.535 294.538 326.118 288.785C324.894 283.825 324.427 266.313 319.785 248.76C315.95 240.057 310.93 231.35 306.709 230.403C306.709 230.403 306.562 236.584 306.316 245.25C307.935 264.427 310.685 292.599 311.382 299.7C320.124 299.713 334.753 299.7 346.993 299.685L355.134 299.296C355.134 299.296 345.333 294.924 341.722 294.41H341.72Z" fill="#93BBF0"/>
<path d="M285.128 226.789C285.128 226.789 266.457 237.224 262.106 239.443C257.755 241.661 274.299 306.796 277.979 309.588C281.658 312.38 314.053 310.068 317.743 306.551C321.43 303.034 314.913 292.241 318.105 270.631C321.298 249.02 308.369 230.362 306.709 230.403C305.049 230.445 294.211 226.789 294.211 226.789H285.13H285.128Z" fill="#A8CEFF"/>
<path d="M277.979 309.588C281.658 312.38 304.841 312.443 314.707 309.371C315.82 309.024 320.877 307.009 320.996 305.114C319.804 304.89 315.078 305.459 313.157 305.016C306.483 303.482 302.809 295.213 302.809 295.213C302.809 295.213 299.135 293.891 290.914 290.409C282.693 286.927 286.079 276.381 285.886 271.738C285.692 267.094 277.762 251.905 262.868 240.393L261.501 241.006C260.437 251.59 274.576 307.005 277.981 309.588H277.979Z" fill="#93BBF0"/>
<path d="M406.248 258.485H361.291L340.817 302.068H390.336L408.87 262.616C409.772 260.693 408.37 258.485 406.248 258.485Z" fill="#75A1DE"/>
<path d="M343.497 302.687H316.445C314.767 302.687 313.406 301.326 313.406 299.648C313.406 297.97 314.767 296.609 316.445 296.609H341.557L358.537 260.057C359.244 258.535 361.05 257.875 362.574 258.581C364.095 259.288 364.755 261.094 364.049 262.618L346.253 300.929C345.754 302.001 344.68 302.687 343.497 302.687Z" fill="#3E6BAB"/>
<path d="M296.587 293.376C308.322 295.569 311.208 298.265 317.604 299.296C324.855 300.466 323.993 302.068 318.606 302.068C313.22 302.068 299.686 302.277 295.042 301.246C290.397 300.214 296.587 293.376 296.587 293.376Z" fill="#F09959"/>
<path d="M260.639 240.665C251.645 269.428 238.895 302.066 240.927 302.066C242.958 302.066 294.601 304.155 296.633 302.416C298.664 300.677 298.085 294.002 297.794 293.131C297.503 292.261 268.432 287.101 268.432 287.101C268.432 287.101 272.261 279.637 273.71 265.054C275.16 250.47 262.345 235.21 260.639 240.665Z" fill="#A8CEFF"/>
<path d="M291.966 201.794L284.722 228.276C284.722 228.276 296.965 247.39 300.331 245.692C303.697 243.995 298.449 230.156 298.449 228.276C298.449 226.396 303.697 206.993 303.697 206.993L291.969 201.794H291.966Z" fill="#F09959"/>
<path d="M298.699 229.626C298.542 228.999 298.447 228.53 298.447 228.276C298.447 226.396 303.695 206.993 303.695 206.993L291.967 201.794L289.568 210.558C291.663 219.61 295.441 225.641 298.699 229.626Z" fill="#E38540"/>
<path d="M319.075 201.358C320.456 209.036 319.546 219.237 312.729 221.829C305.913 224.423 297.7 219.46 294.389 210.749C291.077 202.035 293.918 192.87 300.734 190.278C307.551 187.686 317.428 192.184 319.075 201.358Z" fill="#F09959"/>
<path d="M296.003 205.678C296.958 208.363 296.129 211.109 294.15 211.815C292.171 212.52 289.792 210.914 288.835 208.231C287.88 205.545 288.709 202.799 290.688 202.094C292.668 201.388 295.046 202.995 296.003 205.678Z" fill="#F09959"/>
<path d="M319.156 191.709C316.836 209.729 294.946 207.408 294.946 207.408C294.946 207.408 290.432 201.473 288.401 204.586C286.369 207.699 291.218 186.316 303.777 185.643C307.903 185.422 319.153 191.711 319.153 191.711L319.156 191.709Z" fill="#303C60"/>
<path d="M285.054 195.217C291.601 195.217 296.908 190.236 296.908 184.091C296.908 177.947 291.601 172.966 285.054 172.966C278.508 172.966 273.2 177.947 273.2 184.091C273.2 190.236 278.508 195.217 285.054 195.217Z" fill="#303C60"/>
<path d="M261.442 433.003H264.153L281.656 351.88H275.692L261.442 433.003Z" fill="#2E5B9A"/>
<path d="M345.722 433.003H343.011L322.639 349.012H328.603L345.722 433.003Z" fill="#2E5B9A"/>
<path d="M292.37 354.919C281.51 354.919 274.63 352.967 270.24 348.691C264.797 343.388 263.671 335.173 263.656 324.471C263.642 316.048 263.443 310.563 262.985 306.128C262.813 304.458 264.027 302.965 265.696 302.793C267.364 302.622 268.858 303.835 269.029 305.505C269.507 310.152 269.717 315.823 269.73 324.46C269.747 335.308 271.121 341.065 274.479 344.336C277.921 347.69 284.147 349.075 294.658 348.812C304.808 348.563 311.794 347.141 317.408 345.999C324.792 344.499 330.128 343.414 336.455 346.438C337.969 347.16 338.61 348.975 337.887 350.49C337.164 352.006 335.35 352.646 333.835 351.923C329.345 349.776 325.536 350.551 318.619 351.958C312.771 353.148 305.494 354.626 294.807 354.891C293.974 354.91 293.16 354.921 292.368 354.921L292.37 354.919Z" fill="#2E5B9A"/>
<path d="M267.701 302.418L284.323 303.11L279.898 349.016C279.898 349.016 267.508 341.106 267.701 332.592C267.894 324.078 267.701 302.42 267.701 302.42V302.418Z" fill="#2E5B9A"/>
<path d="M349.756 306.694C363.813 304.56 368.587 305.233 377.19 321.247C385.791 337.259 397.243 366.092 403.828 369.815C413.744 375.422 417.03 389.172 421.101 388.553C425.172 387.935 427.792 389.737 423.362 393.418C418.933 397.102 411.778 400.237 409.332 399.583C406.886 398.93 404.989 388.356 398.598 384.924C392.208 381.49 394.127 378.67 394.548 375.633C394.967 372.596 375.897 358.616 361.519 341.228C352.734 330.604 348.211 323.59 347.54 317.234C346.87 310.877 349.756 306.694 349.756 306.694Z" fill="#F09959"/>
<path d="M384.6 364.757C381.335 356.473 378.061 342.801 374.983 330.267C370.606 312.443 366.018 308.21 363.112 306.308C359.598 305.427 355.433 305.83 349.756 306.692C349.756 306.692 346.87 310.875 347.54 317.231C348.211 323.588 352.734 330.601 361.519 341.225C369.089 350.38 377.959 358.59 384.602 364.757H384.6Z" fill="#E38540"/>
<path d="M354.036 320.787C354.036 320.787 350.296 349.012 346.813 351.88C344.322 353.931 342.557 354.068 340.817 345.65C339.076 337.231 343.525 305.813 343.525 305.813L354.036 320.785V320.787Z" fill="#2E5B9A"/>
<path d="M351.056 336.059L316.445 341.877L335.986 313.852L350.856 310.823L359.774 312.875L351.056 336.059Z" fill="#F09959"/>
<path d="M394.546 375.633C393.424 380.157 393.558 383.5 395.509 385.174C397.458 386.849 404.826 399.299 404.826 399.299L407.12 398.952L401.807 387.559L394.548 375.633H394.546Z" fill="#2E5B9A"/>
<path d="M409.33 399.583C411.775 400.237 418.931 397.102 423.36 393.418C427.79 389.734 425.17 387.935 421.099 388.553C420.869 388.588 420.643 388.573 420.417 388.519C418.384 393.062 411.695 396.47 409.538 391.671C407.4 386.915 398.235 377.448 394.544 375.422C394.552 375.496 394.554 375.568 394.546 375.633C394.127 378.67 392.206 381.49 398.595 384.924C404.985 388.358 406.882 398.93 409.33 399.583Z" fill="#2E5B9A"/>
<path d="M279.112 307.823C266.833 329.866 275.221 343.876 290.146 345.302C305.07 346.731 328.631 344.004 342.366 332.588C356.1 321.171 367.374 309.102 365.799 307.3C364.223 305.498 279.112 307.821 279.112 307.821V307.823Z" fill="#E38540"/>
<path d="M348.749 324.269C351.264 316.724 354.162 310.934 359.774 310.83C365.675 310.719 369.304 313.791 369.557 323.446C369.857 334.945 370.263 373.026 369.731 389.958C369.33 402.774 373.065 406.879 372.748 420.241C372.511 430.305 383.237 425.221 379.094 430.439C376.244 434.028 367.763 432.855 362.554 432.191C357.912 431.601 364.957 417.686 358.533 413.965C353.02 410.772 352.912 405.59 356.393 401.665C359.874 397.743 356.779 386.133 354.459 378.006C352.137 369.88 348.539 361.088 346.173 341.872C345.498 336.395 347.212 328.874 348.749 324.265V324.269Z" fill="#F09959"/>
<path d="M375.424 426.332C373.646 426.875 371.456 427.472 369.547 427.535C365.677 427.663 364.518 423.408 364.26 417.625C364.034 412.576 360.369 404.626 356.61 401.4C356.54 401.492 356.469 401.583 356.395 401.667C352.914 405.59 353.022 410.774 358.535 413.967C364.959 417.688 357.914 431.603 362.556 432.193C367.765 432.855 376.248 434.03 379.096 430.441C381.789 427.051 378.447 426.779 375.426 426.334L375.424 426.332Z" fill="#2E5B9A"/>
<path d="M357.263 400.23C357.263 400.23 351.62 406.124 352.137 408.575C352.653 411.026 354.392 417.217 354.683 421.99C354.973 426.764 355.232 432.241 355.232 432.241C355.232 432.241 357.263 432.241 357.424 431.664C357.584 431.086 358.713 412.265 358.713 412.265L357.261 400.23H357.263Z" fill="#2E5B9A"/>
<path d="M273.198 305.815C273.198 305.815 265.915 336.734 275.117 345.304C284.319 353.875 322.532 346.166 331.533 345.652C337.627 345.304 343.525 352.744 343.525 352.744C343.525 352.744 339.269 335.495 342.171 321.562C345.073 307.632 349.754 306.694 349.754 306.694L343.523 305.817H273.196L273.198 305.815Z" fill="#75A1DE"/>
<path d="M271.549 297.731C274.663 304.341 268.196 315.757 270.464 319.046C272.729 322.335 285.705 319.506 294.208 312.662C302.711 305.815 318.806 304.311 318.806 304.311L271.549 297.731Z" fill="#A8CEFF"/>
<path d="M284.722 354.066C310.451 355.034 337.531 354.576 337.531 350.742C337.531 346.909 336.37 344.199 316.447 345.747C296.524 347.295 282.984 349.425 276.987 348.07C270.991 346.715 284.724 354.068 284.724 354.068L284.722 354.066Z" fill="#2E5B9A"/>
<path d="M559.073 302.068H196.595C195.047 302.068 193.793 303.323 193.793 304.871V306.271C193.793 307.819 195.047 309.074 196.595 309.074H559.073C560.62 309.074 561.875 307.819 561.875 306.271V304.871C561.875 303.323 560.62 302.068 559.073 302.068Z" fill="#2E5B9A"/>
<path d="M607.237 208.181C609.731 216.97 603.643 226.027 596.937 227.931C590.231 229.832 585.446 223.861 582.954 215.073C580.463 206.283 583.877 197.618 590.583 195.714C597.289 193.81 604.746 199.393 607.237 208.183V208.181Z" fill="#F09959"/>
<path d="M569.64 378.492C569.64 378.492 586.826 405.191 589.146 406.352C591.468 407.513 597.269 407.802 595.095 412.157C592.918 416.509 592.048 433.633 590.016 434.503C587.985 435.373 570.577 437.405 573.188 434.503C575.799 431.601 577.405 433.053 578.722 427.828C580.04 422.605 581.891 412.736 579.426 410.704C576.96 408.673 561.873 390.39 561.873 390.39L569.638 378.492H569.64Z" fill="#F09959"/>
<path d="M483.142 389.958C483.142 389.958 462.251 424.398 458.382 427.494C454.512 430.589 441.747 435.232 452.192 436.007C462.638 436.782 467.666 432.525 474.244 430.589C480.82 428.655 488.945 427.493 485.851 422.464C482.756 417.434 484.041 406.452 490.714 399.486C497.386 392.52 483.144 389.958 483.144 389.958H483.142Z" fill="#F09959"/>
<path d="M589.752 310.096C589.752 310.096 538.037 308.744 517.532 325.574C505.539 343.761 476.525 397.423 474.27 403.337C475.818 404.884 484.523 407.678 488.392 407.29C499.805 393.679 514.889 381.911 520.889 371.235C528.284 358.077 530.56 351.5 542.555 350.339C554.548 349.177 581.628 345.309 589.754 345.309C597.879 345.309 589.754 310.094 589.754 310.094L589.752 310.096Z" fill="#6791C9"/>
<path d="M634.85 436.101H632.139L612.7 354.975H618.664L634.85 436.101Z" fill="#2E5B9A"/>
<path d="M553.645 436.101H556.356L578.662 352.108H572.698L553.645 436.101Z" fill="#2E5B9A"/>
<path d="M619.215 306.551L589.148 311.742C589.148 311.742 549.194 312.108 530.929 315.512C514.314 318.608 511.866 337.492 530.929 363.496C541.759 378.268 550.915 390.051 569.64 403.337C574.404 399.84 576.224 398.515 577.542 390.099C576.185 388.241 572.678 376.607 571.589 374.33C561.232 352.674 547.408 344.799 547.215 342.669C549.537 338.896 608.698 362.334 620.461 348.548C631.692 335.384 619.213 306.551 619.213 306.551H619.215Z" fill="#75A1DE"/>
<path d="M620.463 238.466C612.544 237.354 604.479 238.859 596.937 244.323C590.346 251.043 582.889 262.125 583.345 280.406C583.924 303.623 579.753 305.114 584.105 311.498C602.257 318.996 633.3 351.209 625.991 316.674C620.697 291.668 637.601 273.027 623.964 245.289C622.855 243.031 621.468 240.841 620.463 238.466Z" fill="#F37168"/>
<path d="M583.339 289.143C582.985 301.248 581.277 304.812 582.583 308.607C589.984 309.362 603.52 312.323 606.901 317.062C610.771 322.48 614.638 323.253 612.832 319.255C611.027 315.256 606.257 309.582 613.607 290.103C620.958 270.626 624.439 257.469 617.218 243.925L583.339 289.143Z" fill="#D54A41"/>
<path d="M620.463 238.466C615.586 226.919 614.389 213.946 614.389 213.946L601.623 217.719C601.623 217.719 608.876 233.97 601.914 239.775C600.434 241.008 598.717 242.506 596.938 244.32C604.479 238.859 612.546 237.352 620.463 238.464V238.466Z" fill="#F09959"/>
<path d="M614.775 217.022C614.02 216.35 613.073 215.509 612.079 214.63L601.666 217.708C601.66 217.728 601.651 217.745 601.645 217.765C601.897 218.34 604.549 224.531 604.898 230.486C608.001 228.604 611.398 225.532 615.283 220.168C615.072 218.978 614.905 217.917 614.775 217.022Z" fill="#E38540"/>
<path d="M611.487 242.098C598.337 246.697 599.796 260.552 587.697 280.985C581.433 291.559 575.617 291.403 575.617 291.403C575.617 291.403 560.929 291.52 543.165 289.347C532.04 287.986 531.335 291.299 539.072 294.067C554.676 299.648 570.868 305.655 583.925 304.202C596.981 302.752 619.311 269.43 620.463 260.756C622.056 248.76 618.111 239.779 611.487 242.095V242.098Z" fill="#F09959"/>
<path d="M604.72 358.014C603.904 358.014 603.071 358.004 602.211 357.982C591.525 357.717 584.248 356.239 578.399 355.049C571.485 353.643 567.674 352.87 563.184 355.014C561.669 355.737 559.857 355.097 559.132 353.582C558.409 352.066 559.049 350.254 560.564 349.529C566.89 346.505 572.225 347.59 579.61 349.09C585.225 350.232 592.211 351.652 602.361 351.904C613.792 352.186 620.784 350.473 624.357 346.509C627.547 342.971 628.487 337.071 627.312 327.944C626.915 324.853 626.518 322.283 626.167 320.014C625.183 313.652 624.532 309.449 625.335 302.969C626.084 296.928 628.087 288.87 632.729 273.233C633.207 271.625 634.898 270.709 636.508 271.184C638.116 271.662 639.034 273.353 638.557 274.964C629.876 304.211 630.316 307.066 632.174 319.085C632.53 321.389 632.933 324 633.341 327.167C634.759 338.184 633.337 345.624 628.871 350.577C624.268 355.683 616.763 358.008 604.72 358.008V358.014Z" fill="#2E5B9A"/>
<path d="M484.564 418.984C470.702 425.766 463.241 429.651 458.798 429.28C457.75 429.193 456.88 429.085 456.151 428.972C451.207 431.894 443.316 435.347 452.194 436.005C462.64 436.78 467.668 432.523 474.246 430.587C480.822 428.653 488.948 427.491 485.853 422.462C485.26 421.498 484.828 420.315 484.566 418.984H484.564Z" fill="#D54A41"/>
<path d="M590.659 406.919C590.32 417.896 588.812 428.774 582.099 430.83C580.32 431.375 578.699 431.453 577.264 431.262C576.209 432.567 574.92 432.582 573.19 434.503C570.58 437.405 587.987 435.373 590.019 434.503C592.05 433.633 592.92 416.509 595.097 412.157C596.885 408.581 593.289 407.746 590.661 406.919H590.659Z" fill="#D54A41"/>
<path d="M537.264 302.687H493.227C492.045 302.687 490.97 302.001 490.471 300.929L472.675 262.618C471.967 261.096 472.629 259.288 474.151 258.58C475.672 257.873 477.48 258.535 478.187 260.057L495.168 296.609H537.266C538.944 296.609 540.305 297.97 540.305 299.648C540.305 301.326 538.944 302.687 537.266 302.687H537.264Z" fill="#75A1DE"/>
<path d="M546.477 289.732C537.579 289.604 528.755 284.298 524.371 285.071C519.987 285.846 505.672 295.777 507.477 296.164C509.283 296.55 520.631 290.667 521.018 290.578C521.404 290.489 523.854 294.653 529.916 296.183C535.977 297.714 529.959 291.64 548.747 297.314C560.963 301.005 546.479 289.732 546.479 289.732H546.477Z" fill="#F09959"/>
<path d="M619.154 227.929L620.463 238.466C620.463 238.466 608.95 239.152 603.218 242.375C597.489 245.601 589.033 254.916 589.033 254.916L595.941 243.02L596.935 235.409L619.152 227.929H619.154Z" fill="#F2E5DE"/>
<path d="M614.254 240.828C605.701 239.226 601.745 246.891 596.2 259.401C590.655 271.914 581.188 287.109 579.306 289.07C577.425 291.03 547.584 289.07 547.584 289.07C547.584 289.07 546.681 297.712 547.584 298.743C548.486 299.774 553.645 299.646 553.645 299.646C553.645 299.646 555.709 301.293 557.643 302.598C559.576 303.903 575.955 306.354 583.562 305.967C591.171 305.581 598.133 304.936 599.166 303.775C600.197 302.613 620.96 270.624 622.249 259.145C623.538 247.666 618.618 241.646 614.254 240.828Z" fill="#F2E5DE"/>
<path d="M589.033 188.201C572.858 188.976 575.395 213.315 575.395 213.315C575.395 213.315 579.597 214.613 588.397 213.161C587.72 210.549 588.011 203.874 588.011 203.874C588.011 203.874 589.033 209.292 590.333 212.581C592.193 213.434 594.298 212.679 597.877 211.813C599.715 219.547 604.906 222.814 608.464 223.932C612.392 225.167 616.55 226.641 621.192 224.319C625.834 221.996 623.282 198.262 620.817 193.491C617.116 186.327 610.966 179.915 600.327 183.301C594.993 184.999 589.035 188.203 589.035 188.203L589.033 188.201Z" fill="#303C60"/>
<path d="M617.162 217.107L623.775 226.769C623.775 226.769 616.446 245.087 637.762 253.384C654.456 259.883 652.49 271.334 644.946 282.85C637.402 294.366 649.46 304.424 649.46 304.424C649.46 304.424 651.298 291.666 667.519 289.258C689.633 285.976 695.897 256.275 679.377 241.425C665.709 229.136 661.548 239.312 652.296 228.285C643.045 217.257 625.576 224.705 625.576 224.705L619.174 215.366L617.162 217.107Z" fill="#303C60"/>
<path d="M686.983 271.282C686.897 271.282 686.81 271.26 686.73 271.217C686.473 271.076 686.38 270.754 686.519 270.498C692.092 260.308 687.546 247.963 685.256 244.62C685.015 244.266 684.785 243.908 684.542 243.53C682.294 240.02 679.494 235.65 664.578 232.965C661.005 232.322 658.106 230.193 655.037 227.939C648.674 223.266 641.462 217.971 625.793 225.185C625.528 225.306 625.214 225.191 625.092 224.926C624.971 224.662 625.086 224.347 625.35 224.225C641.586 216.751 649.065 222.243 655.662 227.089C658.629 229.268 661.431 231.326 664.764 231.925C680.134 234.693 683.073 239.278 685.432 242.961C685.67 243.333 685.894 243.684 686.128 244.025C687.506 246.04 689.21 250.214 689.907 254.996C690.512 259.145 690.575 265.288 687.446 271.008C687.35 271.184 687.168 271.284 686.981 271.284L686.983 271.282Z" fill="#303C60"/>
<path d="M613.629 226.947C612.574 226.947 611.433 226.856 610.202 226.672C604.564 225.827 597 222.619 596.406 204.601C596.397 204.31 596.625 204.065 596.916 204.056C597.215 204.043 597.452 204.275 597.46 204.566C597.706 212.025 599.188 217.546 601.862 220.976C603.897 223.587 606.597 225.063 610.356 225.628C615.621 226.416 619.111 225.439 620.732 222.725C620.882 222.476 621.207 222.393 621.457 222.543C621.707 222.693 621.789 223.018 621.639 223.268C620.177 225.717 617.488 226.95 613.625 226.95L613.629 226.947Z" fill="#303C60"/>
<path d="M108.827 239.734C90.0548 250.47 63.9423 295.107 69.4547 302.39C74.9672 309.675 104.561 290.52 104.561 290.52L108.827 239.734Z" fill="#96CFE0"/>
<path d="M143.903 187.971C136.735 187.775 139.396 182.446 131.151 184.573C126.817 185.691 130.016 187.476 124.386 186.896C118.756 186.316 115.985 185.735 115.275 189.412C114.566 193.087 114.223 194.249 111.514 194.83C108.806 195.41 107.584 200.249 111.514 203.537C115.445 206.826 113.535 208.181 112.665 210.89C111.794 213.599 114.761 213.792 116.374 216.308C117.986 218.824 114.889 219.3 117.211 221.479C119.533 223.661 122.789 223.465 122.789 223.465L132.561 204.725L143.908 187.971H143.903Z" fill="#303C60"/>
<path d="M289.955 412.912C289.955 412.912 300.4 413.203 308.524 410.01C316.647 406.817 322.159 401.884 320.709 407.687C319.26 413.492 312.586 423.449 306.783 424.42C300.98 425.39 298.948 431.774 295.758 431.774C292.568 431.774 287.923 424.42 279.8 420.742C272.395 417.393 289.955 412.91 289.955 412.91V412.912Z" fill="#2E5B9A"/>
<path d="M207.644 411.933C207.644 411.933 212.036 417.992 219.682 422.208C227.577 426.56 236.688 428.657 231.039 430.626C225.39 432.595 217.132 434.125 209.076 431.785C203.427 430.144 196.803 429.801 195.052 427.131C193.303 424.461 197.111 417.755 195.527 407.735C194.257 399.707 207.644 411.935 207.644 411.935V411.933Z" fill="#2E5B9A"/>
<path d="M158.733 314.54C158.733 314.54 219.239 337.201 224.114 343.535C228.988 349.87 292.59 407.578 292.59 411.835C292.59 416.092 281.758 423.831 281.758 423.831C281.758 423.831 227.208 390.36 213.668 373.332C200.128 356.306 167.081 348.096 149.513 346.52C131.945 344.944 158.735 314.54 158.735 314.54H158.733Z" fill="#3E6BAB"/>
<path d="M161.053 314.54C161.053 314.54 202.448 312.992 211.346 314.54C220.244 316.087 239.761 316.07 226.996 352.108C216.991 380.354 213.688 416.116 213.688 416.116L193.793 421.005C193.793 421.005 194.583 356.699 204.076 339.576C197.161 340.715 184.472 342.94 166.886 347.97C134.261 357.302 116.371 352.629 116.371 352.629L111.514 335.603L161.055 314.54H161.053Z" fill="#4476BD"/>
<path d="M126.485 207.636L116.371 237.528L129.15 245.944L136.39 220.114L126.485 207.636Z" fill="#A86B48"/>
<path d="M130.291 241.867L136.39 220.114L126.485 207.634L122.784 218.568C124.061 228.443 127.147 236.612 130.291 241.865V241.867Z" fill="#7A4E34"/>
<path d="M152.285 212.694C152.612 221.785 148.148 229.654 141.051 230.353C133.955 231.052 127.479 224.282 126.587 215.227C125.695 206.175 130.723 198.267 137.82 197.568C144.917 196.869 151.766 198.347 152.285 212.694Z" fill="#A86B48"/>
<path d="M111.512 236.658C80.4644 257.63 99.7753 291.52 106.592 316.287C112.4 337.381 112.209 350.13 113.079 350.13C113.949 350.13 135.302 346.937 147.486 335.909C159.672 324.881 167.911 314.199 167.911 314.199C167.911 314.199 152.298 311.418 147.195 291.216C144.604 280.959 145.783 275.391 139.877 259.141C133.972 242.888 111.508 236.658 111.508 236.658H111.512Z" fill="#A2DFF2"/>
<path d="M111.512 236.657L114.837 228.519C114.837 228.519 125.38 235.485 129.586 238.774C133.794 242.063 136.388 242.838 136.388 242.838C136.388 242.838 137.909 254.504 136.921 253.444C124.479 240.105 111.512 236.657 111.512 236.657Z" fill="#A2DFF2"/>
<path d="M97.7527 436.101H100.463L119.902 354.975H113.938L97.7527 436.101Z" fill="#2E5B9A"/>
<path d="M178.959 436.101H176.249L153.941 352.108H159.905L178.959 436.101Z" fill="#2E5B9A"/>
<path d="M127.952 358.014C117.092 358.014 110.212 356.063 105.822 351.786C100.379 346.483 99.2524 338.269 99.2372 327.567C99.2025 305.066 97.9589 300.414 91.6261 286.675C90.9229 285.151 91.5892 283.345 93.1127 282.642C94.6362 281.938 96.4419 282.605 97.1451 284.129C103.838 298.651 105.279 303.99 105.314 327.556C105.331 338.403 106.705 344.16 110.062 347.432C113.504 350.786 119.729 352.168 130.241 351.908C140.392 351.658 147.378 350.236 152.992 349.095C160.375 347.592 165.712 346.509 172.038 349.533C173.553 350.256 174.193 352.071 173.471 353.586C172.748 355.101 170.934 355.742 169.419 355.019C164.929 352.872 161.12 353.647 154.203 355.053C148.354 356.243 141.078 357.721 130.391 357.986C129.558 358.006 128.742 358.017 127.952 358.017V358.014Z" fill="#2E5B9A"/>
<path d="M262.102 302.335H218.065C216.387 302.335 215.027 300.974 215.027 299.296C215.027 297.618 216.387 296.257 218.065 296.257H260.164L277.144 259.705C277.851 258.183 279.657 257.523 281.18 258.229C282.702 258.937 283.362 260.743 282.656 262.267L264.86 300.577C264.361 301.649 263.287 302.335 262.104 302.335H262.102Z" fill="#3E6BAB"/>
<path d="M112.662 267.192C112.662 267.192 120.399 290.798 129.974 300.568C139.55 310.339 158.819 313.621 164.853 313.237C160.043 311.303 150.883 305.8 147.2 291.214C144.609 280.957 145.787 275.389 139.882 259.138C135.498 247.075 121.992 240.532 115.321 237.962C123.646 243.943 134.057 253.794 137.256 261.29C140.806 269.61 112.662 267.19 112.662 267.19V267.192Z" fill="#96CFE0"/>
<path d="M219.456 287.908C219.456 287.908 232.803 281.815 234.253 282.394C235.703 282.974 250.502 291.911 250.502 293.392C250.502 294.872 237.445 287.873 237.445 287.873C237.445 287.873 238.895 291.742 238.025 293.598C237.155 295.454 227.117 295.454 218.065 294.872C209.011 294.292 219.456 287.906 219.456 287.906V287.908Z" fill="#A86B48"/>
<path d="M113.09 248.955C100.787 274.178 142.989 299.746 168.026 302.018C193.064 304.291 222.809 296.096 222.809 296.096L219.456 287.908C219.456 287.908 169.297 281.359 168.026 280.443C166.756 279.527 117.595 239.718 113.09 248.955Z" fill="#A2DFF2"/>
<path d="M129.085 208.487C130.224 211.487 129.389 214.587 127.218 215.414C125.046 216.241 122.361 214.478 121.222 211.478C120.082 208.478 120.918 205.378 123.088 204.551C125.261 203.724 127.945 205.487 129.085 208.487Z" fill="#A86B48"/>
<path d="M152.302 189.284C155.701 187.864 159.529 186.345 158.344 192.121C157.828 194.637 158.344 193.927 159.247 196.248C160.15 198.571 156.972 200.392 155.939 201.684C154.909 202.973 157.441 204.375 155.377 205.923C153.313 207.471 150.594 205.35 148.671 205.923C142.933 207.636 143.643 203.121 140.418 202.183C137.195 201.243 135.613 201.388 135.001 203.453C134.389 205.517 137.258 212.307 134.808 211.663C132.357 211.018 131.806 216.499 131.146 219.595C130.487 222.69 128.807 217.459 128.915 213.916C129.083 208.485 127.735 206.203 125.734 204.684C123.733 203.164 122.882 189.347 132.553 188.83C142.223 188.314 142.286 187.38 146.412 186.507C150.538 185.635 150.748 189.926 152.298 189.282L152.302 189.284Z" fill="#303C60"/>
<path d="M694.54 347.076C700.708 352.707 698.026 358.34 693.468 368.799C688.911 379.258 688.105 417.879 688.105 417.879L691.86 417.343C691.86 417.343 691.324 377.649 696.418 366.924C701.511 356.195 703.658 350.831 708.215 354.318C712.773 357.804 694.54 347.076 694.54 347.076Z" fill="#74B570"/>
<path d="M691.153 339.784C691.901 336.445 696.35 332.835 702.297 329.772C701.414 334.696 698.577 342.745 701.511 344.395C705.468 346.622 701.897 335.384 703.423 329.206C709.007 326.477 715.726 324.248 721.914 323.138C721.905 323.162 721.899 323.184 721.888 323.206C718.402 332.056 713.845 335.542 715.722 336.884C717.135 337.893 721.734 327.669 727.806 322.428C732.364 322.185 736.22 322.804 738.503 324.61C742.03 327.402 744.395 329.881 740.849 338.384C738.822 339.832 736.198 340.869 733.149 341.176C725.106 341.981 721.352 342.248 726.981 344.931C729.74 346.244 734.36 344.857 738.108 344.011C736.893 346.251 735.398 348.786 733.583 351.676C732.431 353.508 731.163 355.097 729.816 356.473C727.222 356.97 724.963 356.975 723.767 356.462C720.013 354.854 710.361 349.757 707.948 351.904C705.587 354.003 725.825 355.334 724.423 360.669C714.613 366.322 703.388 363.633 701.405 358.442C698.74 351.472 688.902 349.831 691.155 339.784H691.153Z" fill="#9CD499"/>
<path d="M711.431 377.916C700.706 369.871 689.714 377.38 684.082 385.962C678.452 394.543 682.474 413.854 682.474 413.854C682.474 413.854 684.618 413.854 684.618 413.049C684.618 412.244 678.719 390.253 692.661 380.33C701.383 374.122 707.675 377.111 708.48 380.061C709.285 383.011 704.994 388.375 704.994 388.375L711.429 377.916H711.431Z" fill="#74B570"/>
<path d="M686.764 361.379C697.49 361.379 700.975 378.008 698.026 387.661C695.076 397.317 691.055 415.285 691.055 415.285L688.375 412.604C688.375 412.604 698.564 387.394 696.151 376.13C693.737 364.866 687.839 362.988 686.767 362.988C685.694 362.988 686.767 361.379 686.767 361.379H686.764Z" fill="#9CD499"/>
<path d="M695.76 387.735C696.515 386.737 697.446 385.909 698.583 385.362C698.434 386.161 698.249 386.932 698.026 387.661C696.682 392.059 695.115 398.185 693.809 403.549C693.69 402.861 693.507 401.804 693.225 400.169C693.158 399.783 693.106 399.364 693.069 398.921C694.119 395.348 695.111 391.456 695.76 387.735Z" fill="#74B570"/>
<path d="M698.692 387.815C719.069 379.234 708.335 367.455 726.298 375.233C727.563 375.78 729.106 377.163 730.649 379.067C729.05 379.521 727.112 379.846 724.956 379.523C719.594 378.718 721.471 383.009 730.319 384.082C731.986 384.283 733.34 384.561 734.464 384.956C738.679 393.054 740.58 403.71 731.658 407.413C729.9 408.143 727.728 408.562 725.31 408.716C722.558 406.528 725.981 393.865 721.738 395.613C717.664 397.291 723.014 406.469 722.281 408.781C718.259 408.707 713.806 408.052 709.552 406.997C707.868 406.052 706.583 404.787 706.186 403.124C704.845 397.493 713.693 394.007 713.962 389.179C714.209 384.742 710.72 398.943 701.474 401.031C693.114 397.126 689.165 391.825 698.69 387.813L698.692 387.815Z" fill="#9CD499"/>
<path d="M684.173 372.641C686.317 368.083 680.688 367.01 680.954 370.497C681.193 373.586 681.219 381.097 678.051 383.139C672.588 382.547 665.155 380.346 659.536 376.99C659.465 376.536 659.536 376.069 659.773 375.592C662.186 370.764 677.738 366.741 672.912 365.133C669.068 363.852 662.334 371.415 656.906 375.227C653.646 372.752 651.463 369.804 651.463 366.513C651.463 362.059 656.875 357.014 663.875 354.604C667.024 354.921 669.951 356.645 674.522 359.234C681.274 363.062 679.713 356.875 673.328 353.202C678.838 353.486 684.334 355.842 688.385 361.468C688.385 361.468 688.001 363.874 690.547 367.594C697.49 377.743 689.477 383.669 679.9 383.283C680.442 380.608 682.691 375.793 684.173 372.644V372.641Z" fill="#9CD499"/>
<path d="M710.787 377.463C716.03 381.516 721.855 386.255 729.006 389.472C736.157 392.691 734.727 403.18 734.727 403.18C734.727 403.18 735.799 394.122 729.842 391.022C723.882 387.922 719.95 384.227 715.422 383.513C710.893 382.799 708.391 382.082 708.391 382.082C708.391 382.082 709.821 379.221 708.988 378.149C708.154 377.076 710.791 377.463 710.791 377.463H710.787Z" fill="#74B570"/>
<path d="M736.63 329.87C717.443 334.995 703.382 347.273 700.76 350.254C698.139 353.234 698.139 354.068 698.139 354.068L700.166 357.882L701.118 357.405C701.118 357.405 699.569 354.185 703.621 350.015C710.609 342.821 719.112 337.142 724.952 334.639C730.792 332.136 736.63 329.872 736.63 329.872V329.87Z" fill="#74B570"/>
<path d="M691.001 436.101H683.669C678.461 436.101 674.231 431.87 674.231 426.66V409.814H700.437V426.66C700.437 431.87 696.207 436.101 690.998 436.101H691.001Z" fill="#75A1DE"/>
<path d="M700.439 412.825H674.233V414.671H700.439V412.825Z" fill="white"/>
<path d="M700.439 416.19H674.233V417.275H700.439V416.19Z" fill="white"/>
<path d="M372.78 58.0236C372.78 38.1585 356.807 22.0229 337.006 21.7711C317.113 21.5171 300.606 37.5398 300.29 57.4353C300.135 67.1475 303.801 76.0023 309.878 82.595C312.677 85.632 314.233 89.6132 314.233 93.7443V109.997C314.233 120.513 322.834 129.116 333.345 129.116H339.717C350.229 129.116 358.83 120.513 358.83 109.997V93.7465C358.83 89.5807 360.436 85.5929 363.251 82.5234C369.167 76.0717 372.778 67.471 372.778 58.0258L372.78 58.0236Z" fill="#F5DC95"/>
<path opacity="0.5" d="M367.717 60.4571C367.717 43.3663 353.975 29.4861 336.941 29.269C319.829 29.0498 305.626 42.8344 305.355 59.9513C305.223 68.3067 308.376 75.9241 313.604 81.5964C316.013 84.2101 317.35 87.6335 317.35 91.1893V105.171C317.35 114.217 324.748 121.618 333.792 121.618H339.274C348.317 121.618 355.716 114.217 355.716 105.171V91.1914C355.716 87.6074 357.098 84.1775 359.52 81.5357C364.61 75.9849 367.717 68.5846 367.717 60.4593V60.4571Z" fill="white"/>
<path d="M341.891 100.261H329.955C329.395 100.261 328.926 99.8334 328.874 99.2755C328.852 99.0433 326.626 75.9958 316.321 69.5398C315.813 69.2207 315.659 68.552 315.978 68.0441C316.295 67.5361 316.966 67.382 317.474 67.7011C327.524 73.9964 330.38 93.4187 330.931 98.0924H340.745C340.706 96.4882 340.799 93.3948 341.722 89.3897C342.957 84.0364 345.984 75.961 353.396 67.8878C353.801 67.4471 354.487 67.4167 354.93 67.8226C355.371 68.2286 355.401 68.9146 354.995 69.3552C341.448 84.1081 342.955 98.9065 342.972 99.0541C343.007 99.3624 342.909 99.6684 342.703 99.8986C342.497 100.129 342.204 100.261 341.893 100.261H341.891Z" fill="#94BDF2"/>
<path d="M350.826 71.0246C346.796 71.0246 341.303 68.1613 335.515 65.057C328.041 69.0383 321.061 72.6093 317.155 70.2388C315.319 69.1251 314.44 66.9456 314.47 63.5765C314.498 60.405 315.408 58.2667 317.172 57.2204C321.087 54.902 328.08 58.601 335.517 62.5932C343.102 58.5468 350.242 54.7804 354.142 57.1553C355.894 58.2211 356.76 60.3898 356.721 63.5982C356.677 66.937 355.718 69.1837 353.869 70.2735C352.99 70.7923 351.966 71.0202 350.826 71.0202V71.0246ZM337.822 63.8284C343.781 66.9956 350.014 70.0304 352.768 68.4066C353.921 67.7271 354.52 66.1012 354.552 63.5722C354.583 61.1843 354.066 59.6495 353.016 59.0113C350.355 57.3919 343.894 60.6047 337.822 63.8284ZM320.106 58.6662C319.39 58.6662 318.774 58.7964 318.279 59.0895C317.213 59.7212 316.662 61.2364 316.64 63.5961C316.619 66.099 317.17 67.7098 318.279 68.3827C320.957 70.0065 327.212 66.9891 333.21 63.8218C328.36 61.2342 323.268 58.6662 320.104 58.6662H320.106Z" fill="#94BDF2"/>
<path d="M340.372 124.72H333.427C330.97 124.72 328.978 126.712 328.978 129.17V129.821C328.978 132.279 330.97 134.271 333.427 134.271H340.372C342.829 134.271 344.821 132.279 344.821 129.821V129.17C344.821 126.712 342.829 124.72 340.372 124.72Z" fill="#94BDF2"/>
<path d="M313.181 98.3073V109.804C313.181 120.814 322.187 129.825 333.197 129.825H339.871C350.878 129.825 359.887 120.816 359.887 109.804V98.3073H313.183H313.181Z" fill="#94BDF2"/>
<path d="M359.687 96.4253H313.967C312.528 96.4253 311.362 97.5915 311.362 99.0302V99.319C311.362 100.758 312.528 101.924 313.967 101.924H359.687C361.126 101.924 362.292 100.758 362.292 99.319V99.0302C362.292 97.5915 361.126 96.4253 359.687 96.4253Z" fill="#9EC8FF"/>
<path d="M359.85 106.048L314.474 111.656C313.053 111.831 311.746 110.811 311.571 109.389L311.536 109.103C311.36 107.681 312.38 106.374 313.802 106.198L359.177 100.591C360.599 100.415 361.905 101.435 362.081 102.857L362.116 103.144C362.292 104.566 361.272 105.873 359.85 106.048Z" fill="#9EC8FF"/>
<path d="M359.85 113.991L314.474 119.599C313.053 119.775 311.746 118.754 311.571 117.332L311.536 117.046C311.36 115.624 312.38 114.317 313.802 114.141L359.177 108.534C360.599 108.358 361.905 109.378 362.081 110.8L362.116 111.087C362.292 112.509 361.272 113.816 359.85 113.991Z" fill="#9EC8FF"/>
<path d="M357.05 122.492L319.26 127.162C317.955 127.322 316.755 126.387 316.595 125.082L316.506 124.37C316.345 123.065 317.281 121.865 318.585 121.704L356.375 117.035C357.68 116.874 358.88 117.81 359.041 119.115L359.13 119.827C359.29 121.131 358.355 122.332 357.05 122.492Z" fill="#9EC8FF"/>
<path d="M684.247 132.797H708.606C708.606 146.163 697.609 157.162 684.247 157.162C670.885 157.162 659.888 146.163 659.888 132.797C659.888 119.432 670.885 108.432 684.247 108.432V132.797Z" fill="#9EC8FF"/>
<path d="M712.686 129.387C712.686 115.93 701.78 105.022 688.327 105.022V129.387H712.686Z" fill="#F39892"/>
<path d="M663.968 129.387C663.968 142.844 674.874 153.752 688.327 153.752C674.965 153.752 663.968 142.753 663.968 129.387Z" fill="#F39892"/>
<path d="M688.327 105.022C674.874 105.022 663.968 115.93 663.968 129.387C663.968 116.021 674.965 105.022 688.327 105.022Z" fill="#F39892"/>
<path d="M688.327 153.75C701.78 153.75 712.686 142.842 712.686 129.385C712.686 142.75 701.691 153.75 688.327 153.75Z" fill="#F39892"/>
<path d="M212.846 116.681H207.526V132.079H212.846V116.681Z" fill="#9EC8FF"/>
<path d="M281.033 121.691H275.714V132.079H281.033V121.691Z" fill="#9EC8FF"/>
<path d="M235.39 96.054H230.071V132.079H235.39V96.054Z" fill="#9EC8FF"/>
<path d="M246.665 115.887H241.345V132.079H246.665V115.887Z" fill="#9EC8FF"/>
<path d="M257.937 111.302H252.618V132.079H257.937V111.302Z" fill="#9EC8FF"/>
<path d="M224.118 106.515H218.799V132.079H224.118V106.515Z" fill="#9EC8FF"/>
<path d="M269.248 100.593H263.929V132.079H269.248V100.593Z" fill="#9EC8FF"/>
<path d="M65.737 87.4316L37.8383 70.3668L32.7925 102.686C45.8987 104.752 58.8985 98.6091 65.7391 87.4316H65.737Z" fill="#A2DFF2"/>
<path d="M65.7652 87.3925C65.8412 87.2688 65.9388 87.0994 65.9345 87.106C71.8267 77.2331 72.0654 64.9702 66.6593 54.9041C56.7869 60.0772 62.6661 56.9339 37.8362 70.3647C65.7826 87.4576 61.4421 84.8223 65.7652 87.3925Z" fill="#9CD499"/>
<path d="M7.16833 59.0634L37.8384 70.3668L66.6095 54.8065C53.1517 29.9116 16.928 32.8986 7.17051 59.0634H7.16833Z" fill="#9EC8FF"/>
<path d="M32.7903 102.686L37.8361 70.3668L7.1661 59.0634C-0.125959 78.6203 12.8196 99.5382 32.7903 102.686Z" fill="#F39892"/>
<path d="M5.16087 64.4145C5.73164 64.4145 6.25685 64.5599 6.71043 64.8161C6.9752 63.3508 7.34414 61.8963 7.82377 60.4636L24.4761 66.6005C24.4761 66.6005 24.4761 66.5896 24.4761 66.5853C24.4414 65.8255 24.7279 65.1156 25.201 64.5534L23.5343 63.9391L8.58336 58.4295C9.80955 55.4425 11.4416 52.7268 13.3992 50.3259C12.6938 50.0676 12.1165 49.5683 11.7367 48.9301C9.62291 51.5177 7.86283 54.4526 6.54766 57.6784L6.5303 57.6719L6.15267 58.6857L5.77288 59.706L5.79024 59.7125C5.26287 61.2798 4.8592 62.871 4.57056 64.4753C4.76588 64.4362 4.96337 64.4145 5.16304 64.4145H5.16087Z" fill="white"/>
<path d="M68.0592 55.2537L68.0765 55.245L67.56 54.2898C67.5492 54.2703 67.5383 54.2507 67.5275 54.2334L67.1064 53.4475L67.0912 53.4562C63.8359 47.7991 59.1937 43.286 53.6118 40.3771C48.1449 37.529 41.9293 36.2525 35.6356 36.691C28.235 37.2055 21.492 39.9798 16.138 44.4691C16.7674 44.8511 17.2491 45.4459 17.5161 46.1493C22.5315 41.9401 28.8492 39.3373 35.7853 38.8553C47.8888 38.0131 59.0309 43.9394 65.1228 54.3766L56.6263 58.9722C54.8727 59.9166 52.4203 61.2429 48.3142 63.4658C45.6838 64.8899 42.3742 66.6808 38.1357 68.9732L37.8731 69.1143L37.018 68.5911L36.9724 68.8885L30.989 66.683C30.9955 67.4449 30.6852 68.1504 30.1882 68.7018L36.6295 71.0767L31.8897 101.425C22.9396 99.6967 15.1961 94.1915 10.5235 86.1899C7.73041 81.4076 6.28285 76.0869 6.21774 70.7294C5.87918 70.8509 5.52326 70.9226 5.163 70.9226C4.76584 70.9226 4.39256 70.8488 4.04749 70.7185C4.11042 76.4603 5.65781 82.1608 8.6506 87.284C13.653 95.85 21.9586 101.737 31.5555 103.567V103.587L32.6211 103.756L33.6953 103.925V103.906C35.0865 104.08 36.4776 104.166 37.8644 104.166C42.7431 104.166 47.5763 103.098 52.0709 101.006C57.8242 98.3269 62.6596 94.1372 66.1124 88.8578L66.1342 88.8708L66.3468 88.5235L66.6919 87.9569C66.744 87.8701 66.8091 87.7615 66.8438 87.7008L66.8677 87.6617C66.8677 87.6617 66.8785 87.6421 66.8851 87.6313L67.2301 87.0691L67.2149 87.0604C72.7599 77.3134 73.0746 65.2763 68.0613 55.2515L68.0592 55.2537ZM34.0317 101.765L38.6565 72.1426L50.695 79.5059C55.5476 82.4756 58.3234 84.1732 60.0726 85.2412L64.2287 87.7833C57.6007 97.8406 45.9529 103.233 34.0317 101.765ZM65.3811 85.9033L65.1749 85.7818C64.0355 85.1066 63.5407 84.8136 61.2684 83.4264L40.013 70.4254L57.6571 60.8826C60.2484 59.4889 61.3097 58.9332 63.9422 57.5569C64.5846 57.2204 65.3203 56.8362 66.1971 56.3781C70.7959 65.6974 70.4942 76.8489 65.3832 85.9055L65.3811 85.9033Z" fill="#E7F3FE"/>
<path d="M126.775 34.0752H216.746C217.724 34.0752 218.519 34.8697 218.519 35.8488V74.5739C218.519 75.5529 217.724 76.3474 216.746 76.3474H126.775C125.797 76.3474 125.002 75.5529 125.002 74.5739V35.8488C125.002 34.8697 125.797 34.0752 126.775 34.0752Z" fill="#9EC8FF"/>
<path d="M214.53 45.1811H128.991C128.2 45.1811 127.559 45.8225 127.559 46.6138V72.9306C127.559 73.7218 128.2 74.3633 128.991 74.3633H214.53C215.321 74.3633 215.962 73.7218 215.962 72.9306V46.6138C215.962 45.8225 215.321 45.1811 214.53 45.1811Z" fill="white"/>
<path d="M129.651 37.186H131.728C132.166 37.186 132.522 37.542 132.522 37.9805V39.6911C132.522 40.1296 132.166 40.4856 131.728 40.4856H129.651C129.213 40.4856 128.857 40.1296 128.857 39.6911V37.9805C128.857 37.542 129.213 37.186 129.651 37.186Z" fill="white"/>
<path d="M136.312 37.186H138.388C138.827 37.186 139.183 37.542 139.183 37.9805V39.6911C139.183 40.1296 138.827 40.4856 138.388 40.4856H136.312C135.873 40.4856 135.517 40.1296 135.517 39.6911V37.9805C135.517 37.542 135.873 37.186 136.312 37.186Z" fill="white"/>
<path d="M142.972 37.186H145.049C145.487 37.186 145.843 37.542 145.843 37.9805V39.6911C145.843 40.1296 145.487 40.4856 145.049 40.4856H142.972C142.534 40.4856 142.178 40.1296 142.178 39.6911V37.9805C142.178 37.542 142.534 37.186 142.972 37.186Z" fill="white"/>
<path d="M212.364 51.5785H165.603C164.835 51.5785 164.204 50.9489 164.204 50.1783C164.204 49.4077 164.833 48.7781 165.603 48.7781H212.364C213.132 48.7781 213.764 49.4077 213.764 50.1783C213.764 50.9489 213.134 51.5785 212.364 51.5785Z" fill="#9EC8FF"/>
<path d="M177.195 73.165H130.434C129.664 73.165 129.035 72.5355 129.035 71.7648C129.035 70.9942 129.664 70.3647 130.434 70.3647H177.195C177.963 70.3647 178.595 70.9942 178.595 71.7648C178.595 72.5355 177.965 73.165 177.195 73.165Z" fill="#9EC8FF"/>
<path d="M185.809 70.3668H180.969C180.705 70.3668 180.491 70.5807 180.491 70.8444V72.6874C180.491 72.9512 180.705 73.165 180.969 73.165H185.809C186.072 73.165 186.286 72.9512 186.286 72.6874V70.8444C186.286 70.5807 186.072 70.3668 185.809 70.3668Z" fill="#9EC8FF"/>
<path d="M193.103 70.3668H188.263C187.999 70.3668 187.786 70.5807 187.786 70.8444V72.6874C187.786 72.9512 187.999 73.165 188.263 73.165H193.103C193.366 73.165 193.58 72.9512 193.58 72.6874V70.8444C193.58 70.5807 193.366 70.3668 193.103 70.3668Z" fill="#9EC8FF"/>
<path d="M212.815 57.6741H135.381C134.857 57.6741 134.432 57.2465 134.432 56.7255C134.432 56.2045 134.86 55.7768 135.381 55.7768H212.815C213.338 55.7768 213.764 56.2045 213.764 56.7255C213.764 57.2465 213.336 57.6741 212.815 57.6741Z" fill="#9EC8FF"/>
<path d="M212.815 61.7726H135.381C134.857 61.7726 134.432 61.3449 134.432 60.8239C134.432 60.303 134.86 59.8753 135.381 59.8753H212.815C213.338 59.8753 213.764 60.303 213.764 60.8239C213.764 61.3449 213.336 61.7726 212.815 61.7726Z" fill="#9EC8FF"/>
<path d="M446.424 49.4315H406.491V26.1496H436.523C440.39 30.018 442.558 32.1866 446.424 36.0528V49.4294V49.4315Z" fill="#FFB8B3"/>
<path d="M435.789 26.1496V38.5775H446.424V36.1896L436.456 26.2169L435.789 26.1496Z" fill="#F39892"/>
<path d="M436.523 26.1496V36.1896H446.424L436.523 26.1496Z" fill="#FFB8B3"/>
<path d="M428.79 34.8871H410.994C410.606 34.8871 410.289 34.5702 410.289 34.1816C410.289 33.793 410.606 33.4761 410.994 33.4761H428.79C429.179 33.4761 429.496 33.793 429.496 34.1816C429.496 34.5702 429.179 34.8871 428.79 34.8871Z" fill="white"/>
<path d="M428.79 38.495H410.994C410.606 38.495 410.289 38.1781 410.289 37.7895C410.289 37.4009 410.606 37.084 410.994 37.084H428.79C429.179 37.084 429.496 37.4009 429.496 37.7895C429.496 38.1781 429.179 38.495 428.79 38.495Z" fill="white"/>
<path d="M428.79 42.2939H410.994C410.606 42.2939 410.289 41.977 410.289 41.5884C410.289 41.1998 410.606 40.8829 410.994 40.8829H428.79C429.179 40.8829 429.496 41.1998 429.496 41.5884C429.496 41.977 429.179 42.2939 428.79 42.2939Z" fill="white"/>
<path d="M425.264 29.1345C425.923 29.1345 426.457 28.5999 426.457 27.9405C426.457 27.2811 425.923 26.7466 425.264 26.7466C424.604 26.7466 424.07 27.2811 424.07 27.9405C424.07 28.5999 424.604 29.1345 425.264 29.1345Z" fill="#3E6BAB"/>
<path d="M274.709 27.3094L249.791 22.4917L243.984 52.5439L268.902 57.3616L274.709 27.3094Z" fill="#FAE8B6"/>
<path d="M269.444 40.2816L256.233 37.7287C255.882 37.6614 255.65 37.3184 255.717 36.9667C255.784 36.6151 256.127 36.3828 256.479 36.4501L269.689 39.003C270.041 39.0703 270.273 39.4132 270.206 39.7649C270.138 40.1166 269.795 40.3489 269.444 40.2816Z" fill="#9EC8FF"/>
<path d="M268.806 43.5834L255.595 41.0305C255.244 40.9632 255.011 40.6202 255.079 40.2685C255.146 39.9169 255.489 39.6846 255.841 39.7519L269.051 42.3048C269.402 42.3721 269.635 42.715 269.567 43.0667C269.5 43.4184 269.157 43.6507 268.806 43.5834Z" fill="#9EC8FF"/>
<path d="M268.15 46.9785L254.94 44.4256C254.588 44.3583 254.356 44.0154 254.423 43.6637C254.491 43.312 254.833 43.0797 255.185 43.147L268.395 45.6999C268.747 45.7672 268.979 46.1102 268.912 46.4619C268.845 46.8135 268.502 47.0458 268.15 46.9785Z" fill="#9EC8FF"/>
<path d="M260.5 26.5034C260.387 27.0917 259.816 27.4759 259.228 27.3631C258.64 27.2502 258.256 26.6793 258.369 26.091C258.482 25.5027 259.052 25.1184 259.641 25.2313C260.229 25.3442 260.613 25.9151 260.5 26.5034Z" fill="#3E6BAB"/>
<path d="M464.856 82.0046L426.29 77.9408L428.836 53.7623L459.413 56.9838C462.204 60.4332 463.768 62.3652 466.559 65.8146L464.854 82.0046H464.856Z" fill="#9EC8FF"/>
<path d="M458.866 58.7074L430.162 55.6835L428.013 76.0848L463.701 79.8446L464.958 67.8986L457.976 67.1627L458.866 58.7074Z" fill="white"/>
<path d="M454.975 66.1207L436.38 64.1605C435.954 64.1149 435.642 63.7307 435.688 63.303C435.733 62.8754 436.117 62.5649 436.545 62.6105L455.139 64.5708C455.565 64.6164 455.877 65.0006 455.832 65.4282C455.786 65.8537 455.402 66.1663 454.975 66.1207Z" fill="#9EC8FF"/>
<path d="M454.542 70.2192L435.948 68.259C435.522 68.2134 435.21 67.8292 435.255 67.4015C435.301 66.976 435.685 66.6634 436.113 66.709L454.707 68.6693C455.133 68.7149 455.445 69.0991 455.4 69.5267C455.354 69.9522 454.97 70.2648 454.542 70.2192Z" fill="#9EC8FF"/>
<path d="M454.093 74.4979L435.498 72.5376C435.073 72.4921 434.761 72.1078 434.806 71.6802C434.852 71.2547 435.236 70.9421 435.663 70.9877L454.258 72.9479C454.684 72.9935 454.996 73.3778 454.951 73.8054C454.905 74.2309 454.521 74.5435 454.093 74.4979Z" fill="#9EC8FF"/>
<path d="M443.266 60.5374C443.925 60.5374 444.46 60.0029 444.46 59.3435C444.46 58.6841 443.925 58.1495 443.266 58.1495C442.607 58.1495 442.072 58.6841 442.072 59.3435C442.072 60.0029 442.607 60.5374 443.266 60.5374Z" fill="#3E6BAB"/>
<path d="M656.467 40.4835C656.467 47.8382 650.506 53.8014 643.153 53.8014C635.8 53.8014 629.838 47.8382 629.838 40.4835C629.838 33.1287 635.8 27.1655 643.153 27.1655C650.506 27.1655 656.467 33.1287 656.467 40.4835Z" fill="#9CD499"/>
<path d="M641.831 45.0422C641.831 45.0422 641.816 45.0422 641.807 45.0422C641.629 45.0356 641.46 44.9553 641.343 44.8207L637.727 40.7092C637.491 40.44 637.517 40.0276 637.786 39.791C638.055 39.5543 638.467 39.5804 638.704 39.8496L641.866 43.4444L649.102 36.3611C649.358 36.1093 649.77 36.1136 650.022 36.3719C650.274 36.6281 650.269 37.0405 650.013 37.2924L642.287 44.8555C642.166 44.9749 642.001 45.0422 641.831 45.0422Z" fill="white"/>
<path d="M43.2531 164.111H120.017C121.992 164.111 123.594 162.509 123.594 160.534V133.099C123.594 131.123 121.992 129.521 120.017 129.521H43.2531C41.2778 129.521 39.6765 131.123 39.6765 133.099V160.534C39.6765 162.509 41.2778 164.111 43.2531 164.111Z" fill="#9EC8FF"/>
<path d="M113.456 158.895V177.978L91.4718 155.988C91.4718 155.988 113.009 158.895 113.456 158.895Z" fill="#9EC8FF"/>
<path d="M47.0489 160.683H116.221C117.896 160.683 119.253 159.326 119.253 157.651V135.986C119.253 134.311 117.896 132.954 116.221 132.954H47.0489C45.3745 132.954 44.0171 134.311 44.0171 135.986V157.651C44.0171 159.326 45.3745 160.683 47.0489 160.683Z" fill="white"/>
<path d="M78.281 139.811H112.265C113.085 139.811 113.756 139.14 113.756 138.32C113.756 137.499 113.085 136.828 112.265 136.828H78.281C77.4607 136.828 76.79 137.499 76.79 138.32C76.79 139.14 77.4607 139.811 78.281 139.811Z" fill="#9EC8FF"/>
<path d="M49.8941 145.512H112.925C113.383 145.512 113.754 145.14 113.754 144.682V144.665C113.754 144.207 113.383 143.836 112.925 143.836H49.8941C49.4363 143.836 49.0651 144.207 49.0651 144.665V144.682C49.0651 145.14 49.4363 145.512 49.8941 145.512Z" fill="#9EC8FF"/>
<path d="M49.8941 148.755H112.925C113.383 148.755 113.754 148.384 113.754 147.926V147.908C113.754 147.45 113.383 147.079 112.925 147.079H49.8941C49.4363 147.079 49.0651 147.45 49.0651 147.908V147.926C49.0651 148.384 49.4363 148.755 49.8941 148.755Z" fill="#9EC8FF"/>
<path d="M610.988 139.944H615.009C615.859 139.944 616.548 139.254 616.548 138.404V135.092C616.548 134.242 615.859 133.553 615.009 133.553H610.988C610.138 133.553 609.449 134.242 609.449 135.092V138.404C609.449 139.254 610.138 139.944 610.988 139.944Z" fill="#9EC8FF"/>
<path d="M602.103 139.944H598.079C597.23 139.944 596.54 139.253 596.54 138.404V135.09C596.54 134.241 597.23 133.55 598.079 133.55H602.103C602.951 133.55 603.641 134.241 603.641 135.09V138.404C603.641 139.253 602.951 139.944 602.103 139.944Z" fill="#9EC8FF"/>
<path d="M585.17 139.944H589.192C590.042 139.944 590.73 139.254 590.73 138.404V135.092C590.73 134.242 590.042 133.553 589.192 133.553H585.17C584.32 133.553 583.632 134.242 583.632 135.092V138.404C583.632 139.254 584.32 139.944 585.17 139.944Z" fill="#9EC8FF"/>
</g>
<defs>
<clipPath id="clip0_312_2">
<rect width="743" height="464" fill="white"/>
</clipPath>
</defs>
</svg>
