<svg width="262" height="546" viewBox="0 0 262 546" fill="none" xmlns="http://www.w3.org/2000/svg">
<g clip-path="url(#clip0_2024_998)">
<path d="M116.78 471.025V495.393L72.3505 493.682V471.025H116.78Z" fill="#F48462"/>
<path d="M219.359 468.28V492.648L178.238 490.937V468.28H219.359Z" fill="#F48462"/>
<path d="M130.034 199.719C130.034 199.719 97.9817 252.126 78.9685 336.049C61.6366 412.593 57.8983 475.909 57.8983 475.909H132.86C132.86 475.909 141.195 413.502 143.413 388.795C145.631 364.107 153.018 331.04 153.018 331.04C153.018 331.04 163.303 473.485 165.753 475.909C168.204 478.316 239.964 476.444 239.195 473.164C238.426 469.884 216.515 233.641 214.565 218.079C208.591 170.199 129.981 199.719 129.981 199.719H130.034Z" fill="#9792E0"/>
<path d="M168.025 532.916C168.025 537.212 169.42 542.132 172.282 543.38C175.144 544.61 198.342 547.194 218.625 545.376C238.05 543.629 242.092 542.15 243.523 540.314C244.221 539.387 242.861 535.091 241.287 530.92C241.18 530.706 241.127 530.474 241.019 530.26C240.214 528.157 239.392 526.124 238.783 524.681C238.175 523.308 237.442 521.989 236.583 520.723C234.491 517.729 230.323 511.543 229.25 508.334C227.855 504.074 225.726 494.858 224.278 490.509C222.847 486.248 219.341 485.357 219.341 485.357C219.341 485.357 179.383 482.541 176.521 485.018C173.695 487.461 172.264 507.764 172.264 510.812V513.878C172.264 516.73 170.368 522.381 169.134 527.051C168.794 528.228 168.526 529.315 168.329 530.313C168.132 531.312 167.989 532.167 167.989 532.898L168.025 532.916Z" fill="#8B558E"/>
<path d="M0.858577 541.704C3.52365 542.845 116.923 546.036 119.553 541.704C120.358 540.403 120.912 535.964 121.288 530.385C122.218 517.247 122.218 497.71 122.218 497.71C122.218 497.71 123.058 491.044 122.88 487.942C122.754 484.876 68.2009 486.052 68.2009 486.052L32.75 514.912C32.75 514.912 23.0198 513.13 12.3953 514.912C6.76109 515.839 3.13015 522.969 1.34151 529.672C-0.25038 535.626 -0.393471 541.152 0.876463 541.704H0.858577Z" fill="#8B558E"/>
<path d="M0.858519 541.704C3.52359 542.845 116.923 546.036 119.553 541.704C120.358 540.403 120.912 535.964 121.288 530.385C99.7345 531.971 46.6835 534.966 1.32357 529.654C-0.268325 535.608 -0.411416 541.134 0.858519 541.686V541.704Z" fill="#EFAE52"/>
<path d="M168.025 532.916C168.025 537.212 169.42 542.132 172.282 543.38C175.144 544.61 198.342 547.194 218.625 545.376C238.05 543.629 242.092 542.15 243.523 540.314C244.221 539.387 242.862 535.091 241.288 530.919C223.258 532.328 190.705 533.611 169.152 527.069C168.812 528.246 168.544 529.333 168.347 530.331C168.15 531.329 168.007 532.185 168.007 532.916H168.025Z" fill="#EFAE52"/>
<path d="M153.036 331.718C153.465 331.682 153.734 331.361 153.698 331.005C153.68 330.702 151.337 300.024 150.657 286.441C149.977 272.857 149.96 266.351 149.96 266.298C149.96 266.03 149.799 265.798 149.566 265.692L125.276 254.533C124.936 254.372 124.543 254.533 124.382 254.854C124.221 255.192 124.382 255.584 124.704 255.745L148.6 266.725C148.618 268.383 148.725 274.836 149.298 286.512C149.977 300.131 152.321 330.809 152.338 331.112C152.374 331.468 152.66 331.736 153 331.736L153.036 331.718Z" fill="#FCBC49"/>
<path d="M218.339 506.498C218.626 506.498 218.894 506.302 218.983 506.017C219.091 505.661 218.876 505.286 218.518 505.197C217.874 505.019 202.456 500.776 194.318 502.238L188.773 503.218C192.887 500.028 202.492 493.432 208.359 496.017C208.699 496.159 209.092 496.017 209.235 495.678C209.378 495.339 209.235 494.947 208.895 494.787C200.507 491.079 186.502 503.308 185.911 503.824C185.679 504.021 185.625 504.341 185.75 504.609C185.876 504.876 186.162 505.037 186.466 504.983L194.55 503.557C202.403 502.167 218.017 506.445 218.16 506.498C218.214 506.498 218.286 506.516 218.339 506.516V506.498Z" fill="#B2B0F7"/>
<path d="M41.246 508.655L61.5292 506.498C61.7796 506.481 61.9763 506.32 62.0837 506.088C62.1731 505.857 62.1373 505.607 61.9763 505.411L54.9291 496.855C54.6966 496.569 54.2673 496.534 53.9811 496.765C53.6949 496.997 53.6592 497.425 53.8917 497.71L60.1519 505.322L41.1745 507.336C40.7988 507.372 40.5484 507.71 40.5842 508.067C40.62 508.406 40.9062 508.655 41.246 508.655Z" fill="#B2B0F7"/>
<path d="M213.546 252.554C213.76 252.554 213.957 252.465 214.082 252.269C214.297 251.966 214.225 251.556 213.939 251.342C201.383 242.304 198.128 229.185 198.11 229.06C198.02 228.703 197.663 228.472 197.305 228.561C196.947 228.65 196.715 229.006 196.804 229.363C196.929 229.915 200.22 243.106 213.152 252.429C213.277 252.518 213.403 252.554 213.546 252.554Z" fill="#FCBC49"/>
<path d="M182.638 80.6077C182.638 80.6077 204.764 80.5364 216.694 92.5331C228.624 104.53 218.59 222.019 218.59 222.019C218.59 222.019 177.88 222.75 154.771 222.019C137.958 221.484 121.288 213.979 121.288 213.979C121.288 213.979 139.335 96.8825 145.542 85.3137C151.748 73.7626 182.638 80.5899 182.638 80.5899V80.6077Z" fill="#9B4EA8"/>
<path d="M147.294 83.0498C147.294 83.0498 134.649 88.5579 116.762 117.525C100.396 144.014 98.0532 168.506 105.619 183.569C113.167 198.614 138.512 198.204 138.512 198.204L147.294 83.0498Z" fill="#9B4EA8"/>
<path d="M179.651 32.9596C179.651 32.9596 161.639 34.5461 159.922 17.3444C158.08 -0.980417 175.054 -3.42253 182.602 3.70773C190.15 10.838 189.113 18.4496 189.113 18.4496C189.113 18.4496 193.978 13.7079 199.702 19.0556C203.905 22.9773 202.098 29.7332 202.098 29.7332C202.098 29.7332 211.399 29.0023 210.863 37.1309C210.326 45.2594 204.674 49.6088 204.674 49.6088L179.651 32.9596Z" fill="#431949"/>
<path d="M197.448 64.0476L196.357 83.228C196.357 83.228 192.565 88.5401 181.261 88.8253C172.836 89.0214 169.992 86.9714 169.992 86.9714L171.71 77.3277L173.409 67.9158L193.996 64.618L197.448 64.0654V64.0476Z" fill="#F48462"/>
<path d="M193.996 64.6002C193.924 65.1172 193.674 65.7232 193.334 66.4184C188.487 75.7591 176.592 77.1495 171.709 77.3099L173.409 67.898L193.996 64.6002Z" fill="black"/>
<path d="M171.602 23.9399C171.602 23.9399 160.119 47.4163 163.339 61.0172C166.558 74.6182 178.936 72.9961 186.376 70.6966C193.835 68.3971 197.43 64.0476 197.43 64.0476C197.43 64.0476 204.191 66.6502 209.056 60.4825C213.903 54.3148 211.381 46.8815 207.536 45.0455C203.69 43.2094 198.915 45.8298 198.915 45.8298L202.85 39.0382C202.85 39.0382 188.952 3.08384 171.584 23.922L171.602 23.9399Z" fill="#F48462"/>
<path d="M199.094 56.1331C199.219 56.1331 199.344 56.0974 199.451 56.0261L208.484 50.3041C208.788 50.108 208.895 49.698 208.699 49.3771C208.502 49.0741 208.09 48.9671 207.769 49.1632L198.736 54.8853C198.432 55.0813 198.324 55.4913 198.521 55.8122C198.646 56.0083 198.861 56.1152 199.094 56.1152V56.1331Z" fill="black"/>
<path d="M206.999 56.4896C207.286 56.4896 207.554 56.3113 207.643 56.0261C207.751 55.6696 207.554 55.2952 207.214 55.1883L201.58 53.4057C201.222 53.2988 200.846 53.4949 200.739 53.8335C200.632 54.1901 200.829 54.5644 201.168 54.6713L206.803 56.4539C206.803 56.4539 206.946 56.4896 206.999 56.4896Z" fill="black"/>
<path d="M187.199 34.8669C187.324 34.8669 187.467 34.8313 187.575 34.7422C187.879 34.5283 187.95 34.1183 187.754 33.8152C184.784 29.4836 180.456 31.4444 180.42 31.4622C180.08 31.6227 179.937 32.0148 180.098 32.3535C180.259 32.6922 180.653 32.8348 180.992 32.6744C181.136 32.6031 184.337 31.1949 186.645 34.5639C186.77 34.76 186.984 34.8491 187.199 34.8491V34.8669Z" fill="black"/>
<path d="M168.579 32.9062C168.722 32.9062 168.848 32.8705 168.973 32.7814C171.173 31.1771 173.337 32.5853 173.355 32.5853C173.659 32.7814 174.088 32.7101 174.285 32.4071C174.5 32.104 174.41 31.694 174.106 31.4801C173.981 31.391 171.137 29.5371 168.186 31.7119C167.882 31.9258 167.828 32.3536 168.043 32.6388C168.168 32.8171 168.383 32.9062 168.579 32.9062Z" fill="black"/>
<path d="M172.031 54.5643C172.031 54.5643 172.139 54.5643 172.192 54.5465C172.55 54.4573 172.783 54.1008 172.693 53.7443C170.994 46.5962 175.018 41.712 175.054 41.6585C175.287 41.3733 175.251 40.9455 174.965 40.7138C174.679 40.482 174.267 40.5177 174.017 40.8029C173.838 41.0168 169.527 46.2397 171.388 54.0473C171.459 54.3504 171.727 54.5643 172.031 54.5643Z" fill="black"/>
<path d="M168.132 42.1398C168.418 42.1398 168.669 41.9616 168.776 41.6763L170.225 37.3447C170.35 36.9882 170.153 36.6139 169.796 36.5069C169.438 36.3999 169.062 36.5782 168.955 36.9347L167.506 41.2664C167.381 41.6229 167.578 41.9972 167.935 42.1042C168.007 42.122 168.079 42.1398 168.15 42.1398H168.132Z" fill="black"/>
<path d="M180.313 43.0668C180.599 43.0668 180.849 42.8886 180.957 42.6033L182.405 38.2717C182.531 37.9152 182.334 37.5409 181.976 37.4339C181.618 37.3269 181.243 37.5052 181.136 37.8617L179.687 42.1934C179.562 42.5499 179.758 42.9242 180.116 43.0312C180.188 43.049 180.259 43.0668 180.331 43.0668H180.313Z" fill="black"/>
<path d="M169.277 29.2341C169.277 29.2341 171.584 25.4908 176.396 25.7403C181.207 25.972 183.819 29.5015 183.819 29.5015C183.819 29.5015 181.261 37.4339 187.539 42.0864C193.817 46.7389 198.95 45.8298 198.95 45.8298L203.78 44.4216L207.643 37.7192L194.783 22.2287L177.576 11.8898L168.078 19.5548L169.295 29.2341H169.277Z" fill="#431949"/>
<path d="M196.16 82.3011C196.16 82.3011 229.035 78.6111 247.226 110.804C262.662 138.149 261.911 162.98 261.911 162.98L210.72 155.6L196.178 82.3011H196.16Z" fill="#9B4EA8"/>
<path d="M261.91 162.98C261.91 162.98 260.927 202.446 229.053 197.829C192.869 192.588 178.47 120.537 178.47 120.537L167.667 113.674C167.667 113.674 169.742 122.462 161.085 117.738C152.428 113.015 154.163 104.138 154.163 104.138L164.287 86.2584C164.287 86.2584 149.351 71.9444 153.769 71.2135C160.584 70.0905 181.833 84.7432 181.833 84.7432C181.833 84.7432 180.67 75.9195 185.607 77.3812C190.937 78.9498 192.815 95.2247 192.815 95.2247L249.569 159.95L261.91 162.98Z" fill="#F48462"/>
<path d="M167.667 114.352C167.864 114.352 168.043 114.262 168.168 114.12C168.365 113.888 168.383 113.549 168.204 113.3L164.251 107.542C164.036 107.239 163.625 107.168 163.321 107.364C163.017 107.578 162.945 107.988 163.142 108.291L165.664 111.963L161.997 110.18C161.657 110.02 161.264 110.163 161.103 110.483C160.942 110.822 161.085 111.214 161.407 111.375L167.345 114.245C167.435 114.298 167.542 114.316 167.631 114.316L167.667 114.352Z" fill="black"/>
<path d="M168.132 89.6096C168.347 89.6096 168.543 89.5027 168.687 89.3244C168.901 89.0214 168.83 88.6114 168.526 88.3975L164.68 85.7058C164.376 85.4919 163.965 85.5632 163.75 85.8662C163.535 86.1693 163.607 86.5793 163.911 86.7932L167.756 89.4849C167.882 89.574 168.007 89.6096 168.132 89.6096Z" fill="black"/>
<path d="M195.999 95.6168L172.693 124.726C172.693 124.726 181.672 180.77 209.664 198.186C237.657 215.601 263.771 190.806 261.911 162.962C260.05 135.118 196.017 95.599 196.017 95.599L195.999 95.6168Z" fill="#9B4EA8"/>
<path d="M175.734 60.732C175.841 60.732 175.948 60.7142 176.038 60.6607L180.599 58.2899C180.921 58.1117 181.046 57.7195 180.885 57.3808C180.706 57.0599 180.313 56.9173 179.973 57.0956L175.412 59.4664C175.09 59.6447 174.965 60.0368 175.126 60.3755C175.251 60.6073 175.483 60.732 175.716 60.732H175.734Z" fill="black"/>
<path d="M181.815 85.4027C181.976 85.4027 182.119 85.3492 182.245 85.2423C182.477 85.0462 182.549 84.7253 182.423 84.458C182.406 84.4045 180.295 79.5559 183.425 76.2403C183.926 75.7056 184.302 75.7234 184.552 75.7769C186.43 76.2047 188.737 81.3385 189.757 84.4936C189.864 84.8501 190.258 85.0462 190.598 84.9214C190.955 84.8145 191.152 84.4223 191.027 84.0836C190.741 83.1745 188.058 75.2064 184.838 74.4756C184.248 74.333 183.354 74.3865 182.441 75.3312C179.973 77.9338 180.152 81.178 180.599 83.1745L174.017 78.9498C173.695 78.7538 173.283 78.8429 173.087 79.1459C172.89 79.449 172.979 79.8768 173.283 80.0728L181.422 85.2958C181.529 85.3671 181.654 85.4027 181.78 85.4027H181.815Z" fill="black"/>
<path d="M216.354 122.07C216.354 122.07 229.143 121.874 235.063 124.334C240.983 126.812 251.984 142.106 250.177 144.37C248.371 146.634 244.418 144.37 244.418 144.37C244.418 144.37 246.582 149.949 241.538 149.807C236.494 149.664 216.354 122.07 216.354 122.07Z" fill="#F48462"/>
<path d="M116.959 144.424C117.066 144.424 117.192 144.388 117.299 144.334C133.647 135.029 172.3 133.728 172.693 133.728C173.069 133.728 173.355 133.407 173.337 133.033C173.337 132.659 172.997 132.409 172.639 132.391C171.048 132.445 133.272 133.71 116.619 143.176C116.297 143.354 116.19 143.764 116.369 144.085C116.494 144.299 116.727 144.424 116.959 144.424Z" fill="#5D2866"/>
<path d="M120.483 195.886C120.912 195.851 157.991 192.375 188.916 178.221C189.256 178.061 189.399 177.668 189.238 177.33C189.077 176.991 188.684 176.848 188.344 177.009C157.633 191.055 120.787 194.514 120.411 194.549C120.036 194.585 119.767 194.906 119.803 195.28C119.839 195.619 120.125 195.886 120.465 195.886H120.483Z" fill="#5D2866"/>
<path d="M172.693 125.404C172.89 125.404 173.105 125.314 173.23 125.136L196.017 95.2603L210.916 114.084C211.149 114.369 211.56 114.423 211.864 114.191C212.151 113.959 212.204 113.549 211.972 113.246L196.536 93.7452C196.411 93.5847 196.214 93.5313 195.999 93.4956C195.785 93.4956 195.588 93.6026 195.48 93.763L172.174 124.334C171.942 124.619 172.014 125.047 172.3 125.279C172.425 125.368 172.568 125.421 172.711 125.421L172.693 125.404Z" fill="#5D2866"/>
<path d="M137.099 136.562C141.106 136.562 145.345 136.206 147.366 136.01C147.67 135.974 147.903 135.76 147.956 135.457C148.01 135.172 147.867 134.869 147.599 134.744C147.026 134.459 133.468 127.828 128.693 132.569C127.763 133.496 127.834 134.227 128.049 134.673C128.746 136.135 132.771 136.545 137.081 136.545L137.099 136.562ZM144.683 134.905C137.26 135.439 129.837 135.297 129.283 134.12C129.283 134.085 129.283 133.906 129.658 133.532C132.485 130.716 140.086 133.015 144.683 134.905Z" fill="#5D2866"/>
<path d="M191.188 87.5062C191.188 87.5062 191.241 87.5062 191.277 87.5062C195.892 86.8823 196.822 82.4615 196.822 82.4259C196.894 82.0694 196.661 81.7129 196.303 81.6416C195.946 81.5702 195.588 81.802 195.516 82.1585C195.48 82.3011 194.747 85.688 191.116 86.1871C190.741 86.2406 190.49 86.5793 190.544 86.9358C190.598 87.2745 190.884 87.524 191.206 87.524L191.188 87.5062Z" fill="#5D2866"/>
<path d="M244.775 145.386C244.936 145.386 245.097 145.333 245.223 145.226C245.509 144.976 245.527 144.566 245.294 144.281L234.24 131.678C233.99 131.393 233.578 131.375 233.292 131.607C233.006 131.856 232.988 132.266 233.221 132.552L244.275 145.154C244.4 145.297 244.597 145.386 244.775 145.386Z" fill="black"/>
</g>
<defs>
<clipPath id="clip0_2024_998">
<rect width="262" height="546" fill="white"/>
</clipPath>
</defs>
</svg>
