<svg width="110" height="70" viewBox="0 0 110 70" fill="none" xmlns="http://www.w3.org/2000/svg">
<path d="M10 70C7.25 70 4.89667 69.0217 2.94 67.065C0.98 65.105 0 62.75 0 60V10C0 7.25 0.98 4.89667 2.94 2.94C4.89667 0.979999 7.25 0 10 0H60C62.75 0 65.105 0.979999 67.065 2.94C69.0217 4.89667 70 7.25 70 10V60C70 62.75 69.0217 65.105 67.065 67.065C65.105 69.0217 62.75 70 60 70H10ZM85 30C83.5833 30 82.3967 29.52 81.44 28.56C80.48 27.6033 80 26.4167 80 25V5C80 3.58333 80.48 2.395 81.44 1.435C82.3967 0.478334 83.5833 0 85 0H105C106.417 0 107.603 0.478334 108.56 1.435C109.52 2.395 110 3.58333 110 5V25C110 26.4167 109.52 27.6033 108.56 28.56C107.603 29.52 106.417 30 105 30H85ZM90 20H100V10H90V20ZM10 60H60V10H10V60ZM20 50H50C51 50 51.75 49.5417 52.25 48.625C52.75 47.7083 52.6667 46.8333 52 46L43.875 35.125C43.375 34.4583 42.7083 34.125 41.875 34.125C41.0417 34.125 40.375 34.4583 39.875 35.125L32.5 45L27.625 38.5C27.125 37.8333 26.4583 37.5 25.625 37.5C24.7917 37.5 24.125 37.8333 23.625 38.5L18 46C17.3333 46.8333 17.25 47.7083 17.75 48.625C18.25 49.5417 19 50 20 50ZM85 70C83.5833 70 82.3967 69.52 81.44 68.56C80.48 67.6033 80 66.4167 80 65V45C80 43.5833 80.48 42.395 81.44 41.435C82.3967 40.4783 83.5833 40 85 40H105C106.417 40 107.603 40.4783 108.56 41.435C109.52 42.395 110 43.5833 110 45V65C110 66.4167 109.52 67.6033 108.56 68.56C107.603 69.52 106.417 70 105 70H85ZM90 60H100V50H90V60Z" fill="#262626"/>
</svg>
