<svg width="8" height="9" viewBox="0 0 8 9" fill="none" xmlns="http://www.w3.org/2000/svg">
<path d="M0.0963032 0.768816C0.0657713 0.738284 0.0415522 0.702038 0.0250284 0.662146C0.00850469 0.622254 3.21706e-10 0.579498 0 0.53632C-3.21706e-10 0.493141 0.00850469 0.450385 0.0250284 0.410493C0.0415522 0.370601 0.0657713 0.334355 0.0963032 0.303823C0.126835 0.273291 0.163082 0.249072 0.202974 0.232548C0.242866 0.216024 0.285621 0.20752 0.3288 0.20752C0.371979 0.20752 0.414734 0.216024 0.454626 0.232548C0.494518 0.249072 0.530765 0.273291 0.561297 0.303823L3.94104 3.68422L7.32078 0.303823C7.35131 0.273291 7.38756 0.249072 7.42745 0.232548C7.46734 0.216024 7.5101 0.20752 7.55328 0.20752C7.59645 0.20752 7.63921 0.216024 7.6791 0.232548C7.71899 0.249072 7.75524 0.273291 7.78577 0.303823C7.8163 0.334355 7.84052 0.370601 7.85705 0.410493C7.87357 0.450385 7.88207 0.493141 7.88207 0.53632C7.88207 0.579498 7.87357 0.622254 7.85705 0.662146C7.84052 0.702038 7.8163 0.738284 7.78577 0.768816L4.40537 4.14856L7.78577 7.5283C7.8163 7.55883 7.84052 7.59508 7.85705 7.63497C7.87357 7.67486 7.88207 7.71762 7.88207 7.76079C7.88207 7.80397 7.87357 7.84673 7.85705 7.88662C7.84052 7.92651 7.8163 7.96276 7.78577 7.99329C7.75524 8.02382 7.71899 8.04804 7.6791 8.06457C7.63921 8.08109 7.59645 8.08959 7.55328 8.08959C7.5101 8.08959 7.46734 8.08109 7.42745 8.06457C7.38756 8.04804 7.35131 8.02382 7.32078 7.99329L3.94104 4.61289L0.561297 7.99329C0.530765 8.02382 0.494518 8.04804 0.454626 8.06457C0.414734 8.08109 0.371979 8.08959 0.3288 8.08959C0.285621 8.08959 0.242866 8.08109 0.202974 8.06457C0.163082 8.04804 0.126835 8.02382 0.0963032 7.99329C0.0657713 7.96276 0.0415522 7.92651 0.0250284 7.88662C0.00850469 7.84673 0 7.80397 0 7.76079C0 7.71762 0.00850469 7.67486 0.0250284 7.63497C0.0415522 7.59508 0.0657713 7.55883 0.0963032 7.5283L3.4767 4.14856L0.0963032 0.768816Z" fill="#4CDC8B"/>
</svg>
