<svg width="688" height="698" viewBox="0 0 688 698" fill="none" xmlns="http://www.w3.org/2000/svg">
<path d="M659.4 379.9C665.6 389.4 668.6 400.1 668.6 410.7C668.6 429.8 658.9 448.5 641.3 459.1C624.2 469.4 614 487.9 614 507.5C614 527.1 614.2 512.3 614.5 514.8C614.8 517.3 615 519.7 615 522.1C615 550.8 593.2 575.5 563.9 578.3C552.8 579.4 542.5 583.7 534.1 590.4C525.7 597.1 519.2 606.2 515.7 616.8C507.8 640.6 485.7 655.6 462 655.6C438.3 655.6 448.9 654.5 442.5 652.1C436.1 649.8 429.5 648.6 423 648.6C408 648.6 393.2 654.6 382.4 665.8C371.3 677.3 356.5 683 341.8 683C327.1 683 312.3 677.3 301.2 665.8C290.3 654.6 275.6 648.6 260.6 648.6C245.6 648.6 247.4 649.7 241.1 652.1C234.6 654.5 228 655.6 221.6 655.6C197.9 655.6 175.8 640.6 167.9 616.8C164.4 606.2 157.9 597.1 149.5 590.4C141.1 583.7 130.8 579.4 119.7 578.3C90.4 575.5 68.6 550.8 68.6 522.1C68.6 493.4 68.8 517.2 69.1 514.8C69.4 512.4 69.6 509.9 69.6 507.5C69.6 487.9 59.4 469.5 42.3 459.1C24.7 448.5 15 429.8 15 410.7C15 391.6 18 389.4 24.2 379.9C30.3 370.5 33.4 359.8 33.4 349C33.4 338.2 30.3 327.5 24.2 318.1C18 308.6 15 297.9 15 287.3C15 268.2 24.7 249.5 42.3 238.9C59.4 228.6 69.6 210.1 69.6 190.5C69.6 170.9 69.4 185.7 69.1 183.2C68.8 180.7 68.6 178.3 68.6 175.9C68.6 147.2 90.4 122.5 119.7 119.7C130.8 118.6 141.1 114.3 149.5 107.6C157.9 100.9 164.4 91.8 167.9 81.2C175.8 57.4 197.9 42.4 221.6 42.4C245.3 42.4 234.7 43.5 241.1 45.9C247.5 48.2 254.1 49.4 260.6 49.4C275.6 49.4 290.4 43.4 301.2 32.2C312.3 20.7 327.1 15 341.8 15C356.5 15 371.3 20.7 382.4 32.2C398 48.3 421.6 53.7 442.6 45.9C449.1 43.5 455.7 42.4 462.1 42.4C485.8 42.4 507.9 57.4 515.8 81.2C519.3 91.8 525.8 100.9 534.2 107.6C542.6 114.3 552.9 118.6 564 119.7C593.3 122.5 615.1 147.2 615.1 175.9C615.1 204.6 614.9 180.8 614.6 183.2C614.3 185.6 614.1 188.1 614.1 190.5C614.1 210.1 624.3 228.5 641.4 238.9C659 249.5 668.7 268.2 668.7 287.3C668.7 306.4 665.7 308.6 659.5 318.1C653.4 327.5 650.3 338.2 650.3 349C650.3 359.8 653.4 370.5 659.5 379.9H659.4Z" stroke="#A640FF" stroke-width="30" stroke-miterlimit="10"/>
<path d="M251.9 495.3L181.9 425.3C166.7 410.1 166.7 385.5 181.9 370.4C197.1 355.2 221.7 355.2 236.8 370.4L268.4 402C272.7 406.3 279.7 405.9 283.6 401.2L436.5 212.9C450 196.2 474.5 193.7 491.1 207.2C507.8 220.7 510.3 245.2 496.8 261.8L309.6 492.3C295.1 510.2 268.3 511.6 252 495.3H251.9Z" stroke="#A640FF" stroke-width="30" stroke-miterlimit="10"/>
</svg>
